<ttFont>
    <TTGlyph name="A" xMin="5" yMin="0" xMax="721" yMax="710">
      <contour>
        <pt x="119" y="4" on="1"/>
        <pt x="15" y="0" on="1"/>
        <pt x="5" y="46" on="1"/>
        <pt x="11" y="46" on="1"/>
        <pt x="57" y="51" on="0"/>
        <pt x="106" y="92" on="0"/>
        <pt x="123" y="139" on="1"/>
        <pt x="335" y="710" on="1"/>
        <pt x="383" y="710" on="1"/>
        <pt x="619" y="123" on="1"/>
        <pt x="640" y="74" on="0"/>
        <pt x="673" y="44" on="0"/>
        <pt x="710" y="44" on="1"/>
        <pt x="721" y="0" on="1"/>
        <pt x="643" y="5" on="0"/>
        <pt x="518" y="5" on="0"/>
        <pt x="459" y="0" on="1"/>
        <pt x="450" y="43" on="1"/>
        <pt x="454" y="43" on="1"/>
        <pt x="533" y="44" on="0"/>
        <pt x="533" y="71" on="1"/>
        <pt x="533" y="84" on="0"/>
        <pt x="461" y="249" on="1"/>
        <pt x="212" y="249" on="1"/>
        <pt x="163" y="113" on="1"/>
        <pt x="160" y="101" on="0"/>
        <pt x="160" y="92" on="1"/>
        <pt x="160" y="71" on="0"/>
        <pt x="198" y="49" on="0"/>
        <pt x="244" y="46" on="1"/>
        <pt x="256" y="0" on="1"/>
      </contour>
      <contour>
        <pt x="327" y="565" on="1"/>
        <pt x="231" y="301" on="1"/>
        <pt x="438" y="301" on="1"/>
      </contour>
    </TTGlyph>
    <TTGlyph name="AE" xMin="0" yMin="-3" xMax="1028" yMax="713">
      <contour>
        <pt x="796" y="666" on="1"/>
        <pt x="683" y="665" on="1"/>
        <pt x="613" y="662" on="0"/>
        <pt x="613" y="649" on="1"/>
        <pt x="613" y="399" on="1"/>
        <pt x="613" y="389" on="0"/>
        <pt x="623" y="389" on="1"/>
        <pt x="782" y="389" on="1"/>
        <pt x="806" y="389" on="0"/>
        <pt x="823" y="434" on="0"/>
        <pt x="823" y="495" on="1"/>
        <pt x="856" y="500" on="1"/>
        <pt x="854" y="367" on="1"/>
        <pt x="856" y="244" on="1"/>
        <pt x="823" y="239" on="1"/>
        <pt x="823" y="298" on="0"/>
        <pt x="809" y="332" on="0"/>
        <pt x="782" y="332" on="1"/>
        <pt x="623" y="332" on="1"/>
        <pt x="613" y="332" on="0"/>
        <pt x="613" y="323" on="1"/>
        <pt x="613" y="113" on="1"/>
        <pt x="613" y="69" on="0"/>
        <pt x="649" y="46" on="0"/>
        <pt x="710" y="46" on="1"/>
        <pt x="807" y="46" on="1"/>
        <pt x="883" y="46" on="0"/>
        <pt x="969" y="117" on="0"/>
        <pt x="994" y="191" on="1"/>
        <pt x="1028" y="185" on="1"/>
        <pt x="1028" y="167" on="0"/>
        <pt x="976" y="0" on="0"/>
        <pt x="965" y="0" on="1"/>
        <pt x="710" y="-2" on="1"/>
        <pt x="684" y="-2" on="0"/>
        <pt x="558" y="0" on="1"/>
        <pt x="447" y="-3" on="1"/>
        <pt x="439" y="41" on="1"/>
        <pt x="495" y="47" on="0"/>
        <pt x="520" y="58" on="0"/>
        <pt x="522" y="80" on="1"/>
        <pt x="522" y="249" on="1"/>
        <pt x="264" y="249" on="1"/>
        <pt x="179" y="113" on="1"/>
        <pt x="169" y="93" on="0"/>
        <pt x="169" y="68" on="0"/>
        <pt x="196" y="49" on="0"/>
        <pt x="242" y="46" on="1"/>
        <pt x="241" y="0" on="1"/>
        <pt x="105" y="4" on="1"/>
        <pt x="0" y="0" on="1"/>
        <pt x="3" y="46" on="1"/>
        <pt x="9" y="46" on="1"/>
        <pt x="54" y="50" on="0"/>
        <pt x="108" y="91" on="0"/>
        <pt x="140" y="139" on="1"/>
        <pt x="453" y="630" on="1"/>
        <pt x="459" y="639" on="0"/>
        <pt x="459" y="653" on="0"/>
        <pt x="431" y="665" on="0"/>
        <pt x="374" y="669" on="1"/>
        <pt x="365" y="713" on="1"/>
        <pt x="494" y="710" on="0"/>
        <pt x="513" y="710" on="1"/>
        <pt x="720" y="710" on="1"/>
        <pt x="967" y="709" on="1"/>
        <pt x="974" y="694" on="0"/>
        <pt x="974" y="590" on="0"/>
        <pt x="969" y="535" on="1"/>
        <pt x="937" y="538" on="1"/>
        <pt x="925" y="609" on="0"/>
        <pt x="861" y="666" on="0"/>
      </contour>
      <contour>
        <pt x="522" y="301" on="1"/>
        <pt x="522" y="661" on="1"/>
        <pt x="297" y="301" on="1"/>
      </contour>
    </TTGlyph>
    <TTGlyph name="Aacute" xMin="29" yMin="0" xMax="745" yMax="900">
      <contour>
        <pt x="338" y="791" on="1"/>
        <pt x="492" y="900" on="1"/>
        <pt x="501" y="900" on="0"/>
        <pt x="545" y="857" on="0"/>
        <pt x="549" y="847" on="1"/>
        <pt x="361" y="771" on="1"/>
        <pt x="350" y="774" on="0"/>
        <pt x="338" y="787" on="0"/>
      </contour>
      <contour>
        <pt x="143" y="4" on="1"/>
        <pt x="39" y="0" on="1"/>
        <pt x="29" y="46" on="1"/>
        <pt x="35" y="46" on="1"/>
        <pt x="81" y="51" on="0"/>
        <pt x="130" y="92" on="0"/>
        <pt x="147" y="139" on="1"/>
        <pt x="359" y="710" on="1"/>
        <pt x="407" y="710" on="1"/>
        <pt x="643" y="123" on="1"/>
        <pt x="664" y="74" on="0"/>
        <pt x="697" y="44" on="0"/>
        <pt x="734" y="44" on="1"/>
        <pt x="745" y="0" on="1"/>
        <pt x="667" y="5" on="0"/>
        <pt x="542" y="5" on="0"/>
        <pt x="483" y="0" on="1"/>
        <pt x="474" y="43" on="1"/>
        <pt x="478" y="43" on="1"/>
        <pt x="557" y="44" on="0"/>
        <pt x="557" y="71" on="1"/>
        <pt x="557" y="84" on="0"/>
        <pt x="485" y="249" on="1"/>
        <pt x="236" y="249" on="1"/>
        <pt x="187" y="113" on="1"/>
        <pt x="184" y="101" on="0"/>
        <pt x="184" y="92" on="1"/>
        <pt x="184" y="71" on="0"/>
        <pt x="222" y="49" on="0"/>
        <pt x="268" y="46" on="1"/>
        <pt x="280" y="0" on="1"/>
      </contour>
      <contour>
        <pt x="351" y="565" on="1"/>
        <pt x="255" y="301" on="1"/>
        <pt x="462" y="301" on="1"/>
      </contour>
    </TTGlyph>
    <TTGlyph name="Acircumflex" xMin="29" yMin="0" xMax="745" yMax="933">
      <contour>
        <pt x="416" y="933" on="1"/>
        <pt x="418" y="933" on="0"/>
        <pt x="422" y="926" on="1"/>
        <pt x="526" y="792" on="1"/>
        <pt x="526" y="788" on="0"/>
        <pt x="514" y="775" on="0"/>
        <pt x="503" y="772" on="1"/>
        <pt x="383" y="860" on="1"/>
        <pt x="264" y="772" on="1"/>
        <pt x="253" y="775" on="0"/>
        <pt x="241" y="788" on="0"/>
        <pt x="241" y="792" on="1"/>
        <pt x="347" y="931" on="1"/>
        <pt x="395" y="933" on="0"/>
      </contour>
      <contour>
        <pt x="143" y="4" on="1"/>
        <pt x="39" y="0" on="1"/>
        <pt x="29" y="46" on="1"/>
        <pt x="35" y="46" on="1"/>
        <pt x="81" y="51" on="0"/>
        <pt x="130" y="92" on="0"/>
        <pt x="147" y="139" on="1"/>
        <pt x="359" y="710" on="1"/>
        <pt x="407" y="710" on="1"/>
        <pt x="643" y="123" on="1"/>
        <pt x="664" y="74" on="0"/>
        <pt x="697" y="44" on="0"/>
        <pt x="734" y="44" on="1"/>
        <pt x="745" y="0" on="1"/>
        <pt x="667" y="5" on="0"/>
        <pt x="542" y="5" on="0"/>
        <pt x="483" y="0" on="1"/>
        <pt x="474" y="43" on="1"/>
        <pt x="478" y="43" on="1"/>
        <pt x="557" y="44" on="0"/>
        <pt x="557" y="71" on="1"/>
        <pt x="557" y="84" on="0"/>
        <pt x="485" y="249" on="1"/>
        <pt x="236" y="249" on="1"/>
        <pt x="187" y="113" on="1"/>
        <pt x="184" y="101" on="0"/>
        <pt x="184" y="92" on="1"/>
        <pt x="184" y="71" on="0"/>
        <pt x="222" y="49" on="0"/>
        <pt x="268" y="46" on="1"/>
        <pt x="280" y="0" on="1"/>
      </contour>
      <contour>
        <pt x="351" y="565" on="1"/>
        <pt x="255" y="301" on="1"/>
        <pt x="462" y="301" on="1"/>
      </contour>
    </TTGlyph>
    <TTGlyph name="Adieresis" xMin="50" yMin="0" xMax="766" yMax="890">
      <contour>
        <pt x="164" y="4" on="1"/>
        <pt x="60" y="0" on="1"/>
        <pt x="50" y="46" on="1"/>
        <pt x="56" y="46" on="1"/>
        <pt x="102" y="51" on="0"/>
        <pt x="151" y="92" on="0"/>
        <pt x="168" y="139" on="1"/>
        <pt x="380" y="710" on="1"/>
        <pt x="428" y="710" on="1"/>
        <pt x="664" y="123" on="1"/>
        <pt x="685" y="74" on="0"/>
        <pt x="718" y="44" on="0"/>
        <pt x="755" y="44" on="1"/>
        <pt x="766" y="0" on="1"/>
        <pt x="688" y="5" on="0"/>
        <pt x="563" y="5" on="0"/>
        <pt x="504" y="0" on="1"/>
        <pt x="495" y="43" on="1"/>
        <pt x="499" y="43" on="1"/>
        <pt x="578" y="44" on="0"/>
        <pt x="578" y="71" on="1"/>
        <pt x="578" y="84" on="0"/>
        <pt x="506" y="249" on="1"/>
        <pt x="257" y="249" on="1"/>
        <pt x="208" y="113" on="1"/>
        <pt x="205" y="101" on="0"/>
        <pt x="205" y="92" on="1"/>
        <pt x="205" y="71" on="0"/>
        <pt x="243" y="49" on="0"/>
        <pt x="289" y="46" on="1"/>
        <pt x="301" y="0" on="1"/>
      </contour>
      <contour>
        <pt x="372" y="565" on="1"/>
        <pt x="276" y="301" on="1"/>
        <pt x="483" y="301" on="1"/>
      </contour>
      <contour>
        <pt x="288" y="772" on="0"/>
        <pt x="255" y="804" on="0"/>
        <pt x="255" y="854" on="0"/>
        <pt x="290" y="890" on="0"/>
        <pt x="341" y="890" on="0"/>
        <pt x="374" y="859" on="0"/>
        <pt x="374" y="808" on="0"/>
        <pt x="340" y="772" on="0"/>
      </contour>
      <contour>
        <pt x="465" y="772" on="0"/>
        <pt x="432" y="804" on="0"/>
        <pt x="432" y="854" on="0"/>
        <pt x="466" y="890" on="0"/>
        <pt x="517" y="890" on="0"/>
        <pt x="550" y="859" on="0"/>
        <pt x="550" y="808" on="0"/>
        <pt x="515" y="772" on="0"/>
      </contour>
    </TTGlyph>
    <TTGlyph name="Agrave" xMin="29" yMin="0" xMax="745" yMax="898">
      <contour>
        <pt x="277" y="898" on="1"/>
        <pt x="431" y="789" on="1"/>
        <pt x="431" y="785" on="0"/>
        <pt x="419" y="772" on="0"/>
        <pt x="408" y="769" on="1"/>
        <pt x="220" y="845" on="1"/>
        <pt x="222" y="855" on="0"/>
        <pt x="269" y="898" on="0"/>
      </contour>
      <contour>
        <pt x="143" y="4" on="1"/>
        <pt x="39" y="0" on="1"/>
        <pt x="29" y="46" on="1"/>
        <pt x="35" y="46" on="1"/>
        <pt x="81" y="51" on="0"/>
        <pt x="130" y="92" on="0"/>
        <pt x="147" y="139" on="1"/>
        <pt x="359" y="710" on="1"/>
        <pt x="407" y="710" on="1"/>
        <pt x="643" y="123" on="1"/>
        <pt x="664" y="74" on="0"/>
        <pt x="697" y="44" on="0"/>
        <pt x="734" y="44" on="1"/>
        <pt x="745" y="0" on="1"/>
        <pt x="667" y="5" on="0"/>
        <pt x="542" y="5" on="0"/>
        <pt x="483" y="0" on="1"/>
        <pt x="474" y="43" on="1"/>
        <pt x="478" y="43" on="1"/>
        <pt x="557" y="44" on="0"/>
        <pt x="557" y="71" on="1"/>
        <pt x="557" y="84" on="0"/>
        <pt x="485" y="249" on="1"/>
        <pt x="236" y="249" on="1"/>
        <pt x="187" y="113" on="1"/>
        <pt x="184" y="101" on="0"/>
        <pt x="184" y="92" on="1"/>
        <pt x="184" y="71" on="0"/>
        <pt x="222" y="49" on="0"/>
        <pt x="268" y="46" on="1"/>
        <pt x="280" y="0" on="1"/>
      </contour>
      <contour>
        <pt x="351" y="565" on="1"/>
        <pt x="255" y="301" on="1"/>
        <pt x="462" y="301" on="1"/>
      </contour>
    </TTGlyph>
    <TTGlyph name="Aring" xMin="5" yMin="0" xMax="721" yMax="921">
      <contour>
        <pt x="119" y="4" on="1"/>
        <pt x="15" y="0" on="1"/>
        <pt x="5" y="46" on="1"/>
        <pt x="11" y="46" on="1"/>
        <pt x="57" y="51" on="0"/>
        <pt x="106" y="92" on="0"/>
        <pt x="123" y="139" on="1"/>
        <pt x="335" y="710" on="1"/>
        <pt x="383" y="710" on="1"/>
        <pt x="619" y="123" on="1"/>
        <pt x="640" y="74" on="0"/>
        <pt x="673" y="44" on="0"/>
        <pt x="710" y="44" on="1"/>
        <pt x="721" y="0" on="1"/>
        <pt x="643" y="5" on="0"/>
        <pt x="518" y="5" on="0"/>
        <pt x="459" y="0" on="1"/>
        <pt x="450" y="43" on="1"/>
        <pt x="454" y="43" on="1"/>
        <pt x="533" y="44" on="0"/>
        <pt x="533" y="71" on="1"/>
        <pt x="533" y="84" on="0"/>
        <pt x="461" y="249" on="1"/>
        <pt x="212" y="249" on="1"/>
        <pt x="163" y="113" on="1"/>
        <pt x="160" y="101" on="0"/>
        <pt x="160" y="92" on="1"/>
        <pt x="160" y="71" on="0"/>
        <pt x="198" y="49" on="0"/>
        <pt x="244" y="46" on="1"/>
        <pt x="256" y="0" on="1"/>
      </contour>
      <contour>
        <pt x="327" y="565" on="1"/>
        <pt x="231" y="301" on="1"/>
        <pt x="438" y="301" on="1"/>
      </contour>
      <contour>
        <pt x="316" y="759" on="0"/>
        <pt x="266" y="806" on="0"/>
        <pt x="266" y="871" on="0"/>
        <pt x="314" y="921" on="0"/>
        <pt x="387" y="921" on="0"/>
        <pt x="437" y="876" on="0"/>
        <pt x="437" y="810" on="0"/>
        <pt x="384" y="759" on="0"/>
      </contour>
      <contour>
        <pt x="337" y="879" on="0"/>
        <pt x="311" y="857" on="0"/>
        <pt x="311" y="826" on="0"/>
        <pt x="336" y="805" on="0"/>
        <pt x="370" y="805" on="0"/>
        <pt x="393" y="828" on="0"/>
        <pt x="393" y="843" on="1"/>
        <pt x="393" y="879" on="0"/>
        <pt x="354" y="879" on="1"/>
      </contour>
    </TTGlyph>
    <TTGlyph name="Atilde" xMin="29" yMin="0" xMax="745" yMax="894">
      <contour>
        <pt x="143" y="4" on="1"/>
        <pt x="39" y="0" on="1"/>
        <pt x="29" y="46" on="1"/>
        <pt x="35" y="46" on="1"/>
        <pt x="81" y="51" on="0"/>
        <pt x="130" y="92" on="0"/>
        <pt x="147" y="139" on="1"/>
        <pt x="359" y="710" on="1"/>
        <pt x="407" y="710" on="1"/>
        <pt x="643" y="123" on="1"/>
        <pt x="664" y="74" on="0"/>
        <pt x="697" y="44" on="0"/>
        <pt x="734" y="44" on="1"/>
        <pt x="745" y="0" on="1"/>
        <pt x="667" y="5" on="0"/>
        <pt x="542" y="5" on="0"/>
        <pt x="483" y="0" on="1"/>
        <pt x="474" y="43" on="1"/>
        <pt x="478" y="43" on="1"/>
        <pt x="557" y="44" on="0"/>
        <pt x="557" y="71" on="1"/>
        <pt x="557" y="84" on="0"/>
        <pt x="485" y="249" on="1"/>
        <pt x="236" y="249" on="1"/>
        <pt x="187" y="113" on="1"/>
        <pt x="184" y="101" on="0"/>
        <pt x="184" y="92" on="1"/>
        <pt x="184" y="71" on="0"/>
        <pt x="222" y="49" on="0"/>
        <pt x="268" y="46" on="1"/>
        <pt x="280" y="0" on="1"/>
      </contour>
      <contour>
        <pt x="351" y="565" on="1"/>
        <pt x="255" y="301" on="1"/>
        <pt x="462" y="301" on="1"/>
      </contour>
      <contour>
        <pt x="288" y="868" on="1"/>
        <pt x="469" y="864" on="1"/>
        <pt x="503" y="864" on="0"/>
        <pt x="527" y="894" on="1"/>
        <pt x="534" y="894" on="0"/>
        <pt x="550" y="879" on="1"/>
        <pt x="551" y="877" on="0"/>
        <pt x="551" y="871" on="0"/>
        <pt x="549" y="867" on="1"/>
        <pt x="502" y="789" on="0"/>
        <pt x="471" y="789" on="1"/>
        <pt x="303" y="793" on="1"/>
        <pt x="252" y="793" on="0"/>
        <pt x="230" y="754" on="1"/>
        <pt x="230" y="754" on="0"/>
        <pt x="224" y="754" on="0"/>
        <pt x="209" y="767" on="1"/>
        <pt x="207" y="770" on="0"/>
        <pt x="207" y="776" on="0"/>
        <pt x="224" y="809" on="0"/>
        <pt x="271" y="868" on="0"/>
      </contour>
    </TTGlyph>
    <TTGlyph name="B" xMin="30" yMin="-4" xMax="586" yMax="714">
      <contour>
        <pt x="30" y="713" on="1"/>
        <pt x="153" y="710" on="1"/>
        <pt x="318" y="714" on="1"/>
        <pt x="534" y="714" on="0"/>
        <pt x="534" y="555" on="1"/>
        <pt x="534" y="440" on="0"/>
        <pt x="412" y="389" on="1"/>
        <pt x="410" y="389" on="0"/>
        <pt x="410" y="385" on="0"/>
        <pt x="412" y="385" on="1"/>
        <pt x="474" y="378" on="0"/>
        <pt x="586" y="280" on="0"/>
        <pt x="586" y="207" on="1"/>
        <pt x="586" y="106" on="0"/>
        <pt x="449" y="-4" on="0"/>
        <pt x="317" y="-4" on="1"/>
        <pt x="154" y="0" on="1"/>
        <pt x="43" y="-3" on="1"/>
        <pt x="35" y="41" on="1"/>
        <pt x="91" y="47" on="0"/>
        <pt x="116" y="58" on="0"/>
        <pt x="116" y="80" on="1"/>
        <pt x="116" y="630" on="1"/>
        <pt x="116" y="650" on="0"/>
        <pt x="87" y="665" on="0"/>
        <pt x="39" y="669" on="1"/>
      </contour>
      <contour>
        <pt x="224" y="667" on="0"/>
        <pt x="207" y="656" on="0"/>
        <pt x="207" y="650" on="1"/>
        <pt x="207" y="399" on="1"/>
        <pt x="207" y="389" on="0"/>
        <pt x="217" y="388" on="1"/>
        <pt x="275" y="388" on="1"/>
        <pt x="351" y="388" on="0"/>
        <pt x="429" y="466" on="0"/>
        <pt x="429" y="603" on="0"/>
        <pt x="352" y="667" on="0"/>
      </contour>
      <contour>
        <pt x="207" y="108" on="1"/>
        <pt x="207" y="41" on="0"/>
        <pt x="394" y="41" on="0"/>
        <pt x="475" y="128" on="0"/>
        <pt x="475" y="190" on="1"/>
        <pt x="475" y="276" on="0"/>
        <pt x="371" y="342" on="0"/>
        <pt x="286" y="342" on="1"/>
        <pt x="217" y="342" on="1"/>
        <pt x="207" y="342" on="0"/>
        <pt x="207" y="331" on="1"/>
      </contour>
    </TTGlyph>
    <TTGlyph name="C" xMin="52" yMin="-12" xMax="717" yMax="722">
      <contour>
        <pt x="296" y="674" on="0"/>
        <pt x="157" y="501" on="0"/>
        <pt x="157" y="228" on="0"/>
        <pt x="319" y="38" on="0"/>
        <pt x="448" y="38" on="1"/>
        <pt x="625" y="38" on="0"/>
        <pt x="688" y="191" on="1"/>
        <pt x="717" y="185" on="1"/>
        <pt x="717" y="174" on="0"/>
        <pt x="678" y="45" on="0"/>
        <pt x="669" y="45" on="1"/>
        <pt x="568" y="-12" on="0"/>
        <pt x="428" y="-12" on="1"/>
        <pt x="261" y="-12" on="0"/>
        <pt x="52" y="186" on="0"/>
        <pt x="52" y="341" on="1"/>
        <pt x="52" y="517" on="0"/>
        <pt x="269" y="722" on="0"/>
        <pt x="441" y="722" on="1"/>
        <pt x="504" y="722" on="0"/>
        <pt x="677" y="687" on="0"/>
        <pt x="686" y="686" on="1"/>
        <pt x="693" y="671" on="0"/>
        <pt x="693" y="567" on="0"/>
        <pt x="688" y="512" on="1"/>
        <pt x="660" y="515" on="1"/>
        <pt x="652" y="573" on="0"/>
        <pt x="627" y="605" on="1"/>
        <pt x="573" y="674" on="0"/>
      </contour>
    </TTGlyph>
    <TTGlyph name="Ccedilla" xMin="37" yMin="-211" xMax="702" yMax="722">
      <contour>
        <pt x="413" y="-12" on="1"/>
        <pt x="404" y="-11" on="1"/>
        <pt x="383" y="-35" on="1"/>
        <pt x="426" y="-46" on="0"/>
        <pt x="469" y="-96" on="0"/>
        <pt x="469" y="-124" on="1"/>
        <pt x="469" y="-211" on="0"/>
        <pt x="312" y="-211" on="1"/>
        <pt x="308" y="-211" on="0"/>
        <pt x="308" y="-192" on="0"/>
        <pt x="311" y="-192" on="1"/>
        <pt x="411" y="-182" on="0"/>
        <pt x="411" y="-133" on="1"/>
        <pt x="411" y="-111" on="0"/>
        <pt x="375" y="-77" on="0"/>
        <pt x="333" y="-74" on="1"/>
        <pt x="331" y="-74" on="0"/>
        <pt x="326" y="-61" on="1"/>
        <pt x="326" y="-49" on="0"/>
        <pt x="354" y="-8" on="1"/>
        <pt x="210" y="10" on="0"/>
        <pt x="37" y="200" on="0"/>
        <pt x="37" y="341" on="1"/>
        <pt x="37" y="517" on="0"/>
        <pt x="254" y="722" on="0"/>
        <pt x="426" y="722" on="1"/>
        <pt x="489" y="722" on="0"/>
        <pt x="662" y="687" on="0"/>
        <pt x="671" y="686" on="1"/>
        <pt x="678" y="671" on="0"/>
        <pt x="678" y="567" on="0"/>
        <pt x="673" y="512" on="1"/>
        <pt x="645" y="515" on="1"/>
        <pt x="637" y="573" on="0"/>
        <pt x="612" y="605" on="1"/>
        <pt x="558" y="674" on="0"/>
        <pt x="281" y="674" on="0"/>
        <pt x="142" y="501" on="0"/>
        <pt x="142" y="228" on="0"/>
        <pt x="304" y="38" on="0"/>
        <pt x="433" y="38" on="1"/>
        <pt x="610" y="38" on="0"/>
        <pt x="673" y="191" on="1"/>
        <pt x="702" y="185" on="1"/>
        <pt x="702" y="174" on="0"/>
        <pt x="663" y="45" on="0"/>
        <pt x="654" y="45" on="1"/>
        <pt x="553" y="-12" on="0"/>
      </contour>
    </TTGlyph>
    <TTGlyph name="D" xMin="28" yMin="-3" xMax="763" yMax="712">
      <contour>
        <pt x="152" y="0" on="1"/>
        <pt x="41" y="-3" on="1"/>
        <pt x="33" y="41" on="1"/>
        <pt x="89" y="47" on="0"/>
        <pt x="114" y="58" on="0"/>
        <pt x="114" y="80" on="1"/>
        <pt x="114" y="629" on="1"/>
        <pt x="114" y="649" on="0"/>
        <pt x="85" y="664" on="0"/>
        <pt x="37" y="668" on="1"/>
        <pt x="28" y="712" on="1"/>
        <pt x="151" y="709" on="1"/>
        <pt x="358" y="711" on="1"/>
        <pt x="549" y="711" on="0"/>
        <pt x="763" y="529" on="0"/>
        <pt x="763" y="201" on="0"/>
        <pt x="543" y="-3" on="0"/>
        <pt x="341" y="-3" on="1"/>
        <pt x="341" y="-3" on="0"/>
      </contour>
      <contour>
        <pt x="509" y="48" on="0"/>
        <pt x="658" y="205" on="0"/>
        <pt x="658" y="500" on="0"/>
        <pt x="489" y="664" on="0"/>
        <pt x="333" y="664" on="1"/>
        <pt x="256" y="664" on="1"/>
        <pt x="205" y="664" on="0"/>
        <pt x="205" y="644" on="1"/>
        <pt x="205" y="129" on="1"/>
        <pt x="205" y="109" on="0"/>
        <pt x="208" y="91" on="0"/>
        <pt x="223" y="66" on="0"/>
        <pt x="240" y="61" on="1"/>
        <pt x="284" y="48" on="0"/>
        <pt x="369" y="48" on="1"/>
      </contour>
    </TTGlyph>
    <TTGlyph name="E" xMin="30" yMin="-3" xMax="624" yMax="713">
      <contour>
        <pt x="392" y="666" on="1"/>
        <pt x="279" y="665" on="1"/>
        <pt x="209" y="662" on="0"/>
        <pt x="209" y="649" on="1"/>
        <pt x="209" y="399" on="1"/>
        <pt x="209" y="389" on="0"/>
        <pt x="219" y="389" on="1"/>
        <pt x="378" y="389" on="1"/>
        <pt x="402" y="389" on="0"/>
        <pt x="419" y="434" on="0"/>
        <pt x="419" y="495" on="1"/>
        <pt x="452" y="500" on="1"/>
        <pt x="450" y="367" on="1"/>
        <pt x="452" y="244" on="1"/>
        <pt x="419" y="239" on="1"/>
        <pt x="419" y="298" on="0"/>
        <pt x="405" y="332" on="0"/>
        <pt x="378" y="332" on="1"/>
        <pt x="219" y="332" on="1"/>
        <pt x="209" y="332" on="0"/>
        <pt x="209" y="323" on="1"/>
        <pt x="209" y="113" on="1"/>
        <pt x="209" y="69" on="0"/>
        <pt x="245" y="46" on="0"/>
        <pt x="306" y="46" on="1"/>
        <pt x="403" y="46" on="1"/>
        <pt x="479" y="46" on="0"/>
        <pt x="565" y="117" on="0"/>
        <pt x="590" y="191" on="1"/>
        <pt x="624" y="185" on="1"/>
        <pt x="624" y="167" on="0"/>
        <pt x="572" y="0" on="0"/>
        <pt x="561" y="0" on="1"/>
        <pt x="306" y="-2" on="1"/>
        <pt x="280" y="-2" on="0"/>
        <pt x="154" y="0" on="1"/>
        <pt x="43" y="-3" on="1"/>
        <pt x="35" y="41" on="1"/>
        <pt x="91" y="47" on="0"/>
        <pt x="116" y="58" on="0"/>
        <pt x="118" y="80" on="1"/>
        <pt x="118" y="630" on="1"/>
        <pt x="118" y="651" on="0"/>
        <pt x="90" y="665" on="0"/>
        <pt x="39" y="669" on="1"/>
        <pt x="30" y="713" on="1"/>
        <pt x="155" y="710" on="1"/>
        <pt x="316" y="710" on="1"/>
        <pt x="563" y="709" on="1"/>
        <pt x="570" y="694" on="0"/>
        <pt x="570" y="590" on="0"/>
        <pt x="565" y="535" on="1"/>
        <pt x="533" y="538" on="1"/>
        <pt x="521" y="609" on="0"/>
        <pt x="457" y="666" on="0"/>
      </contour>
    </TTGlyph>
    <TTGlyph name="Eacute" xMin="37" yMin="-3" xMax="631" yMax="900">
      <contour>
        <pt x="299" y="791" on="1"/>
        <pt x="453" y="900" on="1"/>
        <pt x="462" y="900" on="0"/>
        <pt x="506" y="857" on="0"/>
        <pt x="510" y="847" on="1"/>
        <pt x="322" y="771" on="1"/>
        <pt x="311" y="774" on="0"/>
        <pt x="299" y="787" on="0"/>
      </contour>
      <contour>
        <pt x="399" y="666" on="1"/>
        <pt x="286" y="665" on="1"/>
        <pt x="216" y="662" on="0"/>
        <pt x="216" y="649" on="1"/>
        <pt x="216" y="399" on="1"/>
        <pt x="216" y="389" on="0"/>
        <pt x="226" y="389" on="1"/>
        <pt x="385" y="389" on="1"/>
        <pt x="409" y="389" on="0"/>
        <pt x="426" y="434" on="0"/>
        <pt x="426" y="495" on="1"/>
        <pt x="459" y="500" on="1"/>
        <pt x="457" y="367" on="1"/>
        <pt x="457" y="367" on="0"/>
        <pt x="459" y="244" on="1"/>
        <pt x="426" y="239" on="1"/>
        <pt x="426" y="298" on="0"/>
        <pt x="412" y="332" on="0"/>
        <pt x="385" y="332" on="1"/>
        <pt x="226" y="332" on="1"/>
        <pt x="216" y="332" on="0"/>
        <pt x="216" y="323" on="1"/>
        <pt x="216" y="113" on="1"/>
        <pt x="216" y="69" on="0"/>
        <pt x="252" y="46" on="0"/>
        <pt x="313" y="46" on="1"/>
        <pt x="410" y="46" on="1"/>
        <pt x="486" y="46" on="0"/>
        <pt x="572" y="117" on="0"/>
        <pt x="597" y="191" on="1"/>
        <pt x="631" y="185" on="1"/>
        <pt x="631" y="167" on="0"/>
        <pt x="579" y="0" on="0"/>
        <pt x="568" y="0" on="1"/>
        <pt x="313" y="-2" on="1"/>
        <pt x="287" y="-2" on="0"/>
        <pt x="161" y="0" on="1"/>
        <pt x="50" y="-3" on="1"/>
        <pt x="42" y="41" on="1"/>
        <pt x="98" y="47" on="0"/>
        <pt x="123" y="58" on="0"/>
        <pt x="125" y="80" on="1"/>
        <pt x="125" y="630" on="1"/>
        <pt x="125" y="651" on="0"/>
        <pt x="97" y="665" on="0"/>
        <pt x="46" y="669" on="1"/>
        <pt x="37" y="713" on="1"/>
        <pt x="162" y="710" on="1"/>
        <pt x="323" y="710" on="1"/>
        <pt x="570" y="709" on="1"/>
        <pt x="577" y="694" on="0"/>
        <pt x="577" y="590" on="0"/>
        <pt x="572" y="535" on="1"/>
        <pt x="540" y="538" on="1"/>
        <pt x="528" y="609" on="0"/>
        <pt x="464" y="666" on="0"/>
      </contour>
    </TTGlyph>
    <TTGlyph name="Ecircumflex" xMin="37" yMin="-3" xMax="631" yMax="933">
      <contour>
        <pt x="377" y="933" on="1"/>
        <pt x="379" y="933" on="0"/>
        <pt x="383" y="926" on="1"/>
        <pt x="487" y="792" on="1"/>
        <pt x="487" y="788" on="0"/>
        <pt x="475" y="775" on="0"/>
        <pt x="464" y="772" on="1"/>
        <pt x="344" y="860" on="1"/>
        <pt x="225" y="772" on="1"/>
        <pt x="214" y="775" on="0"/>
        <pt x="202" y="788" on="0"/>
        <pt x="202" y="792" on="1"/>
        <pt x="308" y="931" on="1"/>
        <pt x="356" y="933" on="0"/>
      </contour>
      <contour>
        <pt x="399" y="666" on="1"/>
        <pt x="286" y="665" on="1"/>
        <pt x="216" y="662" on="0"/>
        <pt x="216" y="649" on="1"/>
        <pt x="216" y="399" on="1"/>
        <pt x="216" y="389" on="0"/>
        <pt x="226" y="389" on="1"/>
        <pt x="385" y="389" on="1"/>
        <pt x="409" y="389" on="0"/>
        <pt x="426" y="434" on="0"/>
        <pt x="426" y="495" on="1"/>
        <pt x="459" y="500" on="1"/>
        <pt x="457" y="367" on="1"/>
        <pt x="459" y="244" on="1"/>
        <pt x="426" y="239" on="1"/>
        <pt x="426" y="298" on="0"/>
        <pt x="412" y="332" on="0"/>
        <pt x="385" y="332" on="1"/>
        <pt x="226" y="332" on="1"/>
        <pt x="216" y="332" on="0"/>
        <pt x="216" y="323" on="1"/>
        <pt x="216" y="113" on="1"/>
        <pt x="216" y="69" on="0"/>
        <pt x="252" y="46" on="0"/>
        <pt x="313" y="46" on="1"/>
        <pt x="410" y="46" on="1"/>
        <pt x="486" y="46" on="0"/>
        <pt x="572" y="117" on="0"/>
        <pt x="597" y="191" on="1"/>
        <pt x="631" y="185" on="1"/>
        <pt x="631" y="167" on="0"/>
        <pt x="579" y="0" on="0"/>
        <pt x="568" y="0" on="1"/>
        <pt x="313" y="-2" on="1"/>
        <pt x="287" y="-2" on="0"/>
        <pt x="161" y="0" on="1"/>
        <pt x="50" y="-3" on="1"/>
        <pt x="42" y="41" on="1"/>
        <pt x="98" y="47" on="0"/>
        <pt x="123" y="58" on="0"/>
        <pt x="125" y="80" on="1"/>
        <pt x="125" y="630" on="1"/>
        <pt x="125" y="651" on="0"/>
        <pt x="97" y="665" on="0"/>
        <pt x="46" y="669" on="1"/>
        <pt x="37" y="713" on="1"/>
        <pt x="162" y="710" on="1"/>
        <pt x="323" y="710" on="1"/>
        <pt x="570" y="709" on="1"/>
        <pt x="577" y="694" on="0"/>
        <pt x="577" y="590" on="0"/>
        <pt x="572" y="535" on="1"/>
        <pt x="540" y="538" on="1"/>
        <pt x="528" y="609" on="0"/>
        <pt x="464" y="666" on="0"/>
      </contour>
    </TTGlyph>
    <TTGlyph name="Edieresis" xMin="37" yMin="-3" xMax="631" yMax="890">
      <contour>
        <pt x="399" y="666" on="1"/>
        <pt x="286" y="665" on="1"/>
        <pt x="216" y="662" on="0"/>
        <pt x="216" y="649" on="1"/>
        <pt x="216" y="399" on="1"/>
        <pt x="216" y="389" on="0"/>
        <pt x="226" y="389" on="1"/>
        <pt x="385" y="389" on="1"/>
        <pt x="409" y="389" on="0"/>
        <pt x="426" y="434" on="0"/>
        <pt x="426" y="495" on="1"/>
        <pt x="459" y="500" on="1"/>
        <pt x="457" y="367" on="1"/>
        <pt x="459" y="244" on="1"/>
        <pt x="426" y="239" on="1"/>
        <pt x="426" y="298" on="0"/>
        <pt x="412" y="332" on="0"/>
        <pt x="385" y="332" on="1"/>
        <pt x="226" y="332" on="1"/>
        <pt x="216" y="332" on="0"/>
        <pt x="216" y="323" on="1"/>
        <pt x="216" y="113" on="1"/>
        <pt x="216" y="69" on="0"/>
        <pt x="252" y="46" on="0"/>
        <pt x="313" y="46" on="1"/>
        <pt x="410" y="46" on="1"/>
        <pt x="486" y="46" on="0"/>
        <pt x="572" y="117" on="0"/>
        <pt x="597" y="191" on="1"/>
        <pt x="631" y="185" on="1"/>
        <pt x="631" y="167" on="0"/>
        <pt x="579" y="0" on="0"/>
        <pt x="568" y="0" on="1"/>
        <pt x="313" y="-2" on="1"/>
        <pt x="287" y="-2" on="0"/>
        <pt x="161" y="0" on="1"/>
        <pt x="50" y="-3" on="1"/>
        <pt x="42" y="41" on="1"/>
        <pt x="98" y="47" on="0"/>
        <pt x="123" y="58" on="0"/>
        <pt x="125" y="80" on="1"/>
        <pt x="125" y="630" on="1"/>
        <pt x="125" y="651" on="0"/>
        <pt x="97" y="665" on="0"/>
        <pt x="46" y="669" on="1"/>
        <pt x="37" y="713" on="1"/>
        <pt x="162" y="710" on="1"/>
        <pt x="323" y="710" on="1"/>
        <pt x="570" y="709" on="1"/>
        <pt x="577" y="694" on="0"/>
        <pt x="577" y="590" on="0"/>
        <pt x="572" y="535" on="1"/>
        <pt x="540" y="538" on="1"/>
        <pt x="528" y="609" on="0"/>
        <pt x="464" y="666" on="0"/>
      </contour>
      <contour>
        <pt x="222" y="772" on="0"/>
        <pt x="189" y="804" on="0"/>
        <pt x="189" y="854" on="0"/>
        <pt x="224" y="890" on="0"/>
        <pt x="275" y="890" on="0"/>
        <pt x="308" y="859" on="0"/>
        <pt x="308" y="808" on="0"/>
        <pt x="274" y="772" on="0"/>
      </contour>
      <contour>
        <pt x="399" y="772" on="0"/>
        <pt x="366" y="804" on="0"/>
        <pt x="366" y="854" on="0"/>
        <pt x="400" y="890" on="0"/>
        <pt x="451" y="890" on="0"/>
        <pt x="484" y="859" on="0"/>
        <pt x="484" y="808" on="0"/>
        <pt x="449" y="772" on="0"/>
      </contour>
    </TTGlyph>
    <TTGlyph name="Egrave" xMin="37" yMin="-3" xMax="631" yMax="898">
      <contour>
        <pt x="234" y="898" on="1"/>
        <pt x="388" y="789" on="1"/>
        <pt x="388" y="785" on="0"/>
        <pt x="376" y="772" on="0"/>
        <pt x="365" y="769" on="1"/>
        <pt x="177" y="845" on="1"/>
        <pt x="179" y="855" on="0"/>
        <pt x="226" y="898" on="0"/>
      </contour>
      <contour>
        <pt x="399" y="666" on="1"/>
        <pt x="286" y="665" on="1"/>
        <pt x="216" y="662" on="0"/>
        <pt x="216" y="649" on="1"/>
        <pt x="216" y="399" on="1"/>
        <pt x="216" y="389" on="0"/>
        <pt x="226" y="389" on="1"/>
        <pt x="385" y="389" on="1"/>
        <pt x="409" y="389" on="0"/>
        <pt x="426" y="434" on="0"/>
        <pt x="426" y="495" on="1"/>
        <pt x="459" y="500" on="1"/>
        <pt x="457" y="367" on="1"/>
        <pt x="457" y="367" on="0"/>
        <pt x="459" y="244" on="1"/>
        <pt x="426" y="239" on="1"/>
        <pt x="426" y="298" on="0"/>
        <pt x="412" y="332" on="0"/>
        <pt x="385" y="332" on="1"/>
        <pt x="226" y="332" on="1"/>
        <pt x="216" y="332" on="0"/>
        <pt x="216" y="323" on="1"/>
        <pt x="216" y="113" on="1"/>
        <pt x="216" y="69" on="0"/>
        <pt x="252" y="46" on="0"/>
        <pt x="313" y="46" on="1"/>
        <pt x="410" y="46" on="1"/>
        <pt x="486" y="46" on="0"/>
        <pt x="572" y="117" on="0"/>
        <pt x="597" y="191" on="1"/>
        <pt x="631" y="185" on="1"/>
        <pt x="631" y="167" on="0"/>
        <pt x="579" y="0" on="0"/>
        <pt x="568" y="0" on="1"/>
        <pt x="313" y="-2" on="1"/>
        <pt x="287" y="-2" on="0"/>
        <pt x="161" y="0" on="1"/>
        <pt x="50" y="-3" on="1"/>
        <pt x="42" y="41" on="1"/>
        <pt x="98" y="47" on="0"/>
        <pt x="123" y="58" on="0"/>
        <pt x="125" y="80" on="1"/>
        <pt x="125" y="630" on="1"/>
        <pt x="125" y="651" on="0"/>
        <pt x="97" y="665" on="0"/>
        <pt x="46" y="669" on="1"/>
        <pt x="37" y="713" on="1"/>
        <pt x="162" y="710" on="1"/>
        <pt x="323" y="710" on="1"/>
        <pt x="570" y="709" on="1"/>
        <pt x="577" y="694" on="0"/>
        <pt x="577" y="590" on="0"/>
        <pt x="572" y="535" on="1"/>
        <pt x="540" y="538" on="1"/>
        <pt x="528" y="609" on="0"/>
        <pt x="464" y="666" on="0"/>
      </contour>
    </TTGlyph>
    <TTGlyph name="Eth" xMin="28" yMin="-3" xMax="766" yMax="712">
      <contour>
        <pt x="155" y="0" on="1"/>
        <pt x="44" y="-3" on="1"/>
        <pt x="36" y="41" on="1"/>
        <pt x="92" y="47" on="0"/>
        <pt x="117" y="58" on="0"/>
        <pt x="117" y="80" on="1"/>
        <pt x="117" y="345" on="1"/>
        <pt x="47" y="345" on="1"/>
        <pt x="39" y="346" on="0"/>
        <pt x="28" y="377" on="0"/>
        <pt x="28" y="391" on="1"/>
        <pt x="117" y="391" on="1"/>
        <pt x="117" y="629" on="1"/>
        <pt x="117" y="649" on="0"/>
        <pt x="88" y="664" on="0"/>
        <pt x="40" y="668" on="1"/>
        <pt x="31" y="712" on="1"/>
        <pt x="154" y="709" on="1"/>
        <pt x="361" y="711" on="1"/>
        <pt x="552" y="711" on="0"/>
        <pt x="766" y="529" on="0"/>
        <pt x="766" y="201" on="0"/>
        <pt x="546" y="-3" on="0"/>
        <pt x="344" y="-3" on="1"/>
        <pt x="344" y="-3" on="0"/>
      </contour>
      <contour>
        <pt x="208" y="345" on="1"/>
        <pt x="208" y="129" on="1"/>
        <pt x="208" y="109" on="0"/>
        <pt x="211" y="91" on="0"/>
        <pt x="226" y="66" on="0"/>
        <pt x="243" y="61" on="1"/>
        <pt x="287" y="48" on="0"/>
        <pt x="372" y="48" on="1"/>
        <pt x="513" y="48" on="0"/>
        <pt x="661" y="204" on="0"/>
        <pt x="661" y="501" on="0"/>
        <pt x="493" y="664" on="0"/>
        <pt x="336" y="664" on="1"/>
        <pt x="259" y="664" on="1"/>
        <pt x="208" y="664" on="0"/>
        <pt x="208" y="644" on="1"/>
        <pt x="208" y="391" on="1"/>
        <pt x="402" y="392" on="1"/>
        <pt x="406" y="388" on="0"/>
        <pt x="416" y="356" on="0"/>
        <pt x="413" y="345" on="1"/>
      </contour>
    </TTGlyph>
    <TTGlyph name="Euro" xMin="-10" yMin="-12" xMax="546" yMax="693">
      <contour>
        <pt x="364" y="317" on="1"/>
        <pt x="364" y="318" on="1"/>
        <pt x="368" y="314" on="0"/>
        <pt x="378" y="282" on="0"/>
        <pt x="375" y="271" on="1"/>
        <pt x="169" y="271" on="1"/>
        <pt x="184" y="163" on="0"/>
        <pt x="289" y="36" on="0"/>
        <pt x="373" y="36" on="1"/>
        <pt x="420" y="36" on="0"/>
        <pt x="495" y="95" on="0"/>
        <pt x="513" y="144" on="1"/>
        <pt x="546" y="139" on="1"/>
        <pt x="546" y="133" on="0"/>
        <pt x="518" y="46" on="0"/>
        <pt x="510" y="33" on="1"/>
        <pt x="463" y="-12" on="0"/>
        <pt x="362" y="-12" on="1"/>
        <pt x="240" y="-12" on="0"/>
        <pt x="79" y="144" on="0"/>
        <pt x="65" y="271" on="1"/>
        <pt x="9" y="271" on="1"/>
        <pt x="1" y="272" on="0"/>
        <pt x="-10" y="303" on="0"/>
        <pt x="-10" y="317" on="1"/>
        <pt x="62" y="317" on="1"/>
        <pt x="62" y="327" on="1"/>
        <pt x="62" y="358" on="0"/>
        <pt x="63" y="373" on="1"/>
        <pt x="9" y="373" on="1"/>
        <pt x="1" y="374" on="0"/>
        <pt x="-10" y="405" on="0"/>
        <pt x="-10" y="419" on="1"/>
        <pt x="69" y="419" on="1"/>
        <pt x="90" y="547" on="0"/>
        <pt x="245" y="693" on="0"/>
        <pt x="351" y="693" on="1"/>
        <pt x="404" y="693" on="0"/>
        <pt x="505" y="669" on="0"/>
        <pt x="528" y="658" on="1"/>
        <pt x="534" y="645" on="0"/>
        <pt x="534" y="560" on="0"/>
        <pt x="530" y="527" on="1"/>
        <pt x="500" y="530" on="1"/>
        <pt x="460" y="647" on="0"/>
        <pt x="345" y="647" on="1"/>
        <pt x="266" y="647" on="0"/>
        <pt x="177" y="520" on="0"/>
        <pt x="166" y="419" on="1"/>
        <pt x="364" y="419" on="1"/>
        <pt x="364" y="420" on="1"/>
        <pt x="368" y="416" on="0"/>
        <pt x="378" y="384" on="0"/>
        <pt x="375" y="373" on="1"/>
        <pt x="163" y="373" on="1"/>
        <pt x="163" y="358" on="1"/>
        <pt x="163" y="330" on="0"/>
        <pt x="164" y="317" on="1"/>
      </contour>
    </TTGlyph>
    <TTGlyph name="F" xMin="30" yMin="-3" xMax="560" yMax="713">
      <contour>
        <pt x="382" y="666" on="1"/>
        <pt x="279" y="665" on="1"/>
        <pt x="209" y="662" on="0"/>
        <pt x="209" y="649" on="1"/>
        <pt x="209" y="399" on="1"/>
        <pt x="209" y="389" on="0"/>
        <pt x="219" y="389" on="1"/>
        <pt x="368" y="389" on="1"/>
        <pt x="392" y="389" on="0"/>
        <pt x="409" y="434" on="0"/>
        <pt x="409" y="495" on="1"/>
        <pt x="442" y="500" on="1"/>
        <pt x="440" y="367" on="1"/>
        <pt x="442" y="244" on="1"/>
        <pt x="409" y="239" on="1"/>
        <pt x="409" y="298" on="0"/>
        <pt x="395" y="332" on="0"/>
        <pt x="368" y="332" on="1"/>
        <pt x="219" y="332" on="1"/>
        <pt x="209" y="332" on="0"/>
        <pt x="209" y="323" on="1"/>
        <pt x="209" y="89" on="1"/>
        <pt x="209" y="59" on="0"/>
        <pt x="250" y="41" on="0"/>
        <pt x="316" y="41" on="1"/>
        <pt x="326" y="-2" on="1"/>
        <pt x="188" y="0" on="1"/>
        <pt x="175" y="0" on="0"/>
        <pt x="43" y="-3" on="1"/>
        <pt x="35" y="41" on="1"/>
        <pt x="91" y="47" on="0"/>
        <pt x="116" y="58" on="0"/>
        <pt x="118" y="80" on="1"/>
        <pt x="118" y="630" on="1"/>
        <pt x="118" y="651" on="0"/>
        <pt x="90" y="665" on="0"/>
        <pt x="39" y="669" on="1"/>
        <pt x="30" y="713" on="1"/>
        <pt x="155" y="710" on="1"/>
        <pt x="306" y="710" on="1"/>
        <pt x="553" y="709" on="1"/>
        <pt x="560" y="694" on="0"/>
        <pt x="560" y="590" on="0"/>
        <pt x="555" y="535" on="1"/>
        <pt x="523" y="538" on="1"/>
        <pt x="511" y="609" on="0"/>
        <pt x="447" y="666" on="0"/>
      </contour>
    </TTGlyph>
    <TTGlyph name="G" xMin="50" yMin="-12" xMax="773" yMax="722">
      <contour>
        <pt x="427" y="675" on="1"/>
        <pt x="299" y="675" on="0"/>
        <pt x="155" y="500" on="0"/>
        <pt x="155" y="373" on="1"/>
        <pt x="155" y="224" on="0"/>
        <pt x="305" y="38" on="0"/>
        <pt x="441" y="38" on="1"/>
        <pt x="534" y="38" on="0"/>
        <pt x="580" y="74" on="1"/>
        <pt x="608" y="96" on="0"/>
        <pt x="608" y="131" on="1"/>
        <pt x="608" y="209" on="1"/>
        <pt x="608" y="252" on="0"/>
        <pt x="564" y="277" on="0"/>
        <pt x="481" y="277" on="1"/>
        <pt x="472" y="321" on="1"/>
        <pt x="529" y="317" on="0"/>
        <pt x="706" y="317" on="0"/>
        <pt x="765" y="321" on="1"/>
        <pt x="773" y="277" on="1"/>
        <pt x="724" y="277" on="0"/>
        <pt x="698" y="252" on="0"/>
        <pt x="698" y="209" on="1"/>
        <pt x="698" y="130" on="1"/>
        <pt x="698" y="53" on="0"/>
        <pt x="692" y="53" on="1"/>
        <pt x="577" y="-12" on="0"/>
        <pt x="427" y="-12" on="1"/>
        <pt x="251" y="-12" on="0"/>
        <pt x="50" y="183" on="0"/>
        <pt x="50" y="516" on="0"/>
        <pt x="272" y="722" on="0"/>
        <pt x="441" y="722" on="1"/>
        <pt x="501" y="722" on="0"/>
        <pt x="669" y="687" on="0"/>
        <pt x="681" y="686" on="1"/>
        <pt x="688" y="671" on="0"/>
        <pt x="688" y="567" on="0"/>
        <pt x="683" y="512" on="1"/>
        <pt x="655" y="515" on="1"/>
        <pt x="647" y="573" on="0"/>
        <pt x="597" y="637" on="0"/>
        <pt x="496" y="675" on="0"/>
      </contour>
    </TTGlyph>
    <TTGlyph name="H" xMin="30" yMin="-3" xMax="757" yMax="713">
      <contour>
        <pt x="154" y="710" on="1"/>
        <pt x="274" y="713" on="1"/>
        <pt x="282" y="669" on="1"/>
        <pt x="226" y="663" on="0"/>
        <pt x="202" y="652" on="0"/>
        <pt x="202" y="630" on="1"/>
        <pt x="202" y="388" on="1"/>
        <pt x="582" y="388" on="1"/>
        <pt x="582" y="630" on="1"/>
        <pt x="582" y="649" on="0"/>
        <pt x="555" y="665" on="0"/>
        <pt x="515" y="669" on="1"/>
        <pt x="506" y="713" on="1"/>
        <pt x="626" y="710" on="1"/>
        <pt x="749" y="713" on="1"/>
        <pt x="757" y="669" on="1"/>
        <pt x="700" y="663" on="0"/>
        <pt x="673" y="652" on="0"/>
        <pt x="673" y="630" on="1"/>
        <pt x="673" y="80" on="1"/>
        <pt x="673" y="60" on="0"/>
        <pt x="700" y="45" on="0"/>
        <pt x="741" y="41" on="1"/>
        <pt x="750" y="-3" on="1"/>
        <pt x="632" y="0" on="1"/>
        <pt x="507" y="-3" on="1"/>
        <pt x="499" y="41" on="1"/>
        <pt x="565" y="49" on="0"/>
        <pt x="582" y="62" on="0"/>
        <pt x="582" y="77" on="1"/>
        <pt x="582" y="333" on="1"/>
        <pt x="202" y="333" on="1"/>
        <pt x="202" y="80" on="1"/>
        <pt x="202" y="60" on="0"/>
        <pt x="228" y="45" on="0"/>
        <pt x="269" y="41" on="1"/>
        <pt x="278" y="-3" on="1"/>
        <pt x="161" y="0" on="1"/>
        <pt x="38" y="-3" on="1"/>
        <pt x="30" y="41" on="1"/>
        <pt x="86" y="47" on="0"/>
        <pt x="111" y="58" on="0"/>
        <pt x="111" y="80" on="1"/>
        <pt x="111" y="630" on="1"/>
        <pt x="111" y="649" on="0"/>
        <pt x="86" y="665" on="0"/>
        <pt x="46" y="669" on="1"/>
        <pt x="37" y="713" on="1"/>
      </contour>
    </TTGlyph>
    <TTGlyph name="I" xMin="40" yMin="-3" xMax="313" yMax="713">
      <contour>
        <pt x="46" y="713" on="1"/>
        <pt x="172" y="710" on="1"/>
        <pt x="173" y="710" on="0"/>
        <pt x="305" y="713" on="1"/>
        <pt x="313" y="669" on="1"/>
        <pt x="250" y="663" on="0"/>
        <pt x="222" y="652" on="0"/>
        <pt x="222" y="630" on="1"/>
        <pt x="222" y="80" on="1"/>
        <pt x="222" y="59" on="0"/>
        <pt x="250" y="45" on="0"/>
        <pt x="298" y="41" on="1"/>
        <pt x="307" y="-3" on="1"/>
        <pt x="181" y="0" on="1"/>
        <pt x="180" y="0" on="0"/>
        <pt x="48" y="-3" on="1"/>
        <pt x="40" y="41" on="1"/>
        <pt x="103" y="47" on="0"/>
        <pt x="131" y="58" on="0"/>
        <pt x="131" y="80" on="1"/>
        <pt x="131" y="630" on="1"/>
        <pt x="131" y="651" on="0"/>
        <pt x="103" y="665" on="0"/>
        <pt x="55" y="669" on="1"/>
      </contour>
    </TTGlyph>
    <TTGlyph name="Iacute" xMin="34" yMin="-3" xMax="340" yMax="900">
      <contour>
        <pt x="129" y="791" on="1"/>
        <pt x="283" y="900" on="1"/>
        <pt x="292" y="900" on="0"/>
        <pt x="336" y="857" on="0"/>
        <pt x="340" y="847" on="1"/>
        <pt x="152" y="771" on="1"/>
        <pt x="141" y="774" on="0"/>
        <pt x="129" y="787" on="0"/>
      </contour>
      <contour>
        <pt x="40" y="713" on="1"/>
        <pt x="166" y="710" on="1"/>
        <pt x="167" y="710" on="0"/>
        <pt x="299" y="713" on="1"/>
        <pt x="307" y="669" on="1"/>
        <pt x="244" y="663" on="0"/>
        <pt x="216" y="652" on="0"/>
        <pt x="216" y="630" on="1"/>
        <pt x="216" y="80" on="1"/>
        <pt x="216" y="59" on="0"/>
        <pt x="244" y="45" on="0"/>
        <pt x="292" y="41" on="1"/>
        <pt x="301" y="-3" on="1"/>
        <pt x="175" y="0" on="1"/>
        <pt x="174" y="0" on="0"/>
        <pt x="42" y="-3" on="1"/>
        <pt x="34" y="41" on="1"/>
        <pt x="97" y="47" on="0"/>
        <pt x="125" y="58" on="0"/>
        <pt x="125" y="80" on="1"/>
        <pt x="125" y="630" on="1"/>
        <pt x="125" y="651" on="0"/>
        <pt x="97" y="665" on="0"/>
        <pt x="49" y="669" on="1"/>
      </contour>
    </TTGlyph>
    <TTGlyph name="Icircumflex" xMin="31" yMin="-3" xMax="316" yMax="933">
      <contour>
        <pt x="206" y="933" on="1"/>
        <pt x="208" y="933" on="0"/>
        <pt x="212" y="926" on="1"/>
        <pt x="316" y="792" on="1"/>
        <pt x="316" y="788" on="0"/>
        <pt x="304" y="775" on="0"/>
        <pt x="293" y="772" on="1"/>
        <pt x="173" y="860" on="1"/>
        <pt x="54" y="772" on="1"/>
        <pt x="43" y="775" on="0"/>
        <pt x="31" y="788" on="0"/>
        <pt x="31" y="792" on="1"/>
        <pt x="137" y="931" on="1"/>
        <pt x="185" y="933" on="0"/>
      </contour>
      <contour>
        <pt x="40" y="713" on="1"/>
        <pt x="166" y="710" on="1"/>
        <pt x="167" y="710" on="0"/>
        <pt x="299" y="713" on="1"/>
        <pt x="307" y="669" on="1"/>
        <pt x="244" y="663" on="0"/>
        <pt x="216" y="652" on="0"/>
        <pt x="216" y="630" on="1"/>
        <pt x="216" y="80" on="1"/>
        <pt x="216" y="59" on="0"/>
        <pt x="244" y="45" on="0"/>
        <pt x="292" y="41" on="1"/>
        <pt x="301" y="-3" on="1"/>
        <pt x="175" y="0" on="1"/>
        <pt x="174" y="0" on="0"/>
        <pt x="42" y="-3" on="1"/>
        <pt x="34" y="41" on="1"/>
        <pt x="97" y="47" on="0"/>
        <pt x="125" y="58" on="0"/>
        <pt x="125" y="80" on="1"/>
        <pt x="125" y="630" on="1"/>
        <pt x="125" y="651" on="0"/>
        <pt x="97" y="665" on="0"/>
        <pt x="49" y="669" on="1"/>
      </contour>
    </TTGlyph>
    <TTGlyph name="Idieresis" xMin="24" yMin="-3" xMax="319" yMax="890">
      <contour>
        <pt x="40" y="713" on="1"/>
        <pt x="166" y="710" on="1"/>
        <pt x="167" y="710" on="0"/>
        <pt x="299" y="713" on="1"/>
        <pt x="307" y="669" on="1"/>
        <pt x="244" y="663" on="0"/>
        <pt x="216" y="652" on="0"/>
        <pt x="216" y="630" on="1"/>
        <pt x="216" y="80" on="1"/>
        <pt x="216" y="59" on="0"/>
        <pt x="244" y="45" on="0"/>
        <pt x="292" y="41" on="1"/>
        <pt x="301" y="-3" on="1"/>
        <pt x="175" y="0" on="1"/>
        <pt x="174" y="0" on="0"/>
        <pt x="42" y="-3" on="1"/>
        <pt x="34" y="41" on="1"/>
        <pt x="97" y="47" on="0"/>
        <pt x="125" y="58" on="0"/>
        <pt x="125" y="80" on="1"/>
        <pt x="125" y="630" on="1"/>
        <pt x="125" y="651" on="0"/>
        <pt x="97" y="665" on="0"/>
        <pt x="49" y="669" on="1"/>
      </contour>
      <contour>
        <pt x="57" y="772" on="0"/>
        <pt x="24" y="804" on="0"/>
        <pt x="24" y="854" on="0"/>
        <pt x="59" y="890" on="0"/>
        <pt x="110" y="890" on="0"/>
        <pt x="143" y="859" on="0"/>
        <pt x="143" y="808" on="0"/>
        <pt x="109" y="772" on="0"/>
      </contour>
      <contour>
        <pt x="234" y="772" on="0"/>
        <pt x="201" y="804" on="0"/>
        <pt x="201" y="854" on="0"/>
        <pt x="235" y="890" on="0"/>
        <pt x="286" y="890" on="0"/>
        <pt x="319" y="859" on="0"/>
        <pt x="319" y="808" on="0"/>
        <pt x="284" y="772" on="0"/>
      </contour>
    </TTGlyph>
    <TTGlyph name="Igrave" xMin="22" yMin="-3" xMax="307" yMax="898">
      <contour>
        <pt x="79" y="898" on="1"/>
        <pt x="233" y="789" on="1"/>
        <pt x="233" y="785" on="0"/>
        <pt x="221" y="772" on="0"/>
        <pt x="210" y="769" on="1"/>
        <pt x="22" y="845" on="1"/>
        <pt x="24" y="855" on="0"/>
        <pt x="71" y="898" on="0"/>
      </contour>
      <contour>
        <pt x="40" y="713" on="1"/>
        <pt x="166" y="710" on="1"/>
        <pt x="167" y="710" on="0"/>
        <pt x="299" y="713" on="1"/>
        <pt x="307" y="669" on="1"/>
        <pt x="244" y="663" on="0"/>
        <pt x="216" y="652" on="0"/>
        <pt x="216" y="630" on="1"/>
        <pt x="216" y="80" on="1"/>
        <pt x="216" y="59" on="0"/>
        <pt x="244" y="45" on="0"/>
        <pt x="292" y="41" on="1"/>
        <pt x="301" y="-3" on="1"/>
        <pt x="175" y="0" on="1"/>
        <pt x="174" y="0" on="0"/>
        <pt x="42" y="-3" on="1"/>
        <pt x="34" y="41" on="1"/>
        <pt x="97" y="47" on="0"/>
        <pt x="125" y="58" on="0"/>
        <pt x="125" y="80" on="1"/>
        <pt x="125" y="630" on="1"/>
        <pt x="125" y="651" on="0"/>
        <pt x="97" y="665" on="0"/>
        <pt x="49" y="669" on="1"/>
      </contour>
    </TTGlyph>
    <TTGlyph name="J" xMin="0" yMin="-256" xMax="317" yMax="713">
      <contour>
        <pt x="50" y="713" on="1"/>
        <pt x="176" y="710" on="1"/>
        <pt x="177" y="710" on="0"/>
        <pt x="309" y="713" on="1"/>
        <pt x="317" y="669" on="1"/>
        <pt x="254" y="663" on="0"/>
        <pt x="226" y="652" on="0"/>
        <pt x="226" y="630" on="1"/>
        <pt x="226" y="56" on="1"/>
        <pt x="226" y="-50" on="0"/>
        <pt x="119" y="-213" on="0"/>
        <pt x="25" y="-256" on="1"/>
        <pt x="17" y="-256" on="0"/>
        <pt x="11" y="-249" on="1"/>
        <pt x="0" y="-235" on="0"/>
        <pt x="0" y="-229" on="0"/>
        <pt x="4" y="-226" on="1"/>
        <pt x="84" y="-169" on="0"/>
        <pt x="135" y="-56" on="0"/>
        <pt x="135" y="71" on="1"/>
        <pt x="135" y="630" on="1"/>
        <pt x="135" y="651" on="0"/>
        <pt x="107" y="665" on="0"/>
        <pt x="59" y="669" on="1"/>
      </contour>
    </TTGlyph>
    <TTGlyph name="K" xMin="30" yMin="-3" xMax="702" yMax="714">
      <contour>
        <pt x="628" y="-1" on="1"/>
        <pt x="528" y="-3" on="1"/>
        <pt x="272" y="284" on="1"/>
        <pt x="232" y="331" on="0"/>
        <pt x="202" y="337" on="1"/>
        <pt x="202" y="80" on="1"/>
        <pt x="202" y="60" on="0"/>
        <pt x="228" y="45" on="0"/>
        <pt x="269" y="41" on="1"/>
        <pt x="278" y="-3" on="1"/>
        <pt x="161" y="0" on="1"/>
        <pt x="38" y="-3" on="1"/>
        <pt x="30" y="41" on="1"/>
        <pt x="86" y="47" on="0"/>
        <pt x="111" y="58" on="0"/>
        <pt x="111" y="80" on="1"/>
        <pt x="111" y="630" on="1"/>
        <pt x="111" y="649" on="0"/>
        <pt x="86" y="665" on="0"/>
        <pt x="46" y="669" on="1"/>
        <pt x="37" y="713" on="1"/>
        <pt x="154" y="710" on="1"/>
        <pt x="274" y="713" on="1"/>
        <pt x="282" y="669" on="1"/>
        <pt x="226" y="663" on="0"/>
        <pt x="202" y="652" on="0"/>
        <pt x="202" y="630" on="1"/>
        <pt x="202" y="356" on="1"/>
        <pt x="255" y="399" on="0"/>
        <pt x="454" y="610" on="0"/>
        <pt x="466" y="622" on="1"/>
        <pt x="480" y="639" on="0"/>
        <pt x="480" y="645" on="1"/>
        <pt x="480" y="667" on="0"/>
        <pt x="422" y="671" on="1"/>
        <pt x="410" y="714" on="1"/>
        <pt x="547" y="710" on="1"/>
        <pt x="651" y="714" on="1"/>
        <pt x="661" y="671" on="1"/>
        <pt x="655" y="671" on="1"/>
        <pt x="622" y="671" on="0"/>
        <pt x="552" y="646" on="0"/>
        <pt x="531" y="623" on="1"/>
        <pt x="311" y="389" on="1"/>
        <pt x="606" y="70" on="1"/>
        <pt x="644" y="35" on="0"/>
        <pt x="689" y="31" on="1"/>
        <pt x="702" y="-3" on="1"/>
        <pt x="648" y="-1" on="0"/>
      </contour>
    </TTGlyph>
    <TTGlyph name="L" xMin="30" yMin="-3" xMax="594" yMax="712">
      <contour>
        <pt x="158" y="709" on="1"/>
        <pt x="282" y="712" on="1"/>
        <pt x="290" y="668" on="1"/>
        <pt x="234" y="662" on="0"/>
        <pt x="209" y="651" on="0"/>
        <pt x="209" y="629" on="1"/>
        <pt x="209" y="113" on="1"/>
        <pt x="209" y="72" on="0"/>
        <pt x="243" y="46" on="0"/>
        <pt x="276" y="46" on="1"/>
        <pt x="373" y="46" on="1"/>
        <pt x="449" y="46" on="0"/>
        <pt x="535" y="117" on="0"/>
        <pt x="560" y="191" on="1"/>
        <pt x="594" y="185" on="1"/>
        <pt x="594" y="167" on="0"/>
        <pt x="542" y="0" on="0"/>
        <pt x="531" y="0" on="1"/>
        <pt x="276" y="-2" on="1"/>
        <pt x="154" y="0" on="1"/>
        <pt x="43" y="-3" on="1"/>
        <pt x="35" y="41" on="1"/>
        <pt x="92" y="47" on="0"/>
        <pt x="118" y="59" on="0"/>
        <pt x="118" y="80" on="1"/>
        <pt x="118" y="629" on="1"/>
        <pt x="118" y="650" on="0"/>
        <pt x="90" y="664" on="0"/>
        <pt x="39" y="668" on="1"/>
        <pt x="30" y="712" on="1"/>
      </contour>
    </TTGlyph>
    <TTGlyph name="M" xMin="30" yMin="-3" xMax="954" yMax="713">
      <contour>
        <pt x="30" y="713" on="1"/>
        <pt x="153" y="710" on="1"/>
        <pt x="207" y="710" on="0"/>
        <pt x="226" y="713" on="1"/>
        <pt x="236" y="685" on="0"/>
        <pt x="353" y="441" on="0"/>
        <pt x="374" y="390" on="0"/>
        <pt x="484" y="180" on="0"/>
        <pt x="502" y="153" on="1"/>
        <pt x="511" y="170" on="0"/>
        <pt x="616" y="410" on="0"/>
        <pt x="624" y="429" on="1"/>
        <pt x="650" y="480" on="0"/>
        <pt x="751" y="699" on="0"/>
        <pt x="751" y="712" on="1"/>
        <pt x="770" y="710" on="0"/>
        <pt x="825" y="710" on="0"/>
        <pt x="945" y="713" on="1"/>
        <pt x="954" y="671" on="1"/>
        <pt x="859" y="665" on="0"/>
        <pt x="859" y="622" on="1"/>
        <pt x="859" y="80" on="1"/>
        <pt x="859" y="59" on="0"/>
        <pt x="890" y="45" on="0"/>
        <pt x="945" y="41" on="1"/>
        <pt x="954" y="-3" on="1"/>
        <pt x="825" y="0" on="0"/>
        <pt x="806" y="0" on="1"/>
        <pt x="693" y="-3" on="1"/>
        <pt x="685" y="41" on="1"/>
        <pt x="742" y="47" on="0"/>
        <pt x="768" y="59" on="0"/>
        <pt x="768" y="80" on="1"/>
        <pt x="768" y="606" on="1"/>
        <pt x="482" y="0" on="1"/>
        <pt x="468" y="-3" on="1"/>
        <pt x="176" y="602" on="1"/>
        <pt x="176" y="87" on="1"/>
        <pt x="176" y="65" on="0"/>
        <pt x="209" y="45" on="0"/>
        <pt x="262" y="41" on="1"/>
        <pt x="271" y="-3" on="1"/>
        <pt x="154" y="0" on="1"/>
        <pt x="41" y="-3" on="1"/>
        <pt x="33" y="41" on="1"/>
        <pt x="86" y="47" on="0"/>
        <pt x="116" y="64" on="0"/>
        <pt x="116" y="87" on="1"/>
        <pt x="116" y="631" on="1"/>
        <pt x="116" y="651" on="0"/>
        <pt x="87" y="666" on="0"/>
        <pt x="39" y="670" on="1"/>
      </contour>
    </TTGlyph>
    <TTGlyph name="N" xMin="30" yMin="-4" xMax="765" yMax="714">
      <contour>
        <pt x="644" y="711" on="1"/>
        <pt x="757" y="714" on="1"/>
        <pt x="765" y="670" on="1"/>
        <pt x="708" y="664" on="0"/>
        <pt x="682" y="652" on="0"/>
        <pt x="682" y="631" on="1"/>
        <pt x="683" y="-3" on="1"/>
        <pt x="676" y="-2" on="0"/>
        <pt x="638" y="-2" on="0"/>
        <pt x="631" y="-3" on="1"/>
        <pt x="176" y="584" on="1"/>
        <pt x="176" y="79" on="1"/>
        <pt x="176" y="58" on="0"/>
        <pt x="206" y="44" on="0"/>
        <pt x="261" y="40" on="1"/>
        <pt x="270" y="-4" on="1"/>
        <pt x="154" y="-1" on="1"/>
        <pt x="41" y="-4" on="1"/>
        <pt x="33" y="40" on="1"/>
        <pt x="90" y="46" on="0"/>
        <pt x="116" y="58" on="0"/>
        <pt x="116" y="79" on="1"/>
        <pt x="116" y="631" on="1"/>
        <pt x="116" y="651" on="0"/>
        <pt x="87" y="666" on="0"/>
        <pt x="39" y="670" on="1"/>
        <pt x="30" y="714" on="1"/>
        <pt x="30" y="714" on="0"/>
        <pt x="153" y="711" on="1"/>
        <pt x="180" y="711" on="0"/>
        <pt x="209" y="714" on="1"/>
        <pt x="209" y="698" on="0"/>
        <pt x="416" y="439" on="1"/>
        <pt x="581" y="237" on="0"/>
        <pt x="622" y="172" on="1"/>
        <pt x="622" y="631" on="1"/>
        <pt x="622" y="652" on="0"/>
        <pt x="591" y="666" on="0"/>
        <pt x="536" y="670" on="1"/>
        <pt x="527" y="714" on="1"/>
        <pt x="527" y="714" on="0"/>
      </contour>
    </TTGlyph>
    <TTGlyph name="Ntilde" xMin="38" yMin="-4" xMax="773" yMax="903">
      <contour>
        <pt x="652" y="711" on="1"/>
        <pt x="765" y="714" on="1"/>
        <pt x="773" y="670" on="1"/>
        <pt x="716" y="664" on="0"/>
        <pt x="690" y="652" on="0"/>
        <pt x="690" y="631" on="1"/>
        <pt x="691" y="-3" on="1"/>
        <pt x="684" y="-2" on="0"/>
        <pt x="646" y="-2" on="0"/>
        <pt x="639" y="-3" on="1"/>
        <pt x="184" y="584" on="1"/>
        <pt x="184" y="79" on="1"/>
        <pt x="184" y="58" on="0"/>
        <pt x="214" y="44" on="0"/>
        <pt x="269" y="40" on="1"/>
        <pt x="278" y="-4" on="1"/>
        <pt x="162" y="-1" on="1"/>
        <pt x="49" y="-4" on="1"/>
        <pt x="41" y="40" on="1"/>
        <pt x="98" y="46" on="0"/>
        <pt x="124" y="58" on="0"/>
        <pt x="124" y="79" on="1"/>
        <pt x="124" y="631" on="1"/>
        <pt x="124" y="651" on="0"/>
        <pt x="95" y="666" on="0"/>
        <pt x="47" y="670" on="1"/>
        <pt x="38" y="714" on="1"/>
        <pt x="38" y="714" on="0"/>
        <pt x="161" y="711" on="1"/>
        <pt x="188" y="711" on="0"/>
        <pt x="217" y="714" on="1"/>
        <pt x="217" y="698" on="0"/>
        <pt x="424" y="439" on="1"/>
        <pt x="589" y="237" on="0"/>
        <pt x="630" y="172" on="1"/>
        <pt x="630" y="631" on="1"/>
        <pt x="630" y="652" on="0"/>
        <pt x="599" y="666" on="0"/>
        <pt x="544" y="670" on="1"/>
        <pt x="535" y="714" on="1"/>
        <pt x="535" y="714" on="0"/>
      </contour>
      <contour>
        <pt x="316" y="877" on="1"/>
        <pt x="497" y="873" on="1"/>
        <pt x="531" y="873" on="0"/>
        <pt x="555" y="903" on="1"/>
        <pt x="562" y="903" on="0"/>
        <pt x="578" y="888" on="1"/>
        <pt x="579" y="886" on="0"/>
        <pt x="579" y="880" on="0"/>
        <pt x="577" y="876" on="1"/>
        <pt x="530" y="798" on="0"/>
        <pt x="499" y="798" on="1"/>
        <pt x="499" y="798" on="0"/>
        <pt x="331" y="802" on="1"/>
        <pt x="280" y="802" on="0"/>
        <pt x="258" y="763" on="1"/>
        <pt x="258" y="763" on="0"/>
        <pt x="252" y="763" on="0"/>
        <pt x="237" y="776" on="1"/>
        <pt x="235" y="779" on="0"/>
        <pt x="235" y="785" on="0"/>
        <pt x="252" y="818" on="0"/>
        <pt x="299" y="877" on="0"/>
      </contour>
    </TTGlyph>
    <TTGlyph name="O" xMin="40" yMin="-12" xMax="773" yMax="722">
      <contour>
        <pt x="244" y="-12" on="0"/>
        <pt x="40" y="184" on="0"/>
        <pt x="40" y="500" on="0"/>
        <pt x="257" y="722" on="0"/>
        <pt x="573" y="722" on="0"/>
        <pt x="773" y="523" on="0"/>
        <pt x="773" y="205" on="0"/>
        <pt x="561" y="-12" on="0"/>
      </contour>
      <contour>
        <pt x="430" y="38" on="1"/>
        <pt x="541" y="38" on="0"/>
        <pt x="668" y="201" on="0"/>
        <pt x="668" y="325" on="1"/>
        <pt x="668" y="532" on="0"/>
        <pt x="544" y="626" on="1"/>
        <pt x="480" y="675" on="0"/>
        <pt x="388" y="675" on="1"/>
        <pt x="277" y="675" on="0"/>
        <pt x="145" y="507" on="0"/>
        <pt x="145" y="384" on="1"/>
        <pt x="145" y="246" on="0"/>
        <pt x="212" y="146" on="1"/>
        <pt x="245" y="96" on="0"/>
        <pt x="358" y="38" on="0"/>
      </contour>
    </TTGlyph>
    <TTGlyph name="OE" xMin="50" yMin="-12" xMax="1092" yMax="722">
      <contour>
        <pt x="860" y="666" on="1"/>
        <pt x="747" y="665" on="1"/>
        <pt x="677" y="662" on="0"/>
        <pt x="677" y="649" on="1"/>
        <pt x="677" y="399" on="1"/>
        <pt x="677" y="389" on="0"/>
        <pt x="687" y="389" on="1"/>
        <pt x="846" y="389" on="1"/>
        <pt x="870" y="389" on="0"/>
        <pt x="887" y="434" on="0"/>
        <pt x="887" y="495" on="1"/>
        <pt x="920" y="500" on="1"/>
        <pt x="918" y="367" on="1"/>
        <pt x="920" y="244" on="1"/>
        <pt x="887" y="239" on="1"/>
        <pt x="887" y="298" on="0"/>
        <pt x="873" y="332" on="0"/>
        <pt x="846" y="332" on="1"/>
        <pt x="687" y="332" on="1"/>
        <pt x="677" y="332" on="0"/>
        <pt x="677" y="323" on="1"/>
        <pt x="677" y="113" on="1"/>
        <pt x="677" y="69" on="0"/>
        <pt x="713" y="46" on="0"/>
        <pt x="774" y="46" on="1"/>
        <pt x="871" y="46" on="1"/>
        <pt x="947" y="46" on="0"/>
        <pt x="1033" y="117" on="0"/>
        <pt x="1058" y="191" on="1"/>
        <pt x="1092" y="185" on="1"/>
        <pt x="1092" y="167" on="0"/>
        <pt x="1040" y="0" on="0"/>
        <pt x="1029" y="0" on="1"/>
        <pt x="774" y="-2" on="1"/>
        <pt x="748" y="-2" on="0"/>
        <pt x="622" y="0" on="1"/>
        <pt x="608" y="0" on="0"/>
        <pt x="452" y="-12" on="0"/>
        <pt x="419" y="-12" on="1"/>
        <pt x="254" y="-12" on="0"/>
        <pt x="50" y="184" on="0"/>
        <pt x="50" y="500" on="0"/>
        <pt x="267" y="722" on="0"/>
        <pt x="419" y="722" on="1"/>
        <pt x="450" y="722" on="0"/>
        <pt x="584" y="710" on="0"/>
        <pt x="623" y="710" on="1"/>
        <pt x="784" y="710" on="1"/>
        <pt x="1031" y="709" on="1"/>
        <pt x="1038" y="694" on="0"/>
        <pt x="1038" y="590" on="0"/>
        <pt x="1033" y="535" on="1"/>
        <pt x="1001" y="538" on="1"/>
        <pt x="989" y="609" on="0"/>
        <pt x="925" y="666" on="0"/>
      </contour>
      <contour>
        <pt x="570" y="52" on="1"/>
        <pt x="584" y="58" on="0"/>
        <pt x="586" y="80" on="1"/>
        <pt x="586" y="600" on="1"/>
        <pt x="586" y="635" on="0"/>
        <pt x="570" y="659" on="0"/>
        <pt x="546" y="665" on="1"/>
        <pt x="482" y="675" on="0"/>
        <pt x="434" y="675" on="1"/>
        <pt x="307" y="675" on="0"/>
        <pt x="155" y="499" on="0"/>
        <pt x="155" y="358" on="1"/>
        <pt x="155" y="239" on="0"/>
        <pt x="222" y="142" on="1"/>
        <pt x="255" y="95" on="0"/>
        <pt x="368" y="38" on="0"/>
        <pt x="541" y="38" on="0"/>
      </contour>
    </TTGlyph>
    <TTGlyph name="Oacute" xMin="48" yMin="-12" xMax="781" yMax="900">
      <contour>
        <pt x="354" y="791" on="1"/>
        <pt x="508" y="900" on="1"/>
        <pt x="517" y="900" on="0"/>
        <pt x="561" y="857" on="0"/>
        <pt x="565" y="847" on="1"/>
        <pt x="377" y="771" on="1"/>
        <pt x="366" y="774" on="0"/>
        <pt x="354" y="787" on="0"/>
      </contour>
      <contour>
        <pt x="252" y="-12" on="0"/>
        <pt x="48" y="184" on="0"/>
        <pt x="48" y="500" on="0"/>
        <pt x="265" y="722" on="0"/>
        <pt x="581" y="722" on="0"/>
        <pt x="781" y="523" on="0"/>
        <pt x="781" y="205" on="0"/>
        <pt x="569" y="-12" on="0"/>
      </contour>
      <contour>
        <pt x="438" y="38" on="1"/>
        <pt x="549" y="38" on="0"/>
        <pt x="676" y="201" on="0"/>
        <pt x="676" y="325" on="1"/>
        <pt x="676" y="532" on="0"/>
        <pt x="552" y="626" on="1"/>
        <pt x="488" y="675" on="0"/>
        <pt x="396" y="675" on="1"/>
        <pt x="285" y="675" on="0"/>
        <pt x="153" y="507" on="0"/>
        <pt x="153" y="384" on="1"/>
        <pt x="153" y="246" on="0"/>
        <pt x="220" y="146" on="1"/>
        <pt x="253" y="96" on="0"/>
        <pt x="366" y="38" on="0"/>
      </contour>
    </TTGlyph>
    <TTGlyph name="Ocircumflex" xMin="48" yMin="-12" xMax="781" yMax="933">
      <contour>
        <pt x="442" y="933" on="1"/>
        <pt x="444" y="933" on="0"/>
        <pt x="448" y="926" on="1"/>
        <pt x="552" y="792" on="1"/>
        <pt x="552" y="788" on="0"/>
        <pt x="540" y="775" on="0"/>
        <pt x="529" y="772" on="1"/>
        <pt x="409" y="860" on="1"/>
        <pt x="290" y="772" on="1"/>
        <pt x="279" y="775" on="0"/>
        <pt x="267" y="788" on="0"/>
        <pt x="267" y="792" on="1"/>
        <pt x="373" y="931" on="1"/>
        <pt x="421" y="933" on="0"/>
      </contour>
      <contour>
        <pt x="252" y="-12" on="0"/>
        <pt x="48" y="184" on="0"/>
        <pt x="48" y="500" on="0"/>
        <pt x="265" y="722" on="0"/>
        <pt x="581" y="722" on="0"/>
        <pt x="781" y="523" on="0"/>
        <pt x="781" y="205" on="0"/>
        <pt x="569" y="-12" on="0"/>
      </contour>
      <contour>
        <pt x="438" y="38" on="1"/>
        <pt x="549" y="38" on="0"/>
        <pt x="676" y="201" on="0"/>
        <pt x="676" y="325" on="1"/>
        <pt x="676" y="532" on="0"/>
        <pt x="552" y="626" on="1"/>
        <pt x="488" y="675" on="0"/>
        <pt x="396" y="675" on="1"/>
        <pt x="285" y="675" on="0"/>
        <pt x="153" y="507" on="0"/>
        <pt x="153" y="384" on="1"/>
        <pt x="153" y="246" on="0"/>
        <pt x="220" y="146" on="1"/>
        <pt x="253" y="96" on="0"/>
        <pt x="366" y="38" on="0"/>
      </contour>
    </TTGlyph>
    <TTGlyph name="Odieresis" xMin="48" yMin="-12" xMax="781" yMax="889">
      <contour>
        <pt x="252" y="-12" on="0"/>
        <pt x="48" y="184" on="0"/>
        <pt x="48" y="500" on="0"/>
        <pt x="265" y="722" on="0"/>
        <pt x="581" y="722" on="0"/>
        <pt x="781" y="523" on="0"/>
        <pt x="781" y="205" on="0"/>
        <pt x="569" y="-12" on="0"/>
      </contour>
      <contour>
        <pt x="438" y="38" on="1"/>
        <pt x="549" y="38" on="0"/>
        <pt x="676" y="201" on="0"/>
        <pt x="676" y="325" on="1"/>
        <pt x="676" y="532" on="0"/>
        <pt x="552" y="626" on="1"/>
        <pt x="488" y="675" on="0"/>
        <pt x="396" y="675" on="1"/>
        <pt x="285" y="675" on="0"/>
        <pt x="153" y="507" on="0"/>
        <pt x="153" y="384" on="1"/>
        <pt x="153" y="246" on="0"/>
        <pt x="220" y="146" on="1"/>
        <pt x="253" y="96" on="0"/>
        <pt x="366" y="38" on="0"/>
      </contour>
      <contour>
        <pt x="285" y="771" on="0"/>
        <pt x="252" y="803" on="0"/>
        <pt x="252" y="853" on="0"/>
        <pt x="287" y="889" on="0"/>
        <pt x="338" y="889" on="0"/>
        <pt x="371" y="858" on="0"/>
        <pt x="371" y="807" on="0"/>
        <pt x="337" y="771" on="0"/>
      </contour>
      <contour>
        <pt x="462" y="771" on="0"/>
        <pt x="429" y="803" on="0"/>
        <pt x="429" y="853" on="0"/>
        <pt x="463" y="889" on="0"/>
        <pt x="514" y="889" on="0"/>
        <pt x="547" y="858" on="0"/>
        <pt x="547" y="807" on="0"/>
        <pt x="512" y="771" on="0"/>
      </contour>
    </TTGlyph>
    <TTGlyph name="Ograve" xMin="48" yMin="-12" xMax="781" yMax="933">
      <contour>
        <pt x="360" y="933" on="1"/>
        <pt x="467" y="792" on="1"/>
        <pt x="467" y="788" on="0"/>
        <pt x="455" y="775" on="0"/>
        <pt x="444" y="772" on="1"/>
        <pt x="266" y="898" on="1"/>
        <pt x="266" y="905" on="0"/>
        <pt x="343" y="933" on="0"/>
      </contour>
      <contour>
        <pt x="252" y="-12" on="0"/>
        <pt x="48" y="184" on="0"/>
        <pt x="48" y="500" on="0"/>
        <pt x="265" y="722" on="0"/>
        <pt x="581" y="722" on="0"/>
        <pt x="781" y="523" on="0"/>
        <pt x="781" y="205" on="0"/>
        <pt x="569" y="-12" on="0"/>
      </contour>
      <contour>
        <pt x="438" y="38" on="1"/>
        <pt x="549" y="38" on="0"/>
        <pt x="676" y="201" on="0"/>
        <pt x="676" y="325" on="1"/>
        <pt x="676" y="532" on="0"/>
        <pt x="552" y="626" on="1"/>
        <pt x="488" y="675" on="0"/>
        <pt x="396" y="675" on="1"/>
        <pt x="285" y="675" on="0"/>
        <pt x="153" y="507" on="0"/>
        <pt x="153" y="384" on="1"/>
        <pt x="153" y="246" on="0"/>
        <pt x="220" y="146" on="1"/>
        <pt x="253" y="96" on="0"/>
        <pt x="366" y="38" on="0"/>
      </contour>
    </TTGlyph>
    <TTGlyph name="Oslash" xMin="40" yMin="-41" xMax="773" yMax="742">
      <contour>
        <pt x="773" y="361" on="1"/>
        <pt x="773" y="205" on="0"/>
        <pt x="561" y="-12" on="0"/>
        <pt x="409" y="-12" on="1"/>
        <pt x="283" y="-12" on="0"/>
        <pt x="192" y="47" on="1"/>
        <pt x="127" y="-37" on="1"/>
        <pt x="124" y="-40" on="0"/>
        <pt x="116" y="-40" on="1"/>
        <pt x="87" y="-40" on="0"/>
        <pt x="71" y="-26" on="1"/>
        <pt x="151" y="77" on="1"/>
        <pt x="40" y="177" on="0"/>
        <pt x="40" y="500" on="0"/>
        <pt x="257" y="722" on="0"/>
        <pt x="409" y="722" on="1"/>
        <pt x="527" y="722" on="0"/>
        <pt x="612" y="669" on="1"/>
        <pt x="669" y="742" on="1"/>
        <pt x="706" y="742" on="0"/>
        <pt x="719" y="725" on="1"/>
        <pt x="653" y="640" on="1"/>
        <pt x="773" y="539" on="0"/>
      </contour>
      <contour>
        <pt x="241" y="111" on="1"/>
        <pt x="317" y="38" on="0"/>
        <pt x="541" y="38" on="0"/>
        <pt x="668" y="201" on="0"/>
        <pt x="668" y="325" on="1"/>
        <pt x="668" y="477" on="0"/>
        <pt x="599" y="571" on="1"/>
      </contour>
      <contour>
        <pt x="277" y="675" on="0"/>
        <pt x="145" y="507" on="0"/>
        <pt x="145" y="244" on="0"/>
        <pt x="208" y="150" on="1"/>
        <pt x="565" y="609" on="1"/>
        <pt x="494" y="675" on="0"/>
      </contour>
    </TTGlyph>
    <TTGlyph name="Otilde" xMin="48" yMin="-12" xMax="781" yMax="904">
      <contour>
        <pt x="252" y="-12" on="0"/>
        <pt x="48" y="184" on="0"/>
        <pt x="48" y="500" on="0"/>
        <pt x="265" y="722" on="0"/>
        <pt x="581" y="722" on="0"/>
        <pt x="781" y="523" on="0"/>
        <pt x="781" y="205" on="0"/>
        <pt x="569" y="-12" on="0"/>
      </contour>
      <contour>
        <pt x="438" y="38" on="1"/>
        <pt x="549" y="38" on="0"/>
        <pt x="676" y="201" on="0"/>
        <pt x="676" y="325" on="1"/>
        <pt x="676" y="532" on="0"/>
        <pt x="552" y="626" on="1"/>
        <pt x="488" y="675" on="0"/>
        <pt x="396" y="675" on="1"/>
        <pt x="285" y="675" on="0"/>
        <pt x="153" y="507" on="0"/>
        <pt x="153" y="384" on="1"/>
        <pt x="153" y="246" on="0"/>
        <pt x="220" y="146" on="1"/>
        <pt x="253" y="96" on="0"/>
        <pt x="366" y="38" on="0"/>
      </contour>
      <contour>
        <pt x="329" y="878" on="1"/>
        <pt x="510" y="874" on="1"/>
        <pt x="544" y="874" on="0"/>
        <pt x="568" y="904" on="1"/>
        <pt x="575" y="904" on="0"/>
        <pt x="591" y="889" on="1"/>
        <pt x="592" y="887" on="0"/>
        <pt x="592" y="881" on="0"/>
        <pt x="590" y="877" on="1"/>
        <pt x="543" y="799" on="0"/>
        <pt x="512" y="799" on="1"/>
        <pt x="344" y="803" on="1"/>
        <pt x="294" y="803" on="0"/>
        <pt x="271" y="764" on="1"/>
        <pt x="271" y="764" on="0"/>
        <pt x="265" y="764" on="0"/>
        <pt x="250" y="777" on="1"/>
        <pt x="248" y="780" on="0"/>
        <pt x="248" y="786" on="0"/>
        <pt x="265" y="819" on="0"/>
        <pt x="312" y="878" on="0"/>
      </contour>
    </TTGlyph>
    <TTGlyph name="P" xMin="30" yMin="-3" xMax="553" yMax="714">
      <contour>
        <pt x="30" y="713" on="1"/>
        <pt x="153" y="710" on="1"/>
        <pt x="285" y="714" on="0"/>
        <pt x="303" y="714" on="1"/>
        <pt x="416" y="714" on="0"/>
        <pt x="553" y="624" on="0"/>
        <pt x="553" y="420" on="0"/>
        <pt x="403" y="319" on="0"/>
        <pt x="285" y="319" on="1"/>
        <pt x="257" y="319" on="0"/>
        <pt x="242" y="324" on="1"/>
        <pt x="230" y="334" on="0"/>
        <pt x="230" y="358" on="1"/>
        <pt x="230" y="364" on="0"/>
        <pt x="233" y="367" on="1"/>
        <pt x="242" y="364" on="0"/>
        <pt x="272" y="364" on="1"/>
        <pt x="358" y="364" on="0"/>
        <pt x="458" y="450" on="0"/>
        <pt x="458" y="599" on="0"/>
        <pt x="366" y="667" on="0"/>
        <pt x="289" y="667" on="1"/>
        <pt x="224" y="667" on="0"/>
        <pt x="207" y="656" on="0"/>
        <pt x="207" y="650" on="1"/>
        <pt x="207" y="89" on="1"/>
        <pt x="207" y="59" on="0"/>
        <pt x="248" y="41" on="0"/>
        <pt x="314" y="41" on="1"/>
        <pt x="324" y="-2" on="1"/>
        <pt x="186" y="0" on="1"/>
        <pt x="173" y="0" on="0"/>
        <pt x="41" y="-3" on="1"/>
        <pt x="33" y="41" on="1"/>
        <pt x="89" y="47" on="0"/>
        <pt x="114" y="58" on="0"/>
        <pt x="116" y="80" on="1"/>
        <pt x="116" y="630" on="1"/>
        <pt x="116" y="650" on="0"/>
        <pt x="87" y="665" on="0"/>
        <pt x="39" y="669" on="1"/>
      </contour>
    </TTGlyph>
    <TTGlyph name="Q" xMin="40" yMin="-193" xMax="1059" yMax="722">
      <contour>
        <pt x="40" y="345" on="1"/>
        <pt x="40" y="500" on="0"/>
        <pt x="257" y="722" on="0"/>
        <pt x="573" y="722" on="0"/>
        <pt x="773" y="523" on="0"/>
        <pt x="773" y="361" on="1"/>
        <pt x="773" y="236" on="0"/>
        <pt x="632" y="42" on="0"/>
        <pt x="519" y="5" on="1"/>
        <pt x="506" y="1" on="0"/>
        <pt x="483" y="-1" on="1"/>
        <pt x="594" y="-23" on="0"/>
        <pt x="700" y="-79" on="1"/>
        <pt x="737" y="-99" on="0"/>
        <pt x="848" y="-129" on="0"/>
        <pt x="890" y="-129" on="1"/>
        <pt x="972" y="-129" on="0"/>
        <pt x="1031" y="-105" on="1"/>
        <pt x="1032" y="-104" on="0"/>
        <pt x="1037" y="-104" on="0"/>
        <pt x="1039" y="-106" on="1"/>
        <pt x="1059" y="-131" on="1"/>
        <pt x="961" y="-193" on="0"/>
        <pt x="836" y="-193" on="1"/>
        <pt x="776" y="-193" on="0"/>
        <pt x="662" y="-164" on="0"/>
        <pt x="594" y="-131" on="0"/>
        <pt x="492" y="-75" on="0"/>
        <pt x="389" y="-27" on="0"/>
        <pt x="170" y="39" on="0"/>
        <pt x="40" y="218" on="0"/>
      </contour>
      <contour>
        <pt x="430" y="38" on="1"/>
        <pt x="541" y="38" on="0"/>
        <pt x="668" y="201" on="0"/>
        <pt x="668" y="325" on="1"/>
        <pt x="668" y="532" on="0"/>
        <pt x="544" y="626" on="1"/>
        <pt x="480" y="675" on="0"/>
        <pt x="388" y="675" on="1"/>
        <pt x="277" y="675" on="0"/>
        <pt x="145" y="507" on="0"/>
        <pt x="145" y="384" on="1"/>
        <pt x="145" y="246" on="0"/>
        <pt x="212" y="146" on="1"/>
        <pt x="245" y="96" on="0"/>
        <pt x="358" y="38" on="0"/>
      </contour>
    </TTGlyph>
    <TTGlyph name="R" xMin="30" yMin="-3" xMax="698" yMax="714">
      <contour>
        <pt x="30" y="713" on="1"/>
        <pt x="150" y="710" on="1"/>
        <pt x="303" y="714" on="1"/>
        <pt x="413" y="714" on="0"/>
        <pt x="553" y="620" on="0"/>
        <pt x="553" y="523" on="1"/>
        <pt x="553" y="380" on="0"/>
        <pt x="408" y="330" on="1"/>
        <pt x="429" y="302" on="0"/>
        <pt x="474" y="240" on="1"/>
        <pt x="571" y="102" on="0"/>
        <pt x="640" y="38" on="0"/>
        <pt x="685" y="34" on="1"/>
        <pt x="698" y="-1" on="1"/>
        <pt x="624" y="2" on="1"/>
        <pt x="524" y="0" on="1"/>
        <pt x="505" y="26" on="0"/>
        <pt x="342" y="274" on="0"/>
        <pt x="314" y="308" on="1"/>
        <pt x="310" y="312" on="0"/>
        <pt x="303" y="312" on="1"/>
        <pt x="207" y="312" on="1"/>
        <pt x="207" y="80" on="1"/>
        <pt x="207" y="60" on="0"/>
        <pt x="243" y="45" on="0"/>
        <pt x="294" y="41" on="1"/>
        <pt x="303" y="-3" on="1"/>
        <pt x="174" y="0" on="0"/>
        <pt x="171" y="0" on="1"/>
        <pt x="43" y="-3" on="1"/>
        <pt x="35" y="41" on="1"/>
        <pt x="91" y="47" on="0"/>
        <pt x="116" y="58" on="0"/>
        <pt x="116" y="80" on="1"/>
        <pt x="116" y="630" on="1"/>
        <pt x="116" y="650" on="0"/>
        <pt x="87" y="665" on="0"/>
        <pt x="39" y="669" on="1"/>
      </contour>
      <contour>
        <pt x="207" y="650" on="1"/>
        <pt x="207" y="360" on="1"/>
        <pt x="230" y="357" on="0"/>
        <pt x="273" y="357" on="1"/>
        <pt x="458" y="357" on="0"/>
        <pt x="458" y="522" on="1"/>
        <pt x="458" y="594" on="0"/>
        <pt x="364" y="667" on="0"/>
        <pt x="289" y="667" on="1"/>
        <pt x="224" y="667" on="0"/>
        <pt x="207" y="656" on="0"/>
      </contour>
    </TTGlyph>
    <TTGlyph name="S" xMin="40" yMin="-12" xMax="505" yMax="722">
      <contour>
        <pt x="271" y="38" on="1"/>
        <pt x="340" y="38" on="0"/>
        <pt x="415" y="108" on="0"/>
        <pt x="415" y="208" on="0"/>
        <pt x="342" y="279" on="0"/>
        <pt x="237" y="331" on="0"/>
        <pt x="132" y="387" on="0"/>
        <pt x="59" y="480" on="0"/>
        <pt x="59" y="542" on="1"/>
        <pt x="59" y="631" on="0"/>
        <pt x="187" y="722" on="0"/>
        <pt x="275" y="722" on="1"/>
        <pt x="388" y="722" on="0"/>
        <pt x="469" y="684" on="1"/>
        <pt x="476" y="669" on="0"/>
        <pt x="476" y="542" on="0"/>
        <pt x="472" y="510" on="1"/>
        <pt x="441" y="512" on="1"/>
        <pt x="437" y="582" on="0"/>
        <pt x="348" y="675" on="0"/>
        <pt x="272" y="675" on="1"/>
        <pt x="218" y="675" on="0"/>
        <pt x="149" y="620" on="0"/>
        <pt x="149" y="571" on="1"/>
        <pt x="149" y="513" on="0"/>
        <pt x="220" y="470" on="1"/>
        <pt x="251" y="451" on="0"/>
        <pt x="327" y="413" on="0"/>
        <pt x="403" y="370" on="0"/>
        <pt x="434" y="344" on="1"/>
        <pt x="505" y="286" on="0"/>
        <pt x="505" y="107" on="0"/>
        <pt x="381" y="-12" on="0"/>
        <pt x="177" y="-12" on="0"/>
        <pt x="67" y="29" on="1"/>
        <pt x="62" y="44" on="0"/>
        <pt x="44" y="163" on="0"/>
        <pt x="40" y="204" on="1"/>
        <pt x="86" y="211" on="1"/>
        <pt x="126" y="38" on="0"/>
      </contour>
    </TTGlyph>
    <TTGlyph name="T" xMin="33" yMin="-1" xMax="650" yMax="717">
      <contour>
        <pt x="463" y="665" on="1"/>
        <pt x="383" y="665" on="1"/>
        <pt x="383" y="82" on="1"/>
        <pt x="383" y="61" on="0"/>
        <pt x="416" y="47" on="0"/>
        <pt x="475" y="43" on="1"/>
        <pt x="484" y="-1" on="1"/>
        <pt x="355" y="2" on="0"/>
        <pt x="337" y="2" on="0"/>
        <pt x="205" y="-1" on="1"/>
        <pt x="197" y="43" on="1"/>
        <pt x="264" y="49" on="0"/>
        <pt x="292" y="60" on="0"/>
        <pt x="292" y="82" on="1"/>
        <pt x="292" y="665" on="1"/>
        <pt x="230" y="665" on="1"/>
        <pt x="180" y="665" on="0"/>
        <pt x="156" y="660" on="1"/>
        <pt x="87" y="646" on="0"/>
        <pt x="68" y="537" on="1"/>
        <pt x="40" y="535" on="1"/>
        <pt x="33" y="570" on="0"/>
        <pt x="33" y="693" on="0"/>
        <pt x="40" y="717" on="1"/>
        <pt x="62" y="710" on="0"/>
        <pt x="119" y="710" on="1"/>
        <pt x="568" y="710" on="1"/>
        <pt x="626" y="710" on="0"/>
        <pt x="646" y="717" on="1"/>
        <pt x="650" y="674" on="0"/>
        <pt x="650" y="576" on="0"/>
        <pt x="642" y="535" on="1"/>
        <pt x="612" y="538" on="1"/>
        <pt x="603" y="608" on="0"/>
        <pt x="537" y="665" on="0"/>
      </contour>
    </TTGlyph>
    <TTGlyph name="Thorn" xMin="30" yMin="-3" xMax="557" yMax="713">
      <contour>
        <pt x="36" y="713" on="1"/>
        <pt x="162" y="710" on="1"/>
        <pt x="163" y="710" on="0"/>
        <pt x="295" y="713" on="1"/>
        <pt x="303" y="669" on="1"/>
        <pt x="240" y="663" on="0"/>
        <pt x="212" y="652" on="0"/>
        <pt x="212" y="630" on="1"/>
        <pt x="212" y="555" on="1"/>
        <pt x="290" y="557" on="0"/>
        <pt x="310" y="557" on="1"/>
        <pt x="421" y="557" on="0"/>
        <pt x="557" y="470" on="0"/>
        <pt x="557" y="279" on="0"/>
        <pt x="409" y="182" on="0"/>
        <pt x="292" y="182" on="1"/>
        <pt x="264" y="182" on="0"/>
        <pt x="249" y="187" on="1"/>
        <pt x="237" y="197" on="0"/>
        <pt x="237" y="221" on="1"/>
        <pt x="237" y="227" on="0"/>
        <pt x="240" y="230" on="1"/>
        <pt x="249" y="227" on="0"/>
        <pt x="279" y="227" on="1"/>
        <pt x="363" y="227" on="0"/>
        <pt x="466" y="312" on="0"/>
        <pt x="466" y="445" on="0"/>
        <pt x="372" y="510" on="0"/>
        <pt x="296" y="510" on="1"/>
        <pt x="231" y="510" on="0"/>
        <pt x="214" y="499" on="0"/>
        <pt x="214" y="493" on="1"/>
        <pt x="212" y="492" on="1"/>
        <pt x="212" y="80" on="1"/>
        <pt x="212" y="59" on="0"/>
        <pt x="240" y="45" on="0"/>
        <pt x="288" y="41" on="1"/>
        <pt x="297" y="-3" on="1"/>
        <pt x="171" y="0" on="1"/>
        <pt x="170" y="0" on="0"/>
        <pt x="38" y="-3" on="1"/>
        <pt x="30" y="41" on="1"/>
        <pt x="93" y="47" on="0"/>
        <pt x="121" y="58" on="0"/>
        <pt x="121" y="80" on="1"/>
        <pt x="121" y="630" on="1"/>
        <pt x="121" y="651" on="0"/>
        <pt x="93" y="665" on="0"/>
        <pt x="45" y="669" on="1"/>
      </contour>
    </TTGlyph>
    <TTGlyph name="U" xMin="23" yMin="-12" xMax="731" yMax="713">
      <contour>
        <pt x="610" y="709" on="1"/>
        <pt x="723" y="712" on="1"/>
        <pt x="731" y="668" on="1"/>
        <pt x="674" y="662" on="0"/>
        <pt x="648" y="650" on="0"/>
        <pt x="648" y="629" on="1"/>
        <pt x="648" y="257" on="1"/>
        <pt x="648" y="-12" on="0"/>
        <pt x="393" y="-12" on="1"/>
        <pt x="247" y="-12" on="0"/>
        <pt x="96" y="113" on="0"/>
        <pt x="96" y="250" on="1"/>
        <pt x="96" y="630" on="1"/>
        <pt x="96" y="650" on="0"/>
        <pt x="72" y="665" on="0"/>
        <pt x="32" y="669" on="1"/>
        <pt x="23" y="713" on="1"/>
        <pt x="140" y="710" on="1"/>
        <pt x="260" y="713" on="1"/>
        <pt x="268" y="669" on="1"/>
        <pt x="212" y="663" on="0"/>
        <pt x="187" y="652" on="0"/>
        <pt x="187" y="630" on="1"/>
        <pt x="187" y="262" on="1"/>
        <pt x="187" y="38" on="0"/>
        <pt x="412" y="38" on="1"/>
        <pt x="500" y="38" on="0"/>
        <pt x="588" y="148" on="0"/>
        <pt x="588" y="247" on="1"/>
        <pt x="588" y="629" on="1"/>
        <pt x="588" y="650" on="0"/>
        <pt x="557" y="664" on="0"/>
        <pt x="502" y="668" on="1"/>
        <pt x="493" y="712" on="1"/>
      </contour>
    </TTGlyph>
    <TTGlyph name="Uacute" xMin="32" yMin="-12" xMax="740" yMax="900">
      <contour>
        <pt x="337" y="791" on="1"/>
        <pt x="491" y="900" on="1"/>
        <pt x="500" y="900" on="0"/>
        <pt x="544" y="857" on="0"/>
        <pt x="548" y="847" on="1"/>
        <pt x="360" y="771" on="1"/>
        <pt x="349" y="774" on="0"/>
        <pt x="337" y="787" on="0"/>
      </contour>
      <contour>
        <pt x="619" y="709" on="1"/>
        <pt x="732" y="712" on="1"/>
        <pt x="740" y="668" on="1"/>
        <pt x="683" y="662" on="0"/>
        <pt x="657" y="650" on="0"/>
        <pt x="657" y="629" on="1"/>
        <pt x="657" y="257" on="1"/>
        <pt x="657" y="-12" on="0"/>
        <pt x="402" y="-12" on="1"/>
        <pt x="256" y="-12" on="0"/>
        <pt x="105" y="113" on="0"/>
        <pt x="105" y="250" on="1"/>
        <pt x="105" y="630" on="1"/>
        <pt x="105" y="650" on="0"/>
        <pt x="81" y="665" on="0"/>
        <pt x="41" y="669" on="1"/>
        <pt x="32" y="713" on="1"/>
        <pt x="149" y="710" on="1"/>
        <pt x="269" y="713" on="1"/>
        <pt x="277" y="669" on="1"/>
        <pt x="221" y="663" on="0"/>
        <pt x="196" y="652" on="0"/>
        <pt x="196" y="630" on="1"/>
        <pt x="196" y="262" on="1"/>
        <pt x="196" y="38" on="0"/>
        <pt x="421" y="38" on="1"/>
        <pt x="509" y="38" on="0"/>
        <pt x="597" y="148" on="0"/>
        <pt x="597" y="247" on="1"/>
        <pt x="597" y="629" on="1"/>
        <pt x="597" y="650" on="0"/>
        <pt x="566" y="664" on="0"/>
        <pt x="511" y="668" on="1"/>
        <pt x="502" y="712" on="1"/>
      </contour>
    </TTGlyph>
    <TTGlyph name="Ucircumflex" xMin="32" yMin="-12" xMax="740" yMax="933">
      <contour>
        <pt x="427" y="933" on="1"/>
        <pt x="429" y="933" on="0"/>
        <pt x="433" y="926" on="1"/>
        <pt x="537" y="792" on="1"/>
        <pt x="537" y="788" on="0"/>
        <pt x="525" y="775" on="0"/>
        <pt x="514" y="772" on="1"/>
        <pt x="394" y="860" on="1"/>
        <pt x="275" y="772" on="1"/>
        <pt x="264" y="775" on="0"/>
        <pt x="252" y="788" on="0"/>
        <pt x="252" y="792" on="1"/>
        <pt x="358" y="931" on="1"/>
        <pt x="406" y="933" on="0"/>
      </contour>
      <contour>
        <pt x="619" y="709" on="1"/>
        <pt x="732" y="712" on="1"/>
        <pt x="740" y="668" on="1"/>
        <pt x="683" y="662" on="0"/>
        <pt x="657" y="650" on="0"/>
        <pt x="657" y="629" on="1"/>
        <pt x="657" y="257" on="1"/>
        <pt x="657" y="-12" on="0"/>
        <pt x="402" y="-12" on="1"/>
        <pt x="256" y="-12" on="0"/>
        <pt x="105" y="113" on="0"/>
        <pt x="105" y="250" on="1"/>
        <pt x="105" y="630" on="1"/>
        <pt x="105" y="650" on="0"/>
        <pt x="81" y="665" on="0"/>
        <pt x="41" y="669" on="1"/>
        <pt x="32" y="713" on="1"/>
        <pt x="149" y="710" on="1"/>
        <pt x="269" y="713" on="1"/>
        <pt x="277" y="669" on="1"/>
        <pt x="221" y="663" on="0"/>
        <pt x="196" y="652" on="0"/>
        <pt x="196" y="630" on="1"/>
        <pt x="196" y="262" on="1"/>
        <pt x="196" y="38" on="0"/>
        <pt x="421" y="38" on="1"/>
        <pt x="509" y="38" on="0"/>
        <pt x="597" y="148" on="0"/>
        <pt x="597" y="247" on="1"/>
        <pt x="597" y="629" on="1"/>
        <pt x="597" y="650" on="0"/>
        <pt x="566" y="664" on="0"/>
        <pt x="511" y="668" on="1"/>
        <pt x="502" y="712" on="1"/>
      </contour>
    </TTGlyph>
    <TTGlyph name="Udieresis" xMin="32" yMin="-12" xMax="740" yMax="892">
      <contour>
        <pt x="619" y="709" on="1"/>
        <pt x="732" y="712" on="1"/>
        <pt x="740" y="668" on="1"/>
        <pt x="683" y="662" on="0"/>
        <pt x="657" y="650" on="0"/>
        <pt x="657" y="629" on="1"/>
        <pt x="657" y="257" on="1"/>
        <pt x="657" y="-12" on="0"/>
        <pt x="402" y="-12" on="1"/>
        <pt x="256" y="-12" on="0"/>
        <pt x="105" y="113" on="0"/>
        <pt x="105" y="250" on="1"/>
        <pt x="105" y="632" on="1"/>
        <pt x="105" y="652" on="0"/>
        <pt x="81" y="667" on="0"/>
        <pt x="41" y="671" on="1"/>
        <pt x="32" y="715" on="1"/>
        <pt x="149" y="712" on="1"/>
        <pt x="269" y="715" on="1"/>
        <pt x="277" y="671" on="1"/>
        <pt x="221" y="665" on="0"/>
        <pt x="196" y="654" on="0"/>
        <pt x="196" y="632" on="1"/>
        <pt x="196" y="262" on="1"/>
        <pt x="196" y="38" on="0"/>
        <pt x="421" y="38" on="1"/>
        <pt x="509" y="38" on="0"/>
        <pt x="597" y="148" on="0"/>
        <pt x="597" y="247" on="1"/>
        <pt x="597" y="629" on="1"/>
        <pt x="597" y="650" on="0"/>
        <pt x="566" y="664" on="0"/>
        <pt x="511" y="668" on="1"/>
        <pt x="502" y="712" on="1"/>
      </contour>
      <contour>
        <pt x="273" y="774" on="0"/>
        <pt x="240" y="806" on="0"/>
        <pt x="240" y="856" on="0"/>
        <pt x="275" y="892" on="0"/>
        <pt x="326" y="892" on="0"/>
        <pt x="359" y="861" on="0"/>
        <pt x="359" y="810" on="0"/>
        <pt x="325" y="774" on="0"/>
      </contour>
      <contour>
        <pt x="450" y="774" on="0"/>
        <pt x="417" y="806" on="0"/>
        <pt x="417" y="856" on="0"/>
        <pt x="451" y="892" on="0"/>
        <pt x="502" y="892" on="0"/>
        <pt x="535" y="861" on="0"/>
        <pt x="535" y="810" on="0"/>
        <pt x="500" y="774" on="0"/>
      </contour>
    </TTGlyph>
    <TTGlyph name="Ugrave" xMin="32" yMin="-12" xMax="740" yMax="898">
      <contour>
        <pt x="287" y="898" on="1"/>
        <pt x="441" y="789" on="1"/>
        <pt x="441" y="785" on="0"/>
        <pt x="429" y="772" on="0"/>
        <pt x="418" y="769" on="1"/>
        <pt x="230" y="845" on="1"/>
        <pt x="232" y="855" on="0"/>
        <pt x="279" y="898" on="0"/>
      </contour>
      <contour>
        <pt x="619" y="709" on="1"/>
        <pt x="732" y="712" on="1"/>
        <pt x="740" y="668" on="1"/>
        <pt x="683" y="662" on="0"/>
        <pt x="657" y="650" on="0"/>
        <pt x="657" y="629" on="1"/>
        <pt x="657" y="257" on="1"/>
        <pt x="657" y="-12" on="0"/>
        <pt x="402" y="-12" on="1"/>
        <pt x="256" y="-12" on="0"/>
        <pt x="105" y="113" on="0"/>
        <pt x="105" y="250" on="1"/>
        <pt x="105" y="630" on="1"/>
        <pt x="105" y="650" on="0"/>
        <pt x="81" y="665" on="0"/>
        <pt x="41" y="669" on="1"/>
        <pt x="32" y="713" on="1"/>
        <pt x="149" y="710" on="1"/>
        <pt x="269" y="713" on="1"/>
        <pt x="277" y="669" on="1"/>
        <pt x="221" y="663" on="0"/>
        <pt x="196" y="652" on="0"/>
        <pt x="196" y="630" on="1"/>
        <pt x="196" y="262" on="1"/>
        <pt x="196" y="38" on="0"/>
        <pt x="421" y="38" on="1"/>
        <pt x="509" y="38" on="0"/>
        <pt x="597" y="148" on="0"/>
        <pt x="597" y="247" on="1"/>
        <pt x="597" y="629" on="1"/>
        <pt x="597" y="650" on="0"/>
        <pt x="566" y="664" on="0"/>
        <pt x="511" y="668" on="1"/>
        <pt x="502" y="712" on="1"/>
      </contour>
    </TTGlyph>
    <TTGlyph name="V" xMin="12" yMin="0" xMax="708" yMax="710">
      <contour>
        <pt x="594" y="706" on="1"/>
        <pt x="698" y="710" on="1"/>
        <pt x="708" y="667" on="1"/>
        <pt x="702" y="667" on="1"/>
        <pt x="657" y="662" on="0"/>
        <pt x="607" y="619" on="0"/>
        <pt x="590" y="571" on="1"/>
        <pt x="378" y="0" on="1"/>
        <pt x="330" y="0" on="1"/>
        <pt x="114" y="587" on="1"/>
        <pt x="91" y="636" on="0"/>
        <pt x="59" y="666" on="0"/>
        <pt x="23" y="666" on="1"/>
        <pt x="12" y="710" on="1"/>
        <pt x="90" y="705" on="0"/>
        <pt x="215" y="705" on="0"/>
        <pt x="274" y="710" on="1"/>
        <pt x="283" y="667" on="1"/>
        <pt x="279" y="667" on="1"/>
        <pt x="200" y="666" on="0"/>
        <pt x="200" y="639" on="1"/>
        <pt x="200" y="629" on="0"/>
        <pt x="207" y="614" on="1"/>
        <pt x="386" y="145" on="1"/>
        <pt x="550" y="597" on="1"/>
        <pt x="553" y="609" on="0"/>
        <pt x="553" y="618" on="1"/>
        <pt x="553" y="662" on="0"/>
        <pt x="469" y="667" on="1"/>
        <pt x="457" y="710" on="1"/>
      </contour>
    </TTGlyph>
    <TTGlyph name="W" xMin="12" yMin="0" xMax="1046" yMax="710">
      <contour>
        <pt x="932" y="706" on="1"/>
        <pt x="1036" y="710" on="1"/>
        <pt x="1046" y="664" on="1"/>
        <pt x="1040" y="664" on="1"/>
        <pt x="994" y="659" on="0"/>
        <pt x="945" y="618" on="0"/>
        <pt x="928" y="571" on="1"/>
        <pt x="716" y="0" on="1"/>
        <pt x="668" y="0" on="1"/>
        <pt x="524" y="391" on="1"/>
        <pt x="378" y="0" on="1"/>
        <pt x="330" y="0" on="1"/>
        <pt x="114" y="587" on="1"/>
        <pt x="91" y="636" on="0"/>
        <pt x="59" y="666" on="0"/>
        <pt x="23" y="666" on="1"/>
        <pt x="12" y="710" on="1"/>
        <pt x="90" y="705" on="0"/>
        <pt x="215" y="705" on="0"/>
        <pt x="274" y="710" on="1"/>
        <pt x="283" y="667" on="1"/>
        <pt x="279" y="667" on="1"/>
        <pt x="200" y="666" on="0"/>
        <pt x="200" y="639" on="1"/>
        <pt x="200" y="629" on="0"/>
        <pt x="207" y="614" on="1"/>
        <pt x="386" y="145" on="1"/>
        <pt x="500" y="457" on="1"/>
        <pt x="452" y="587" on="1"/>
        <pt x="429" y="636" on="0"/>
        <pt x="397" y="666" on="0"/>
        <pt x="361" y="666" on="1"/>
        <pt x="350" y="710" on="1"/>
        <pt x="428" y="705" on="0"/>
        <pt x="553" y="705" on="0"/>
        <pt x="612" y="710" on="1"/>
        <pt x="621" y="667" on="1"/>
        <pt x="617" y="667" on="1"/>
        <pt x="538" y="666" on="0"/>
        <pt x="538" y="639" on="1"/>
        <pt x="538" y="629" on="0"/>
        <pt x="545" y="614" on="1"/>
        <pt x="724" y="145" on="1"/>
        <pt x="888" y="597" on="1"/>
        <pt x="891" y="609" on="0"/>
        <pt x="891" y="618" on="1"/>
        <pt x="891" y="639" on="0"/>
        <pt x="853" y="661" on="0"/>
        <pt x="807" y="664" on="1"/>
        <pt x="795" y="710" on="1"/>
      </contour>
    </TTGlyph>
    <TTGlyph name="X" xMin="7" yMin="-4" xMax="699" yMax="710">
      <contour>
        <pt x="566" y="706" on="1"/>
        <pt x="677" y="710" on="1"/>
        <pt x="687" y="666" on="1"/>
        <pt x="681" y="666" on="1"/>
        <pt x="614" y="666" on="0"/>
        <pt x="582" y="623" on="1"/>
        <pt x="394" y="371" on="1"/>
        <pt x="582" y="116" on="1"/>
        <pt x="617" y="70" on="0"/>
        <pt x="656" y="40" on="0"/>
        <pt x="688" y="40" on="1"/>
        <pt x="699" y="-4" on="1"/>
        <pt x="621" y="1" on="0"/>
        <pt x="496" y="1" on="0"/>
        <pt x="437" y="-4" on="1"/>
        <pt x="428" y="40" on="1"/>
        <pt x="432" y="40" on="1"/>
        <pt x="504" y="40" on="0"/>
        <pt x="504" y="66" on="1"/>
        <pt x="504" y="77" on="0"/>
        <pt x="495" y="92" on="1"/>
        <pt x="336" y="305" on="1"/>
        <pt x="191" y="106" on="1"/>
        <pt x="177" y="89" on="0"/>
        <pt x="177" y="76" on="1"/>
        <pt x="177" y="48" on="0"/>
        <pt x="246" y="40" on="1"/>
        <pt x="258" y="-4" on="1"/>
        <pt x="128" y="0" on="1"/>
        <pt x="17" y="-4" on="1"/>
        <pt x="7" y="40" on="1"/>
        <pt x="13" y="40" on="1"/>
        <pt x="84" y="40" on="0"/>
        <pt x="112" y="83" on="1"/>
        <pt x="308" y="343" on="1"/>
        <pt x="138" y="590" on="1"/>
        <pt x="108" y="634" on="0"/>
        <pt x="65" y="666" on="0"/>
        <pt x="32" y="666" on="1"/>
        <pt x="21" y="710" on="1"/>
        <pt x="99" y="705" on="0"/>
        <pt x="224" y="705" on="0"/>
        <pt x="283" y="710" on="1"/>
        <pt x="292" y="666" on="1"/>
        <pt x="288" y="666" on="1"/>
        <pt x="216" y="666" on="0"/>
        <pt x="216" y="640" on="1"/>
        <pt x="216" y="629" on="0"/>
        <pt x="225" y="614" on="1"/>
        <pt x="365" y="407" on="1"/>
        <pt x="503" y="600" on="1"/>
        <pt x="516" y="619" on="0"/>
        <pt x="516" y="632" on="1"/>
        <pt x="516" y="660" on="0"/>
        <pt x="448" y="666" on="1"/>
        <pt x="436" y="710" on="1"/>
      </contour>
    </TTGlyph>
    <TTGlyph name="Y" xMin="0" yMin="-3" xMax="704" yMax="710">
      <contour>
        <pt x="494" y="-3" on="1"/>
        <pt x="368" y="0" on="1"/>
        <pt x="367" y="0" on="0"/>
        <pt x="235" y="-3" on="1"/>
        <pt x="227" y="41" on="1"/>
        <pt x="288" y="47" on="0"/>
        <pt x="312" y="58" on="0"/>
        <pt x="312" y="80" on="1"/>
        <pt x="312" y="315" on="1"/>
        <pt x="117" y="590" on="1"/>
        <pt x="87" y="634" on="0"/>
        <pt x="44" y="666" on="0"/>
        <pt x="11" y="666" on="1"/>
        <pt x="0" y="710" on="1"/>
        <pt x="78" y="705" on="0"/>
        <pt x="203" y="705" on="0"/>
        <pt x="262" y="710" on="1"/>
        <pt x="271" y="666" on="1"/>
        <pt x="267" y="666" on="1"/>
        <pt x="195" y="666" on="0"/>
        <pt x="195" y="640" on="1"/>
        <pt x="195" y="629" on="0"/>
        <pt x="204" y="614" on="1"/>
        <pt x="376" y="372" on="1"/>
        <pt x="520" y="600" on="1"/>
        <pt x="533" y="619" on="0"/>
        <pt x="533" y="632" on="1"/>
        <pt x="533" y="660" on="0"/>
        <pt x="465" y="666" on="1"/>
        <pt x="453" y="710" on="1"/>
        <pt x="583" y="706" on="1"/>
        <pt x="694" y="710" on="1"/>
        <pt x="704" y="666" on="1"/>
        <pt x="698" y="666" on="1"/>
        <pt x="629" y="666" on="0"/>
        <pt x="599" y="623" on="1"/>
        <pt x="403" y="333" on="1"/>
        <pt x="403" y="80" on="1"/>
        <pt x="403" y="59" on="0"/>
        <pt x="433" y="45" on="0"/>
        <pt x="485" y="41" on="1"/>
      </contour>
    </TTGlyph>
    <TTGlyph name="Yacute" xMin="0" yMin="-3" xMax="704" yMax="900">
      <contour>
        <pt x="332" y="791" on="1"/>
        <pt x="486" y="900" on="1"/>
        <pt x="495" y="900" on="0"/>
        <pt x="539" y="857" on="0"/>
        <pt x="543" y="847" on="1"/>
        <pt x="355" y="771" on="1"/>
        <pt x="344" y="774" on="0"/>
        <pt x="332" y="787" on="0"/>
      </contour>
      <contour>
        <pt x="494" y="-3" on="1"/>
        <pt x="368" y="0" on="1"/>
        <pt x="367" y="0" on="0"/>
        <pt x="235" y="-3" on="1"/>
        <pt x="227" y="41" on="1"/>
        <pt x="288" y="47" on="0"/>
        <pt x="312" y="58" on="0"/>
        <pt x="312" y="80" on="1"/>
        <pt x="312" y="315" on="1"/>
        <pt x="117" y="590" on="1"/>
        <pt x="87" y="634" on="0"/>
        <pt x="44" y="666" on="0"/>
        <pt x="11" y="666" on="1"/>
        <pt x="0" y="710" on="1"/>
        <pt x="78" y="705" on="0"/>
        <pt x="203" y="705" on="0"/>
        <pt x="262" y="710" on="1"/>
        <pt x="271" y="666" on="1"/>
        <pt x="267" y="666" on="1"/>
        <pt x="195" y="666" on="0"/>
        <pt x="195" y="640" on="1"/>
        <pt x="195" y="629" on="0"/>
        <pt x="204" y="614" on="1"/>
        <pt x="376" y="372" on="1"/>
        <pt x="520" y="600" on="1"/>
        <pt x="533" y="619" on="0"/>
        <pt x="533" y="632" on="1"/>
        <pt x="533" y="660" on="0"/>
        <pt x="465" y="666" on="1"/>
        <pt x="453" y="710" on="1"/>
        <pt x="583" y="706" on="1"/>
        <pt x="694" y="710" on="1"/>
        <pt x="704" y="666" on="1"/>
        <pt x="698" y="666" on="1"/>
        <pt x="629" y="666" on="0"/>
        <pt x="599" y="623" on="1"/>
        <pt x="403" y="333" on="1"/>
        <pt x="403" y="80" on="1"/>
        <pt x="403" y="59" on="0"/>
        <pt x="433" y="45" on="0"/>
        <pt x="485" y="41" on="1"/>
      </contour>
    </TTGlyph>
    <TTGlyph name="Ydieresis" xMin="0" yMin="-3" xMax="704" yMax="890">
      <contour>
        <pt x="494" y="-3" on="1"/>
        <pt x="368" y="0" on="1"/>
        <pt x="367" y="0" on="0"/>
        <pt x="235" y="-3" on="1"/>
        <pt x="227" y="41" on="1"/>
        <pt x="288" y="47" on="0"/>
        <pt x="312" y="58" on="0"/>
        <pt x="312" y="80" on="1"/>
        <pt x="312" y="315" on="1"/>
        <pt x="117" y="590" on="1"/>
        <pt x="87" y="634" on="0"/>
        <pt x="44" y="666" on="0"/>
        <pt x="11" y="666" on="1"/>
        <pt x="0" y="710" on="1"/>
        <pt x="78" y="705" on="0"/>
        <pt x="203" y="705" on="0"/>
        <pt x="262" y="710" on="1"/>
        <pt x="271" y="666" on="1"/>
        <pt x="267" y="666" on="1"/>
        <pt x="195" y="666" on="0"/>
        <pt x="195" y="640" on="1"/>
        <pt x="195" y="629" on="0"/>
        <pt x="204" y="614" on="1"/>
        <pt x="376" y="372" on="1"/>
        <pt x="520" y="600" on="1"/>
        <pt x="533" y="619" on="0"/>
        <pt x="533" y="632" on="1"/>
        <pt x="533" y="660" on="0"/>
        <pt x="465" y="666" on="1"/>
        <pt x="453" y="710" on="1"/>
        <pt x="583" y="706" on="1"/>
        <pt x="694" y="710" on="1"/>
        <pt x="704" y="666" on="1"/>
        <pt x="698" y="666" on="1"/>
        <pt x="629" y="666" on="0"/>
        <pt x="599" y="623" on="1"/>
        <pt x="403" y="333" on="1"/>
        <pt x="403" y="80" on="1"/>
        <pt x="403" y="59" on="0"/>
        <pt x="433" y="45" on="0"/>
        <pt x="485" y="41" on="1"/>
      </contour>
      <contour>
        <pt x="258" y="772" on="0"/>
        <pt x="225" y="804" on="0"/>
        <pt x="225" y="854" on="0"/>
        <pt x="260" y="890" on="0"/>
        <pt x="311" y="890" on="0"/>
        <pt x="344" y="859" on="0"/>
        <pt x="344" y="808" on="0"/>
        <pt x="310" y="772" on="0"/>
      </contour>
      <contour>
        <pt x="435" y="772" on="0"/>
        <pt x="402" y="804" on="0"/>
        <pt x="402" y="854" on="0"/>
        <pt x="436" y="890" on="0"/>
        <pt x="487" y="890" on="0"/>
        <pt x="520" y="859" on="0"/>
        <pt x="520" y="808" on="0"/>
        <pt x="485" y="772" on="0"/>
      </contour>
    </TTGlyph>
    <TTGlyph name="Z" xMin="50" yMin="-9" xMax="668" yMax="718">
      <contour>
        <pt x="453" y="0" on="1"/>
        <pt x="145" y="0" on="1"/>
        <pt x="87" y="0" on="0"/>
        <pt x="55" y="-9" on="1"/>
        <pt x="50" y="-1" on="0"/>
        <pt x="50" y="9" on="1"/>
        <pt x="510" y="660" on="0"/>
        <pt x="510" y="665" on="0"/>
        <pt x="503" y="665" on="1"/>
        <pt x="279" y="665" on="1"/>
        <pt x="229" y="665" on="0"/>
        <pt x="204" y="660" on="1"/>
        <pt x="136" y="646" on="0"/>
        <pt x="117" y="537" on="1"/>
        <pt x="89" y="535" on="1"/>
        <pt x="82" y="570" on="0"/>
        <pt x="82" y="693" on="0"/>
        <pt x="89" y="717" on="1"/>
        <pt x="110" y="710" on="0"/>
        <pt x="168" y="710" on="1"/>
        <pt x="581" y="710" on="1"/>
        <pt x="626" y="710" on="0"/>
        <pt x="655" y="718" on="1"/>
        <pt x="660" y="710" on="0"/>
        <pt x="660" y="700" on="1"/>
        <pt x="412" y="358" on="0"/>
        <pt x="213" y="64" on="0"/>
        <pt x="211" y="53" on="1"/>
        <pt x="211" y="51" on="0"/>
        <pt x="213" y="51" on="1"/>
        <pt x="512" y="51" on="1"/>
        <pt x="564" y="51" on="0"/>
        <pt x="613" y="115" on="0"/>
        <pt x="622" y="192" on="1"/>
        <pt x="663" y="195" on="1"/>
        <pt x="668" y="140" on="0"/>
        <pt x="668" y="29" on="0"/>
        <pt x="661" y="-3" on="1"/>
        <pt x="584" y="0" on="0"/>
      </contour>
    </TTGlyph>
    <TTGlyph name="a" xMin="46" yMin="-12" xMax="443" yMax="442">
      <contour>
        <pt x="205" y="44" on="1"/>
        <pt x="256" y="44" on="0"/>
        <pt x="281" y="78" on="1"/>
        <pt x="281" y="190" on="1"/>
        <pt x="195" y="175" on="0"/>
        <pt x="137" y="138" on="0"/>
        <pt x="137" y="104" on="1"/>
        <pt x="139" y="73" on="0"/>
        <pt x="177" y="44" on="0"/>
      </contour>
      <contour>
        <pt x="408" y="50" on="1"/>
        <pt x="429" y="50" on="1"/>
        <pt x="434" y="50" on="0"/>
        <pt x="436" y="51" on="1"/>
        <pt x="440" y="25" on="0"/>
        <pt x="443" y="19" on="1"/>
        <pt x="431" y="13" on="0"/>
        <pt x="346" y="-12" on="0"/>
        <pt x="306" y="-12" on="0"/>
        <pt x="290" y="17" on="0"/>
        <pt x="286" y="54" on="1"/>
        <pt x="269" y="30" on="0"/>
        <pt x="202" y="-10" on="0"/>
        <pt x="168" y="-12" on="1"/>
        <pt x="163" y="-12" on="1"/>
        <pt x="115" y="-12" on="0"/>
        <pt x="46" y="42" on="0"/>
        <pt x="46" y="144" on="0"/>
        <pt x="141" y="199" on="0"/>
        <pt x="281" y="225" on="1"/>
        <pt x="281" y="285" on="1"/>
        <pt x="281" y="393" on="0"/>
        <pt x="200" y="393" on="1"/>
        <pt x="172" y="393" on="0"/>
        <pt x="147" y="379" on="1"/>
        <pt x="147" y="311" on="1"/>
        <pt x="147" y="306" on="0"/>
        <pt x="94" y="296" on="0"/>
        <pt x="77" y="296" on="0"/>
        <pt x="69" y="298" on="1"/>
        <pt x="61" y="306" on="0"/>
        <pt x="61" y="362" on="0"/>
        <pt x="77" y="380" on="1"/>
        <pt x="92" y="400" on="0"/>
        <pt x="206" y="442" on="0"/>
        <pt x="238" y="442" on="1"/>
        <pt x="364" y="442" on="0"/>
        <pt x="364" y="300" on="1"/>
        <pt x="364" y="100" on="1"/>
        <pt x="364" y="68" on="0"/>
        <pt x="389" y="50" on="0"/>
      </contour>
    </TTGlyph>
    <TTGlyph name="aacute" xMin="46" yMin="-12" xMax="443" yMax="716">
      <contour>
        <pt x="205" y="44" on="1"/>
        <pt x="256" y="44" on="0"/>
        <pt x="281" y="78" on="1"/>
        <pt x="281" y="190" on="1"/>
        <pt x="195" y="175" on="0"/>
        <pt x="137" y="138" on="0"/>
        <pt x="137" y="104" on="1"/>
        <pt x="139" y="73" on="0"/>
        <pt x="177" y="44" on="0"/>
      </contour>
      <contour>
        <pt x="408" y="50" on="1"/>
        <pt x="429" y="50" on="1"/>
        <pt x="434" y="50" on="0"/>
        <pt x="436" y="51" on="1"/>
        <pt x="440" y="25" on="0"/>
        <pt x="443" y="19" on="1"/>
        <pt x="431" y="13" on="0"/>
        <pt x="346" y="-12" on="0"/>
        <pt x="306" y="-12" on="0"/>
        <pt x="290" y="17" on="0"/>
        <pt x="286" y="54" on="1"/>
        <pt x="269" y="30" on="0"/>
        <pt x="202" y="-10" on="0"/>
        <pt x="168" y="-12" on="1"/>
        <pt x="163" y="-12" on="1"/>
        <pt x="115" y="-12" on="0"/>
        <pt x="46" y="42" on="0"/>
        <pt x="46" y="144" on="0"/>
        <pt x="141" y="199" on="0"/>
        <pt x="281" y="225" on="1"/>
        <pt x="281" y="285" on="1"/>
        <pt x="281" y="393" on="0"/>
        <pt x="200" y="393" on="1"/>
        <pt x="172" y="393" on="0"/>
        <pt x="147" y="379" on="1"/>
        <pt x="147" y="311" on="1"/>
        <pt x="147" y="306" on="0"/>
        <pt x="94" y="296" on="0"/>
        <pt x="77" y="296" on="0"/>
        <pt x="69" y="298" on="1"/>
        <pt x="61" y="306" on="0"/>
        <pt x="61" y="362" on="0"/>
        <pt x="77" y="380" on="1"/>
        <pt x="92" y="400" on="0"/>
        <pt x="206" y="442" on="0"/>
        <pt x="238" y="442" on="1"/>
        <pt x="364" y="442" on="0"/>
        <pt x="364" y="300" on="1"/>
        <pt x="364" y="100" on="1"/>
        <pt x="364" y="68" on="0"/>
        <pt x="389" y="50" on="0"/>
      </contour>
      <contour>
        <pt x="157" y="535" on="1"/>
        <pt x="244" y="716" on="1"/>
        <pt x="261" y="716" on="0"/>
        <pt x="290" y="706" on="1"/>
        <pt x="338" y="688" on="0"/>
        <pt x="338" y="681" on="1"/>
        <pt x="180" y="515" on="1"/>
        <pt x="169" y="518" on="0"/>
        <pt x="157" y="531" on="0"/>
      </contour>
    </TTGlyph>
    <TTGlyph name="acircumflex" xMin="46" yMin="-12" xMax="443" yMax="707">
      <contour>
        <pt x="205" y="44" on="1"/>
        <pt x="256" y="44" on="0"/>
        <pt x="281" y="78" on="1"/>
        <pt x="281" y="190" on="1"/>
        <pt x="195" y="175" on="0"/>
        <pt x="137" y="138" on="0"/>
        <pt x="137" y="104" on="1"/>
        <pt x="139" y="73" on="0"/>
        <pt x="177" y="44" on="0"/>
      </contour>
      <contour>
        <pt x="408" y="50" on="1"/>
        <pt x="429" y="50" on="1"/>
        <pt x="434" y="50" on="0"/>
        <pt x="436" y="51" on="1"/>
        <pt x="440" y="25" on="0"/>
        <pt x="443" y="19" on="1"/>
        <pt x="431" y="13" on="0"/>
        <pt x="346" y="-12" on="0"/>
        <pt x="306" y="-12" on="0"/>
        <pt x="290" y="17" on="0"/>
        <pt x="286" y="54" on="1"/>
        <pt x="269" y="30" on="0"/>
        <pt x="202" y="-10" on="0"/>
        <pt x="168" y="-12" on="1"/>
        <pt x="163" y="-12" on="1"/>
        <pt x="115" y="-12" on="0"/>
        <pt x="46" y="42" on="0"/>
        <pt x="46" y="144" on="0"/>
        <pt x="141" y="199" on="0"/>
        <pt x="281" y="225" on="1"/>
        <pt x="281" y="285" on="1"/>
        <pt x="281" y="393" on="0"/>
        <pt x="200" y="393" on="1"/>
        <pt x="172" y="393" on="0"/>
        <pt x="147" y="379" on="1"/>
        <pt x="147" y="311" on="1"/>
        <pt x="147" y="306" on="0"/>
        <pt x="94" y="296" on="0"/>
        <pt x="77" y="296" on="0"/>
        <pt x="69" y="298" on="1"/>
        <pt x="61" y="306" on="0"/>
        <pt x="61" y="362" on="0"/>
        <pt x="77" y="380" on="1"/>
        <pt x="92" y="400" on="0"/>
        <pt x="206" y="442" on="0"/>
        <pt x="238" y="442" on="1"/>
        <pt x="364" y="442" on="0"/>
        <pt x="364" y="300" on="1"/>
        <pt x="364" y="100" on="1"/>
        <pt x="364" y="68" on="0"/>
        <pt x="389" y="50" on="0"/>
      </contour>
      <contour>
        <pt x="254" y="707" on="1"/>
        <pt x="256" y="707" on="0"/>
        <pt x="260" y="700" on="1"/>
        <pt x="354" y="526" on="1"/>
        <pt x="354" y="522" on="0"/>
        <pt x="342" y="509" on="0"/>
        <pt x="331" y="506" on="1"/>
        <pt x="221" y="631" on="1"/>
        <pt x="112" y="506" on="1"/>
        <pt x="101" y="509" on="0"/>
        <pt x="89" y="522" on="0"/>
        <pt x="89" y="526" on="1"/>
        <pt x="185" y="705" on="1"/>
        <pt x="233" y="707" on="0"/>
      </contour>
    </TTGlyph>
    <TTGlyph name="acute" xMin="40" yMin="515" xMax="221" yMax="716">
      <contour>
        <pt x="40" y="535" on="1"/>
        <pt x="127" y="716" on="1"/>
        <pt x="144" y="716" on="0"/>
        <pt x="172" y="706" on="1"/>
        <pt x="221" y="688" on="0"/>
        <pt x="221" y="681" on="1"/>
        <pt x="63" y="515" on="1"/>
        <pt x="52" y="518" on="0"/>
        <pt x="40" y="531" on="0"/>
      </contour>
    </TTGlyph>
    <TTGlyph name="acute.cap" xMin="30" yMin="585" xMax="241" yMax="714">
      <contour>
        <pt x="30" y="605" on="1"/>
        <pt x="184" y="714" on="1"/>
        <pt x="193" y="714" on="0"/>
        <pt x="237" y="671" on="0"/>
        <pt x="241" y="661" on="1"/>
        <pt x="53" y="585" on="1"/>
        <pt x="42" y="588" on="0"/>
        <pt x="30" y="601" on="0"/>
      </contour>
    </TTGlyph>
    <TTGlyph name="adieresis" xMin="46" yMin="-12" xMax="443" yMax="659">
      <contour>
        <pt x="205" y="44" on="1"/>
        <pt x="256" y="44" on="0"/>
        <pt x="281" y="78" on="1"/>
        <pt x="281" y="190" on="1"/>
        <pt x="195" y="175" on="0"/>
        <pt x="137" y="138" on="0"/>
        <pt x="137" y="104" on="1"/>
        <pt x="139" y="73" on="0"/>
        <pt x="177" y="44" on="0"/>
      </contour>
      <contour>
        <pt x="408" y="50" on="1"/>
        <pt x="429" y="50" on="1"/>
        <pt x="434" y="50" on="0"/>
        <pt x="436" y="51" on="1"/>
        <pt x="440" y="25" on="0"/>
        <pt x="443" y="19" on="1"/>
        <pt x="431" y="13" on="0"/>
        <pt x="346" y="-12" on="0"/>
        <pt x="306" y="-12" on="0"/>
        <pt x="290" y="17" on="0"/>
        <pt x="286" y="54" on="1"/>
        <pt x="269" y="30" on="0"/>
        <pt x="202" y="-10" on="0"/>
        <pt x="168" y="-12" on="1"/>
        <pt x="163" y="-12" on="1"/>
        <pt x="115" y="-12" on="0"/>
        <pt x="46" y="42" on="0"/>
        <pt x="46" y="144" on="0"/>
        <pt x="141" y="199" on="0"/>
        <pt x="281" y="225" on="1"/>
        <pt x="281" y="285" on="1"/>
        <pt x="281" y="393" on="0"/>
        <pt x="200" y="393" on="1"/>
        <pt x="172" y="393" on="0"/>
        <pt x="147" y="379" on="1"/>
        <pt x="147" y="311" on="1"/>
        <pt x="147" y="306" on="0"/>
        <pt x="94" y="296" on="0"/>
        <pt x="77" y="296" on="0"/>
        <pt x="69" y="298" on="1"/>
        <pt x="61" y="306" on="0"/>
        <pt x="61" y="362" on="0"/>
        <pt x="77" y="380" on="1"/>
        <pt x="92" y="400" on="0"/>
        <pt x="206" y="442" on="0"/>
        <pt x="238" y="442" on="1"/>
        <pt x="364" y="442" on="0"/>
        <pt x="364" y="300" on="1"/>
        <pt x="364" y="100" on="1"/>
        <pt x="364" y="68" on="0"/>
        <pt x="389" y="50" on="0"/>
      </contour>
      <contour>
        <pt x="106" y="541" on="0"/>
        <pt x="73" y="573" on="0"/>
        <pt x="73" y="623" on="0"/>
        <pt x="108" y="659" on="0"/>
        <pt x="159" y="659" on="0"/>
        <pt x="192" y="628" on="0"/>
        <pt x="192" y="577" on="0"/>
        <pt x="158" y="541" on="0"/>
      </contour>
      <contour>
        <pt x="283" y="541" on="0"/>
        <pt x="250" y="573" on="0"/>
        <pt x="250" y="623" on="0"/>
        <pt x="284" y="659" on="0"/>
        <pt x="335" y="659" on="0"/>
        <pt x="368" y="628" on="0"/>
        <pt x="368" y="577" on="0"/>
        <pt x="333" y="541" on="0"/>
      </contour>
    </TTGlyph>
    <TTGlyph name="ae" xMin="46" yMin="-12" xMax="662" yMax="443">
      <contour>
        <pt x="345" y="380" on="1"/>
        <pt x="406" y="443" on="0"/>
        <pt x="492" y="443" on="1"/>
        <pt x="547" y="443" on="0"/>
        <pt x="586" y="409" on="1"/>
        <pt x="640" y="363" on="0"/>
        <pt x="657" y="276" on="1"/>
        <pt x="660" y="266" on="0"/>
        <pt x="654" y="264" on="1"/>
        <pt x="370" y="213" on="1"/>
        <pt x="370" y="201" on="1"/>
        <pt x="379" y="50" on="0"/>
        <pt x="522" y="50" on="1"/>
        <pt x="551" y="50" on="0"/>
        <pt x="612" y="76" on="0"/>
        <pt x="630" y="94" on="1"/>
        <pt x="633" y="97" on="0"/>
        <pt x="637" y="97" on="0"/>
        <pt x="640" y="94" on="1"/>
        <pt x="662" y="69" on="1"/>
        <pt x="587" y="-12" on="0"/>
        <pt x="494" y="-12" on="1"/>
        <pt x="381" y="-12" on="0"/>
        <pt x="326" y="66" on="1"/>
        <pt x="254" y="-12" on="0"/>
        <pt x="168" y="-12" on="1"/>
        <pt x="163" y="-12" on="1"/>
        <pt x="115" y="-12" on="0"/>
        <pt x="46" y="42" on="0"/>
        <pt x="46" y="144" on="0"/>
        <pt x="144" y="201" on="0"/>
        <pt x="282" y="229" on="1"/>
        <pt x="281" y="285" on="1"/>
        <pt x="281" y="393" on="0"/>
        <pt x="200" y="393" on="1"/>
        <pt x="172" y="393" on="0"/>
        <pt x="147" y="379" on="1"/>
        <pt x="147" y="311" on="1"/>
        <pt x="147" y="306" on="0"/>
        <pt x="94" y="296" on="0"/>
        <pt x="82" y="296" on="1"/>
        <pt x="61" y="296" on="0"/>
        <pt x="61" y="362" on="0"/>
        <pt x="77" y="380" on="1"/>
        <pt x="92" y="400" on="0"/>
        <pt x="206" y="442" on="0"/>
        <pt x="238" y="442" on="1"/>
        <pt x="313" y="442" on="0"/>
      </contour>
      <contour>
        <pt x="472" y="401" on="1"/>
        <pt x="417" y="401" on="0"/>
        <pt x="391" y="348" on="1"/>
        <pt x="372" y="310" on="0"/>
        <pt x="372" y="259" on="1"/>
        <pt x="372" y="254" on="0"/>
        <pt x="372" y="249" on="1"/>
        <pt x="559" y="290" on="1"/>
        <pt x="550" y="349" on="0"/>
        <pt x="502" y="401" on="0"/>
      </contour>
      <contour>
        <pt x="263" y="43" on="0"/>
        <pt x="311" y="91" on="1"/>
        <pt x="288" y="134" on="0"/>
        <pt x="283" y="195" on="1"/>
        <pt x="199" y="176" on="0"/>
        <pt x="137" y="134" on="0"/>
        <pt x="137" y="100" on="1"/>
        <pt x="141" y="43" on="0"/>
        <pt x="211" y="43" on="1"/>
      </contour>
    </TTGlyph>
    <TTGlyph name="agrave" xMin="46" yMin="-12" xMax="443" yMax="716">
      <contour>
        <pt x="205" y="44" on="1"/>
        <pt x="256" y="44" on="0"/>
        <pt x="281" y="78" on="1"/>
        <pt x="281" y="190" on="1"/>
        <pt x="195" y="175" on="0"/>
        <pt x="137" y="138" on="0"/>
        <pt x="137" y="104" on="1"/>
        <pt x="139" y="73" on="0"/>
        <pt x="177" y="44" on="0"/>
      </contour>
      <contour>
        <pt x="408" y="50" on="1"/>
        <pt x="429" y="50" on="1"/>
        <pt x="434" y="50" on="0"/>
        <pt x="436" y="51" on="1"/>
        <pt x="440" y="25" on="0"/>
        <pt x="443" y="19" on="1"/>
        <pt x="431" y="13" on="0"/>
        <pt x="346" y="-12" on="0"/>
        <pt x="306" y="-12" on="0"/>
        <pt x="290" y="17" on="0"/>
        <pt x="286" y="54" on="1"/>
        <pt x="269" y="30" on="0"/>
        <pt x="202" y="-10" on="0"/>
        <pt x="168" y="-12" on="1"/>
        <pt x="163" y="-12" on="1"/>
        <pt x="115" y="-12" on="0"/>
        <pt x="46" y="42" on="0"/>
        <pt x="46" y="144" on="0"/>
        <pt x="141" y="199" on="0"/>
        <pt x="281" y="225" on="1"/>
        <pt x="281" y="285" on="1"/>
        <pt x="281" y="393" on="0"/>
        <pt x="200" y="393" on="1"/>
        <pt x="172" y="393" on="0"/>
        <pt x="147" y="379" on="1"/>
        <pt x="147" y="311" on="1"/>
        <pt x="147" y="306" on="0"/>
        <pt x="94" y="296" on="0"/>
        <pt x="77" y="296" on="0"/>
        <pt x="69" y="298" on="1"/>
        <pt x="61" y="306" on="0"/>
        <pt x="61" y="362" on="0"/>
        <pt x="77" y="380" on="1"/>
        <pt x="92" y="400" on="0"/>
        <pt x="206" y="442" on="0"/>
        <pt x="238" y="442" on="1"/>
        <pt x="364" y="442" on="0"/>
        <pt x="364" y="300" on="1"/>
        <pt x="364" y="100" on="1"/>
        <pt x="364" y="68" on="0"/>
        <pt x="389" y="50" on="0"/>
      </contour>
      <contour>
        <pt x="194" y="716" on="1"/>
        <pt x="281" y="535" on="1"/>
        <pt x="281" y="531" on="0"/>
        <pt x="269" y="518" on="0"/>
        <pt x="258" y="515" on="1"/>
        <pt x="100" y="681" on="1"/>
        <pt x="100" y="688" on="0"/>
        <pt x="177" y="716" on="0"/>
      </contour>
    </TTGlyph>
    <TTGlyph name="ampersand" xMin="45" yMin="-12" xMax="809" yMax="721">
      <contour>
        <pt x="602" y="448" on="1"/>
        <pt x="722" y="451" on="1"/>
        <pt x="730" y="407" on="1"/>
        <pt x="659" y="407" on="0"/>
        <pt x="637" y="366" on="1"/>
        <pt x="624" y="341" on="0"/>
        <pt x="606" y="306" on="1"/>
        <pt x="570" y="233" on="0"/>
        <pt x="549" y="197" on="1"/>
        <pt x="713" y="71" on="1"/>
        <pt x="766" y="38" on="0"/>
        <pt x="796" y="32" on="1"/>
        <pt x="809" y="-3" on="1"/>
        <pt x="728" y="0" on="0"/>
        <pt x="681" y="0" on="0"/>
        <pt x="635" y="-2" on="1"/>
        <pt x="497" y="110" on="1"/>
        <pt x="386" y="-12" on="0"/>
        <pt x="259" y="-12" on="1"/>
        <pt x="164" y="-12" on="0"/>
        <pt x="45" y="95" on="0"/>
        <pt x="45" y="233" on="0"/>
        <pt x="115" y="332" on="0"/>
        <pt x="197" y="383" on="1"/>
        <pt x="169" y="413" on="0"/>
        <pt x="142" y="444" on="0"/>
        <pt x="126" y="478" on="1"/>
        <pt x="108" y="514" on="0"/>
        <pt x="108" y="555" on="1"/>
        <pt x="108" y="624" on="0"/>
        <pt x="212" y="721" on="0"/>
        <pt x="351" y="721" on="0"/>
        <pt x="432" y="650" on="0"/>
        <pt x="432" y="544" on="0"/>
        <pt x="372" y="461" on="0"/>
        <pt x="304" y="414" on="1"/>
        <pt x="511" y="228" on="1"/>
        <pt x="557" y="322" on="0"/>
        <pt x="557" y="367" on="1"/>
        <pt x="557" y="407" on="0"/>
        <pt x="494" y="407" on="1"/>
        <pt x="485" y="451" on="1"/>
      </contour>
      <contour>
        <pt x="148" y="202" on="1"/>
        <pt x="148" y="138" on="0"/>
        <pt x="226" y="53" on="0"/>
        <pt x="291" y="53" on="1"/>
        <pt x="339" y="53" on="0"/>
        <pt x="432" y="110" on="0"/>
        <pt x="458" y="145" on="1"/>
        <pt x="223" y="354" on="1"/>
        <pt x="191" y="329" on="0"/>
        <pt x="148" y="243" on="0"/>
      </contour>
      <contour>
        <pt x="358" y="625" on="0"/>
        <pt x="317" y="673" on="0"/>
        <pt x="244" y="673" on="0"/>
        <pt x="200" y="621" on="0"/>
        <pt x="200" y="585" on="1"/>
        <pt x="200" y="506" on="0"/>
        <pt x="276" y="440" on="1"/>
        <pt x="358" y="509" on="0"/>
        <pt x="358" y="588" on="1"/>
      </contour>
    </TTGlyph>
    <TTGlyph name="aring" xMin="46" yMin="-12" xMax="443" yMax="692">
      <contour>
        <pt x="205" y="44" on="1"/>
        <pt x="256" y="44" on="0"/>
        <pt x="281" y="78" on="1"/>
        <pt x="281" y="190" on="1"/>
        <pt x="195" y="175" on="0"/>
        <pt x="137" y="138" on="0"/>
        <pt x="137" y="104" on="1"/>
        <pt x="139" y="73" on="0"/>
        <pt x="177" y="44" on="0"/>
      </contour>
      <contour>
        <pt x="408" y="50" on="1"/>
        <pt x="429" y="50" on="1"/>
        <pt x="434" y="50" on="0"/>
        <pt x="436" y="51" on="1"/>
        <pt x="440" y="25" on="0"/>
        <pt x="443" y="19" on="1"/>
        <pt x="431" y="13" on="0"/>
        <pt x="346" y="-12" on="0"/>
        <pt x="306" y="-12" on="0"/>
        <pt x="290" y="17" on="0"/>
        <pt x="286" y="54" on="1"/>
        <pt x="269" y="30" on="0"/>
        <pt x="202" y="-10" on="0"/>
        <pt x="168" y="-12" on="1"/>
        <pt x="163" y="-12" on="1"/>
        <pt x="115" y="-12" on="0"/>
        <pt x="46" y="42" on="0"/>
        <pt x="46" y="144" on="0"/>
        <pt x="141" y="199" on="0"/>
        <pt x="281" y="225" on="1"/>
        <pt x="281" y="285" on="1"/>
        <pt x="281" y="393" on="0"/>
        <pt x="200" y="393" on="1"/>
        <pt x="172" y="393" on="0"/>
        <pt x="147" y="379" on="1"/>
        <pt x="147" y="311" on="1"/>
        <pt x="147" y="306" on="0"/>
        <pt x="94" y="296" on="0"/>
        <pt x="77" y="296" on="0"/>
        <pt x="69" y="298" on="1"/>
        <pt x="61" y="306" on="0"/>
        <pt x="61" y="362" on="0"/>
        <pt x="77" y="380" on="1"/>
        <pt x="92" y="400" on="0"/>
        <pt x="206" y="442" on="0"/>
        <pt x="238" y="442" on="1"/>
        <pt x="364" y="442" on="0"/>
        <pt x="364" y="300" on="1"/>
        <pt x="364" y="100" on="1"/>
        <pt x="364" y="68" on="0"/>
        <pt x="389" y="50" on="0"/>
      </contour>
      <contour>
        <pt x="187" y="511" on="0"/>
        <pt x="134" y="563" on="0"/>
        <pt x="134" y="636" on="0"/>
        <pt x="185" y="692" on="0"/>
        <pt x="263" y="692" on="0"/>
        <pt x="316" y="643" on="0"/>
        <pt x="316" y="569" on="0"/>
        <pt x="260" y="511" on="0"/>
      </contour>
      <contour>
        <pt x="209" y="644" on="0"/>
        <pt x="182" y="620" on="0"/>
        <pt x="182" y="586" on="0"/>
        <pt x="209" y="563" on="0"/>
        <pt x="246" y="563" on="0"/>
        <pt x="269" y="588" on="0"/>
        <pt x="269" y="606" on="1"/>
        <pt x="269" y="644" on="0"/>
        <pt x="228" y="644" on="1"/>
      </contour>
    </TTGlyph>
    <TTGlyph name="asciicircum" xMin="53" yMin="289" xMax="485" yMax="693">
      <contour>
        <pt x="236" y="691" on="1"/>
        <pt x="291" y="693" on="1"/>
        <pt x="295" y="693" on="0"/>
        <pt x="298" y="685" on="1"/>
        <pt x="485" y="323" on="1"/>
        <pt x="485" y="319" on="0"/>
        <pt x="477" y="310" on="0"/>
        <pt x="450" y="301" on="1"/>
        <pt x="263" y="610" on="1"/>
        <pt x="88" y="289" on="1"/>
        <pt x="61" y="298" on="0"/>
        <pt x="53" y="307" on="0"/>
        <pt x="53" y="311" on="1"/>
      </contour>
    </TTGlyph>
    <TTGlyph name="asciitilde" xMin="83" yMin="134" xMax="538" yMax="316">
      <contour>
        <pt x="538" y="272" on="1"/>
        <pt x="538" y="223" on="0"/>
        <pt x="481" y="134" on="0"/>
        <pt x="395" y="134" on="0"/>
        <pt x="303" y="194" on="0"/>
        <pt x="223" y="254" on="0"/>
        <pt x="175" y="254" on="0"/>
        <pt x="146" y="234" on="0"/>
        <pt x="140" y="215" on="1"/>
        <pt x="131" y="186" on="0"/>
        <pt x="131" y="145" on="1"/>
        <pt x="117" y="140" on="0"/>
        <pt x="94" y="140" on="0"/>
        <pt x="84" y="143" on="1"/>
        <pt x="83" y="146" on="0"/>
        <pt x="83" y="160" on="1"/>
        <pt x="83" y="220" on="0"/>
        <pt x="139" y="316" on="0"/>
        <pt x="201" y="316" on="1"/>
        <pt x="242" y="316" on="0"/>
        <pt x="333" y="256" on="0"/>
        <pt x="413" y="196" on="0"/>
        <pt x="439" y="196" on="1"/>
        <pt x="488" y="196" on="0"/>
        <pt x="488" y="314" on="1"/>
        <pt x="512" y="314" on="0"/>
        <pt x="535" y="300" on="1"/>
        <pt x="538" y="296" on="0"/>
      </contour>
    </TTGlyph>
    <TTGlyph name="asterisk" xMin="25" yMin="352" xMax="334" yMax="676">
      <contour>
        <pt x="195" y="660" on="1"/>
        <pt x="220" y="676" on="0"/>
        <pt x="234" y="676" on="0"/>
        <pt x="236" y="673" on="1"/>
        <pt x="236" y="668" on="0"/>
        <pt x="212" y="544" on="1"/>
        <pt x="315" y="573" on="0"/>
        <pt x="332" y="580" on="1"/>
        <pt x="334" y="573" on="0"/>
        <pt x="334" y="566" on="0"/>
        <pt x="332" y="558" on="0"/>
        <pt x="319" y="537" on="0"/>
        <pt x="316" y="533" on="0"/>
        <pt x="225" y="506" on="1"/>
        <pt x="330" y="422" on="1"/>
        <pt x="330" y="417" on="0"/>
        <pt x="294" y="408" on="0"/>
        <pt x="281" y="408" on="0"/>
        <pt x="198" y="476" on="1"/>
        <pt x="175" y="365" on="0"/>
        <pt x="175" y="352" on="1"/>
        <pt x="163" y="352" on="0"/>
        <pt x="150" y="365" on="0"/>
        <pt x="138" y="378" on="0"/>
        <pt x="136" y="380" on="1"/>
        <pt x="159" y="487" on="1"/>
        <pt x="29" y="448" on="1"/>
        <pt x="25" y="451" on="0"/>
        <pt x="25" y="465" on="0"/>
        <pt x="27" y="471" on="1"/>
        <pt x="33" y="489" on="0"/>
        <pt x="36" y="495" on="1"/>
        <pt x="51" y="499" on="0"/>
        <pt x="117" y="518" on="0"/>
        <pt x="139" y="524" on="1"/>
        <pt x="49" y="597" on="1"/>
        <pt x="49" y="607" on="0"/>
        <pt x="89" y="617" on="0"/>
        <pt x="92" y="618" on="1"/>
        <pt x="173" y="550" on="1"/>
        <pt x="194" y="648" on="0"/>
      </contour>
    </TTGlyph>
    <TTGlyph name="at" xMin="67" yMin="-188" xMax="801" yMax="580">
      <contour>
        <pt x="425" y="60" on="0"/>
        <pt x="350" y="-8" on="0"/>
        <pt x="284" y="-8" on="0"/>
        <pt x="241" y="37" on="0"/>
        <pt x="241" y="115" on="0"/>
        <pt x="265" y="213" on="0"/>
        <pt x="279" y="244" on="1"/>
        <pt x="308" y="307" on="0"/>
        <pt x="408" y="402" on="0"/>
        <pt x="472" y="402" on="1"/>
        <pt x="501" y="402" on="0"/>
        <pt x="534" y="372" on="1"/>
        <pt x="546" y="411" on="1"/>
        <pt x="574" y="424" on="0"/>
        <pt x="607" y="424" on="1"/>
        <pt x="543" y="73" on="0"/>
        <pt x="543" y="60" on="0"/>
        <pt x="553" y="60" on="1"/>
        <pt x="597" y="60" on="0"/>
        <pt x="714" y="222" on="0"/>
        <pt x="714" y="342" on="1"/>
        <pt x="714" y="438" on="0"/>
        <pt x="609" y="533" on="0"/>
        <pt x="518" y="533" on="1"/>
        <pt x="432" y="533" on="0"/>
        <pt x="340" y="472" on="1"/>
        <pt x="290" y="440" on="0"/>
        <pt x="211" y="348" on="0"/>
        <pt x="159" y="203" on="0"/>
        <pt x="159" y="118" on="1"/>
        <pt x="159" y="-8" on="0"/>
        <pt x="290" y="-161" on="0"/>
        <pt x="396" y="-161" on="1"/>
        <pt x="397" y="-162" on="0"/>
        <pt x="397" y="-166" on="1"/>
        <pt x="397" y="-188" on="0"/>
        <pt x="347" y="-188" on="1"/>
        <pt x="274" y="-188" on="0"/>
        <pt x="203" y="-142" on="1"/>
        <pt x="119" y="-88" on="0"/>
        <pt x="86" y="4" on="1"/>
        <pt x="67" y="57" on="0"/>
        <pt x="67" y="205" on="0"/>
        <pt x="144" y="372" on="0"/>
        <pt x="273" y="500" on="0"/>
        <pt x="451" y="580" on="0"/>
        <pt x="546" y="580" on="1"/>
        <pt x="668" y="580" on="0"/>
        <pt x="801" y="449" on="0"/>
        <pt x="801" y="352" on="1"/>
        <pt x="801" y="286" on="0"/>
        <pt x="737" y="150" on="0"/>
        <pt x="643" y="51" on="0"/>
        <pt x="533" y="-12" on="0"/>
        <pt x="487" y="-12" on="1"/>
        <pt x="458" y="-12" on="0"/>
        <pt x="458" y="21" on="1"/>
        <pt x="458" y="44" on="0"/>
        <pt x="487" y="155" on="1"/>
        <pt x="470" y="125" on="0"/>
      </contour>
      <contour>
        <pt x="513" y="309" on="1"/>
        <pt x="513" y="330" on="0"/>
        <pt x="489" y="360" on="0"/>
        <pt x="468" y="360" on="1"/>
        <pt x="413" y="360" on="0"/>
        <pt x="324" y="203" on="0"/>
        <pt x="324" y="119" on="1"/>
        <pt x="324" y="65" on="0"/>
        <pt x="385" y="65" on="0"/>
        <pt x="458" y="159" on="1"/>
        <pt x="505" y="221" on="0"/>
        <pt x="513" y="301" on="1"/>
      </contour>
    </TTGlyph>
    <TTGlyph name="atilde" xMin="46" yMin="-12" xMax="443" yMax="659">
      <contour>
        <pt x="205" y="44" on="1"/>
        <pt x="256" y="44" on="0"/>
        <pt x="281" y="78" on="1"/>
        <pt x="281" y="190" on="1"/>
        <pt x="195" y="175" on="0"/>
        <pt x="137" y="138" on="0"/>
        <pt x="137" y="104" on="1"/>
        <pt x="139" y="73" on="0"/>
        <pt x="177" y="44" on="0"/>
      </contour>
      <contour>
        <pt x="408" y="50" on="1"/>
        <pt x="429" y="50" on="1"/>
        <pt x="434" y="50" on="0"/>
        <pt x="436" y="51" on="1"/>
        <pt x="440" y="25" on="0"/>
        <pt x="443" y="19" on="1"/>
        <pt x="431" y="13" on="0"/>
        <pt x="346" y="-12" on="0"/>
        <pt x="306" y="-12" on="0"/>
        <pt x="290" y="17" on="0"/>
        <pt x="286" y="54" on="1"/>
        <pt x="269" y="30" on="0"/>
        <pt x="202" y="-10" on="0"/>
        <pt x="168" y="-12" on="1"/>
        <pt x="163" y="-12" on="1"/>
        <pt x="115" y="-12" on="0"/>
        <pt x="46" y="42" on="0"/>
        <pt x="46" y="144" on="0"/>
        <pt x="141" y="199" on="0"/>
        <pt x="281" y="225" on="1"/>
        <pt x="281" y="285" on="1"/>
        <pt x="281" y="393" on="0"/>
        <pt x="200" y="393" on="1"/>
        <pt x="172" y="393" on="0"/>
        <pt x="147" y="379" on="1"/>
        <pt x="147" y="311" on="1"/>
        <pt x="147" y="306" on="0"/>
        <pt x="94" y="296" on="0"/>
        <pt x="77" y="296" on="0"/>
        <pt x="69" y="298" on="1"/>
        <pt x="61" y="306" on="0"/>
        <pt x="61" y="362" on="0"/>
        <pt x="77" y="380" on="1"/>
        <pt x="92" y="400" on="0"/>
        <pt x="206" y="442" on="0"/>
        <pt x="238" y="442" on="1"/>
        <pt x="364" y="442" on="0"/>
        <pt x="364" y="300" on="1"/>
        <pt x="364" y="100" on="1"/>
        <pt x="364" y="68" on="0"/>
        <pt x="389" y="50" on="0"/>
      </contour>
      <contour>
        <pt x="131" y="633" on="1"/>
        <pt x="312" y="629" on="1"/>
        <pt x="346" y="629" on="0"/>
        <pt x="370" y="659" on="1"/>
        <pt x="377" y="659" on="0"/>
        <pt x="393" y="644" on="1"/>
        <pt x="394" y="642" on="0"/>
        <pt x="394" y="636" on="0"/>
        <pt x="392" y="632" on="1"/>
        <pt x="345" y="554" on="0"/>
        <pt x="314" y="554" on="1"/>
        <pt x="146" y="558" on="1"/>
        <pt x="96" y="558" on="0"/>
        <pt x="73" y="519" on="1"/>
        <pt x="73" y="519" on="0"/>
        <pt x="67" y="519" on="0"/>
        <pt x="52" y="532" on="1"/>
        <pt x="50" y="535" on="0"/>
        <pt x="50" y="541" on="0"/>
        <pt x="67" y="574" on="0"/>
        <pt x="114" y="633" on="0"/>
      </contour>
    </TTGlyph>
    <TTGlyph name="b" xMin="2" yMin="-13" xMax="492" yMax="757">
      <contour>
        <pt x="166" y="125" on="1"/>
        <pt x="166" y="81" on="0"/>
        <pt x="227" y="32" on="0"/>
        <pt x="344" y="32" on="0"/>
        <pt x="401" y="128" on="0"/>
        <pt x="401" y="287" on="0"/>
        <pt x="327" y="387" on="0"/>
        <pt x="214" y="387" on="0"/>
        <pt x="166" y="347" on="1"/>
      </contour>
      <contour>
        <pt x="81" y="169" on="1"/>
        <pt x="81" y="612" on="1"/>
        <pt x="81" y="651" on="0"/>
        <pt x="49" y="676" on="0"/>
        <pt x="17" y="676" on="0"/>
        <pt x="10" y="675" on="1"/>
        <pt x="2" y="705" on="1"/>
        <pt x="31" y="712" on="0"/>
        <pt x="127" y="747" on="0"/>
        <pt x="142" y="757" on="1"/>
        <pt x="160" y="757" on="0"/>
        <pt x="160" y="749" on="1"/>
        <pt x="161" y="378" on="1"/>
        <pt x="179" y="403" on="0"/>
        <pt x="255" y="442" on="0"/>
        <pt x="302" y="442" on="1"/>
        <pt x="388" y="442" on="0"/>
        <pt x="492" y="325" on="0"/>
        <pt x="492" y="122" on="0"/>
        <pt x="378" y="-12" on="0"/>
        <pt x="275" y="-12" on="1"/>
        <pt x="198" y="-12" on="0"/>
        <pt x="144" y="18" on="1"/>
        <pt x="108" y="-9" on="1"/>
        <pt x="103" y="-12" on="0"/>
        <pt x="100" y="-12" on="1"/>
        <pt x="96" y="-12" on="0"/>
        <pt x="83" y="-9" on="1"/>
        <pt x="78" y="-7" on="0"/>
        <pt x="81" y="8" on="0"/>
      </contour>
    </TTGlyph>
    <TTGlyph name="backslash" xMin="-30" yMin="-53" xMax="335" yMax="743">
      <contour>
        <pt x="-30" y="740" on="1"/>
        <pt x="-23" y="742" on="0"/>
        <pt x="-14" y="742" on="1"/>
        <pt x="28" y="742" on="0"/>
        <pt x="36" y="731" on="1"/>
        <pt x="335" y="-48" on="1"/>
        <pt x="326" y="-52" on="0"/>
        <pt x="316" y="-52" on="1"/>
        <pt x="288" y="-52" on="0"/>
        <pt x="273" y="-46" on="1"/>
      </contour>
    </TTGlyph>
    <TTGlyph name="bar" xMin="100" yMin="-266" xMax="154" yMax="760">
      <contour>
        <pt x="100" y="-266" on="1"/>
        <pt x="100" y="743" on="1"/>
        <pt x="121" y="760" on="0"/>
        <pt x="154" y="760" on="1"/>
        <pt x="154" y="-253" on="1"/>
        <pt x="143" y="-266" on="0"/>
      </contour>
    </TTGlyph>
    <TTGlyph name="braceleft" xMin="55" yMin="-228" xMax="375" yMax="761">
      <contour>
        <pt x="55" y="285" on="1"/>
        <pt x="55" y="288" on="0"/>
        <pt x="60" y="290" on="1"/>
        <pt x="180" y="298" on="0"/>
        <pt x="180" y="393" on="1"/>
        <pt x="180" y="417" on="0"/>
        <pt x="148" y="593" on="0"/>
        <pt x="148" y="602" on="1"/>
        <pt x="148" y="682" on="0"/>
        <pt x="272" y="760" on="0"/>
        <pt x="351" y="760" on="1"/>
        <pt x="357" y="760" on="0"/>
        <pt x="363" y="760" on="1"/>
        <pt x="372" y="756" on="0"/>
        <pt x="375" y="734" on="1"/>
        <pt x="376" y="724" on="0"/>
        <pt x="368" y="723" on="1"/>
        <pt x="233" y="701" on="0"/>
        <pt x="233" y="605" on="1"/>
        <pt x="233" y="582" on="0"/>
        <pt x="271" y="454" on="0"/>
        <pt x="271" y="395" on="0"/>
        <pt x="248" y="337" on="0"/>
        <pt x="179" y="282" on="0"/>
        <pt x="127" y="277" on="1"/>
        <pt x="126" y="276" on="0"/>
        <pt x="130" y="272" on="1"/>
        <pt x="200" y="253" on="0"/>
        <pt x="271" y="166" on="0"/>
        <pt x="271" y="77" on="0"/>
        <pt x="235" y="-39" on="0"/>
        <pt x="234" y="-64" on="0"/>
        <pt x="234" y="-69" on="1"/>
        <pt x="234" y="-112" on="0"/>
        <pt x="291" y="-184" on="0"/>
        <pt x="361" y="-191" on="1"/>
        <pt x="369" y="-192" on="0"/>
        <pt x="368" y="-202" on="1"/>
        <pt x="365" y="-224" on="0"/>
        <pt x="356" y="-228" on="1"/>
        <pt x="259" y="-217" on="0"/>
        <pt x="149" y="-113" on="0"/>
        <pt x="149" y="-48" on="1"/>
        <pt x="149" y="-20" on="0"/>
        <pt x="180" y="102" on="0"/>
        <pt x="180" y="143" on="0"/>
        <pt x="175" y="175" on="0"/>
        <pt x="164" y="195" on="1"/>
        <pt x="144" y="234" on="0"/>
        <pt x="63" y="254" on="1"/>
        <pt x="58" y="256" on="0"/>
        <pt x="55" y="263" on="0"/>
      </contour>
    </TTGlyph>
    <TTGlyph name="braceright" xMin="56" yMin="-228" xMax="376" yMax="761">
      <contour>
        <pt x="251" y="102" on="0"/>
        <pt x="283" y="-20" on="0"/>
        <pt x="283" y="-48" on="1"/>
        <pt x="283" y="-113" on="0"/>
        <pt x="172" y="-217" on="0"/>
        <pt x="75" y="-228" on="1"/>
        <pt x="66" y="-224" on="0"/>
        <pt x="63" y="-202" on="1"/>
        <pt x="62" y="-192" on="0"/>
        <pt x="70" y="-191" on="1"/>
        <pt x="140" y="-183" on="0"/>
        <pt x="198" y="-112" on="0"/>
        <pt x="198" y="-67" on="1"/>
        <pt x="198" y="-63" on="0"/>
        <pt x="197" y="-39" on="0"/>
        <pt x="160" y="77" on="0"/>
        <pt x="160" y="166" on="0"/>
        <pt x="231" y="253" on="0"/>
        <pt x="301" y="272" on="1"/>
        <pt x="304" y="276" on="0"/>
        <pt x="304" y="277" on="1"/>
        <pt x="252" y="282" on="0"/>
        <pt x="218" y="310" on="1"/>
        <pt x="160" y="355" on="0"/>
        <pt x="160" y="422" on="1"/>
        <pt x="160" y="454" on="0"/>
        <pt x="198" y="582" on="0"/>
        <pt x="198" y="605" on="1"/>
        <pt x="198" y="701" on="0"/>
        <pt x="63" y="723" on="1"/>
        <pt x="55" y="724" on="0"/>
        <pt x="56" y="734" on="1"/>
        <pt x="59" y="756" on="0"/>
        <pt x="68" y="760" on="1"/>
        <pt x="74" y="760" on="0"/>
        <pt x="80" y="760" on="1"/>
        <pt x="159" y="760" on="0"/>
        <pt x="283" y="682" on="0"/>
        <pt x="283" y="602" on="1"/>
        <pt x="283" y="593" on="0"/>
        <pt x="251" y="417" on="0"/>
        <pt x="251" y="393" on="1"/>
        <pt x="251" y="298" on="0"/>
        <pt x="371" y="290" on="1"/>
        <pt x="376" y="288" on="0"/>
        <pt x="376" y="285" on="1"/>
        <pt x="376" y="263" on="0"/>
        <pt x="372" y="256" on="0"/>
        <pt x="368" y="254" on="1"/>
        <pt x="287" y="234" on="0"/>
        <pt x="266" y="195" on="1"/>
        <pt x="251" y="165" on="0"/>
      </contour>
    </TTGlyph>
    <TTGlyph name="bracketleft" xMin="100" yMin="-337" xMax="370" yMax="826">
      <contour>
        <pt x="110" y="-331" on="1"/>
        <pt x="100" y="-331" on="0"/>
        <pt x="100" y="-321" on="1"/>
        <pt x="100" y="810" on="1"/>
        <pt x="100" y="820" on="0"/>
        <pt x="109" y="820" on="1"/>
        <pt x="220" y="820" on="0"/>
        <pt x="362" y="826" on="1"/>
        <pt x="370" y="778" on="1"/>
        <pt x="213" y="770" on="0"/>
        <pt x="200" y="765" on="1"/>
        <pt x="191" y="761" on="0"/>
        <pt x="190" y="755" on="1"/>
        <pt x="190" y="-267" on="1"/>
        <pt x="190" y="-276" on="0"/>
        <pt x="216" y="-280" on="1"/>
        <pt x="259" y="-285" on="0"/>
        <pt x="369" y="-289" on="1"/>
        <pt x="362" y="-337" on="1"/>
        <pt x="244" y="-331" on="0"/>
      </contour>
    </TTGlyph>
    <TTGlyph name="bracketright" xMin="-34" yMin="-337" xMax="236" yMax="826">
      <contour>
        <pt x="146" y="-267" on="1"/>
        <pt x="146" y="755" on="1"/>
        <pt x="146" y="765" on="0"/>
        <pt x="126" y="768" on="1"/>
        <pt x="101" y="772" on="0"/>
        <pt x="-34" y="778" on="1"/>
        <pt x="-26" y="826" on="1"/>
        <pt x="116" y="820" on="0"/>
        <pt x="227" y="820" on="1"/>
        <pt x="236" y="820" on="0"/>
        <pt x="236" y="810" on="1"/>
        <pt x="236" y="-321" on="1"/>
        <pt x="236" y="-331" on="0"/>
        <pt x="226" y="-331" on="1"/>
        <pt x="94" y="-331" on="0"/>
        <pt x="-26" y="-337" on="1"/>
        <pt x="-33" y="-289" on="1"/>
        <pt x="121" y="-284" on="0"/>
        <pt x="140" y="-275" on="1"/>
        <pt x="146" y="-272" on="0"/>
      </contour>
    </TTGlyph>
    <TTGlyph name="brokenbar" xMin="100" yMin="-226" xMax="155" yMax="723">
      <contour>
        <pt x="100" y="322" on="1"/>
        <pt x="100" y="706" on="1"/>
        <pt x="121" y="723" on="0"/>
        <pt x="155" y="723" on="1"/>
        <pt x="155" y="335" on="1"/>
        <pt x="144" y="322" on="0"/>
      </contour>
      <contour>
        <pt x="100" y="-226" on="1"/>
        <pt x="100" y="158" on="1"/>
        <pt x="121" y="175" on="0"/>
        <pt x="155" y="175" on="1"/>
        <pt x="155" y="-213" on="1"/>
        <pt x="144" y="-226" on="0"/>
      </contour>
    </TTGlyph>
    <TTGlyph name="bullet" xMin="121" yMin="103" xMax="372" yMax="357">
      <contour>
        <pt x="190" y="103" on="0"/>
        <pt x="121" y="172" on="0"/>
        <pt x="121" y="280" on="0"/>
        <pt x="194" y="357" on="0"/>
        <pt x="302" y="357" on="0"/>
        <pt x="372" y="293" on="0"/>
        <pt x="372" y="185" on="0"/>
        <pt x="297" y="103" on="0"/>
      </contour>
    </TTGlyph>
    <TTGlyph name="c" xMin="38" yMin="-12" xMax="422" yMax="442">
      <contour>
        <pt x="333" y="366" on="0"/>
        <pt x="273" y="400" on="0"/>
        <pt x="195" y="400" on="0"/>
        <pt x="129" y="315" on="0"/>
        <pt x="129" y="161" on="0"/>
        <pt x="209" y="50" on="0"/>
        <pt x="288" y="50" on="1"/>
        <pt x="351" y="50" on="0"/>
        <pt x="392" y="91" on="1"/>
        <pt x="394" y="93" on="0"/>
        <pt x="400" y="93" on="0"/>
        <pt x="402" y="91" on="1"/>
        <pt x="422" y="68" on="1"/>
        <pt x="348" y="-12" on="0"/>
        <pt x="153" y="-12" on="0"/>
        <pt x="38" y="112" on="0"/>
        <pt x="38" y="206" on="1"/>
        <pt x="38" y="322" on="0"/>
        <pt x="167" y="442" on="0"/>
        <pt x="264" y="442" on="1"/>
        <pt x="306" y="442" on="0"/>
        <pt x="393" y="418" on="0"/>
        <pt x="415" y="400" on="1"/>
        <pt x="416" y="398" on="0"/>
        <pt x="416" y="396" on="1"/>
        <pt x="416" y="382" on="0"/>
        <pt x="385" y="337" on="1"/>
        <pt x="381" y="333" on="0"/>
        <pt x="368" y="333" on="0"/>
      </contour>
    </TTGlyph>
    <TTGlyph name="ccedilla" xMin="50" yMin="-211" xMax="434" yMax="442">
      <contour>
        <pt x="50" y="206" on="1"/>
        <pt x="50" y="322" on="0"/>
        <pt x="179" y="442" on="0"/>
        <pt x="276" y="442" on="1"/>
        <pt x="318" y="442" on="0"/>
        <pt x="405" y="418" on="0"/>
        <pt x="427" y="400" on="1"/>
        <pt x="428" y="398" on="0"/>
        <pt x="428" y="396" on="1"/>
        <pt x="428" y="382" on="0"/>
        <pt x="397" y="337" on="1"/>
        <pt x="393" y="333" on="0"/>
        <pt x="380" y="333" on="0"/>
        <pt x="345" y="366" on="0"/>
        <pt x="285" y="400" on="0"/>
        <pt x="207" y="400" on="0"/>
        <pt x="141" y="315" on="0"/>
        <pt x="141" y="161" on="0"/>
        <pt x="221" y="50" on="0"/>
        <pt x="300" y="50" on="1"/>
        <pt x="363" y="50" on="0"/>
        <pt x="404" y="91" on="1"/>
        <pt x="406" y="93" on="0"/>
        <pt x="412" y="93" on="0"/>
        <pt x="414" y="91" on="1"/>
        <pt x="434" y="68" on="1"/>
        <pt x="376" y="5" on="0"/>
        <pt x="299" y="-9" on="1"/>
        <pt x="301" y="-11" on="1"/>
        <pt x="279" y="-35" on="1"/>
        <pt x="322" y="-46" on="0"/>
        <pt x="365" y="-96" on="0"/>
        <pt x="365" y="-124" on="1"/>
        <pt x="365" y="-211" on="0"/>
        <pt x="208" y="-211" on="1"/>
        <pt x="204" y="-211" on="0"/>
        <pt x="204" y="-192" on="0"/>
        <pt x="207" y="-192" on="1"/>
        <pt x="307" y="-182" on="0"/>
        <pt x="307" y="-133" on="1"/>
        <pt x="307" y="-111" on="0"/>
        <pt x="271" y="-77" on="0"/>
        <pt x="229" y="-74" on="1"/>
        <pt x="227" y="-74" on="0"/>
        <pt x="222" y="-61" on="1"/>
        <pt x="222" y="-50" on="0"/>
        <pt x="248" y="-12" on="1"/>
        <pt x="156" y="-6" on="0"/>
        <pt x="50" y="115" on="0"/>
      </contour>
    </TTGlyph>
    <TTGlyph name="cedilla" xMin="303" yMin="-211" xMax="464" yMax="18">
      <contour>
        <pt x="464" y="-124" on="1"/>
        <pt x="464" y="-211" on="0"/>
        <pt x="307" y="-211" on="1"/>
        <pt x="303" y="-211" on="0"/>
        <pt x="303" y="-192" on="0"/>
        <pt x="306" y="-192" on="1"/>
        <pt x="406" y="-182" on="0"/>
        <pt x="406" y="-133" on="1"/>
        <pt x="406" y="-111" on="0"/>
        <pt x="370" y="-77" on="0"/>
        <pt x="328" y="-74" on="1"/>
        <pt x="326" y="-74" on="0"/>
        <pt x="321" y="-61" on="1"/>
        <pt x="321" y="-48" on="0"/>
        <pt x="369" y="18" on="1"/>
        <pt x="400" y="-11" on="1"/>
        <pt x="378" y="-35" on="1"/>
        <pt x="421" y="-46" on="0"/>
        <pt x="464" y="-96" on="0"/>
      </contour>
    </TTGlyph>
    <TTGlyph name="cent" xMin="38" yMin="-66" xMax="432" yMax="594">
      <contour>
        <pt x="282" y="589" on="1"/>
        <pt x="287" y="594" on="0"/>
        <pt x="312" y="594" on="0"/>
        <pt x="321" y="591" on="1"/>
        <pt x="309" y="499" on="1"/>
        <pt x="426" y="486" on="0"/>
        <pt x="426" y="464" on="1"/>
        <pt x="426" y="455" on="0"/>
        <pt x="400" y="402" on="0"/>
        <pt x="385" y="402" on="1"/>
        <pt x="378" y="402" on="0"/>
        <pt x="328" y="440" on="0"/>
        <pt x="303" y="449" on="1"/>
        <pt x="261" y="111" on="1"/>
        <pt x="267" y="109" on="0"/>
        <pt x="320" y="109" on="0"/>
        <pt x="384" y="132" on="0"/>
        <pt x="402" y="150" on="1"/>
        <pt x="404" y="152" on="0"/>
        <pt x="410" y="152" on="0"/>
        <pt x="412" y="150" on="1"/>
        <pt x="432" y="127" on="1"/>
        <pt x="397" y="89" on="0"/>
        <pt x="300" y="48" on="0"/>
        <pt x="253" y="47" on="1"/>
        <pt x="241" y="-55" on="1"/>
        <pt x="237" y="-66" on="0"/>
        <pt x="201" y="-66" on="0"/>
        <pt x="199" y="-65" on="1"/>
        <pt x="213" y="50" on="1"/>
        <pt x="131" y="62" on="0"/>
        <pt x="38" y="179" on="0"/>
        <pt x="38" y="265" on="1"/>
        <pt x="38" y="379" on="0"/>
        <pt x="174" y="501" on="0"/>
        <pt x="271" y="501" on="1"/>
      </contour>
      <contour>
        <pt x="244" y="459" on="1"/>
        <pt x="198" y="459" on="0"/>
        <pt x="129" y="375" on="0"/>
        <pt x="129" y="240" on="0"/>
        <pt x="176" y="143" on="0"/>
        <pt x="222" y="122" on="1"/>
        <pt x="265" y="458" on="1"/>
        <pt x="258" y="459" on="0"/>
      </contour>
    </TTGlyph>
    <TTGlyph name="circumflex" xMin="135" yMin="506" xMax="400" yMax="707">
      <contour>
        <pt x="300" y="707" on="1"/>
        <pt x="302" y="707" on="0"/>
        <pt x="306" y="700" on="1"/>
        <pt x="400" y="526" on="1"/>
        <pt x="400" y="522" on="0"/>
        <pt x="388" y="509" on="0"/>
        <pt x="377" y="506" on="1"/>
        <pt x="267" y="631" on="1"/>
        <pt x="158" y="506" on="1"/>
        <pt x="147" y="509" on="0"/>
        <pt x="135" y="522" on="0"/>
        <pt x="135" y="526" on="1"/>
        <pt x="231" y="705" on="1"/>
        <pt x="279" y="707" on="0"/>
      </contour>
    </TTGlyph>
    <TTGlyph name="circumflex.cap" xMin="125" yMin="546" xMax="410" yMax="707">
      <contour>
        <pt x="300" y="707" on="1"/>
        <pt x="302" y="707" on="0"/>
        <pt x="306" y="700" on="1"/>
        <pt x="410" y="566" on="1"/>
        <pt x="410" y="562" on="0"/>
        <pt x="398" y="549" on="0"/>
        <pt x="387" y="546" on="1"/>
        <pt x="267" y="634" on="1"/>
        <pt x="148" y="546" on="1"/>
        <pt x="137" y="549" on="0"/>
        <pt x="125" y="562" on="0"/>
        <pt x="125" y="566" on="1"/>
        <pt x="231" y="705" on="1"/>
        <pt x="279" y="707" on="0"/>
      </contour>
    </TTGlyph>
    <TTGlyph name="colon" xMin="76" yMin="-8" xMax="201" yMax="386">
      <contour>
        <pt x="76" y="26" on="0"/>
        <pt x="76" y="78" on="0"/>
        <pt x="112" y="116" on="0"/>
        <pt x="167" y="116" on="0"/>
        <pt x="201" y="85" on="0"/>
        <pt x="201" y="31" on="0"/>
        <pt x="163" y="-8" on="0"/>
        <pt x="111" y="-8" on="0"/>
      </contour>
      <contour>
        <pt x="76" y="296" on="0"/>
        <pt x="76" y="348" on="0"/>
        <pt x="112" y="386" on="0"/>
        <pt x="167" y="386" on="0"/>
        <pt x="201" y="355" on="0"/>
        <pt x="201" y="301" on="0"/>
        <pt x="163" y="262" on="0"/>
        <pt x="111" y="262" on="0"/>
      </contour>
    </TTGlyph>
    <TTGlyph name="comma" xMin="2" yMin="-181" xMax="154" yMax="110">
      <contour>
        <pt x="33" y="6" on="1"/>
        <pt x="20" y="17" on="0"/>
        <pt x="20" y="70" on="1"/>
        <pt x="20" y="89" on="0"/>
        <pt x="25" y="91" on="1"/>
        <pt x="44" y="110" on="0"/>
        <pt x="115" y="110" on="0"/>
        <pt x="154" y="62" on="0"/>
        <pt x="154" y="-20" on="0"/>
        <pt x="99" y="-131" on="0"/>
        <pt x="46" y="-180" on="1"/>
        <pt x="44" y="-180" on="0"/>
        <pt x="35" y="-180" on="0"/>
        <pt x="7" y="-169" on="0"/>
        <pt x="2" y="-162" on="1"/>
        <pt x="85" y="-79" on="0"/>
        <pt x="85" y="-25" on="1"/>
        <pt x="85" y="-6" on="0"/>
        <pt x="65" y="10" on="0"/>
        <pt x="42" y="6" on="0"/>
      </contour>
    </TTGlyph>
    <TTGlyph name="copyright" xMin="50" yMin="80" xMax="691" yMax="722">
      <contour>
        <pt x="387" y="560" on="1"/>
        <pt x="334" y="560" on="0"/>
        <pt x="268" y="469" on="0"/>
        <pt x="268" y="342" on="0"/>
        <pt x="340" y="244" on="0"/>
        <pt x="443" y="244" on="0"/>
        <pt x="495" y="279" on="0"/>
        <pt x="511" y="316" on="1"/>
        <pt x="526" y="314" on="1"/>
        <pt x="526" y="308" on="0"/>
        <pt x="506" y="241" on="0"/>
        <pt x="501" y="241" on="1"/>
        <pt x="450" y="212" on="0"/>
        <pt x="290" y="212" on="0"/>
        <pt x="183" y="313" on="0"/>
        <pt x="183" y="485" on="0"/>
        <pt x="295" y="590" on="0"/>
        <pt x="383" y="590" on="1"/>
        <pt x="416" y="590" on="0"/>
        <pt x="505" y="573" on="0"/>
        <pt x="511" y="572" on="1"/>
        <pt x="514" y="564" on="0"/>
        <pt x="514" y="493" on="0"/>
        <pt x="511" y="476" on="1"/>
        <pt x="486" y="479" on="1"/>
        <pt x="486" y="521" on="0"/>
        <pt x="453" y="541" on="1"/>
        <pt x="424" y="560" on="0"/>
      </contour>
      <contour>
        <pt x="50" y="536" on="0"/>
        <pt x="237" y="722" on="0"/>
        <pt x="509" y="722" on="0"/>
        <pt x="691" y="537" on="0"/>
        <pt x="691" y="266" on="0"/>
        <pt x="504" y="80" on="0"/>
        <pt x="234" y="80" on="0"/>
        <pt x="50" y="263" on="0"/>
      </contour>
      <contour>
        <pt x="651" y="521" on="0"/>
        <pt x="488" y="680" on="0"/>
        <pt x="253" y="680" on="0"/>
        <pt x="90" y="521" on="0"/>
        <pt x="90" y="284" on="0"/>
        <pt x="253" y="124" on="0"/>
        <pt x="496" y="124" on="0"/>
        <pt x="651" y="281" on="0"/>
      </contour>
    </TTGlyph>
    <TTGlyph name="currency" xMin="28" yMin="83" xMax="484" yMax="608">
      <contour>
        <pt x="352" y="498" on="1"/>
        <pt x="413" y="572" on="0"/>
        <pt x="427" y="586" on="1"/>
        <pt x="454" y="586" on="0"/>
        <pt x="484" y="561" on="1"/>
        <pt x="395" y="464" on="1"/>
        <pt x="445" y="412" on="0"/>
        <pt x="445" y="259" on="0"/>
        <pt x="405" y="206" on="1"/>
        <pt x="471" y="128" on="1"/>
        <pt x="471" y="119" on="0"/>
        <pt x="445" y="90" on="0"/>
        <pt x="431" y="85" on="1"/>
        <pt x="371" y="162" on="0"/>
        <pt x="367" y="167" on="1"/>
        <pt x="320" y="132" on="0"/>
        <pt x="196" y="132" on="0"/>
        <pt x="150" y="165" on="1"/>
        <pt x="77" y="84" on="1"/>
        <pt x="75" y="84" on="0"/>
        <pt x="65" y="84" on="0"/>
        <pt x="34" y="101" on="0"/>
        <pt x="28" y="114" on="1"/>
        <pt x="110" y="202" on="1"/>
        <pt x="74" y="251" on="0"/>
        <pt x="74" y="321" on="1"/>
        <pt x="74" y="414" on="0"/>
        <pt x="133" y="471" on="1"/>
        <pt x="61" y="557" on="1"/>
        <pt x="63" y="568" on="0"/>
        <pt x="85" y="601" on="0"/>
        <pt x="94" y="608" on="1"/>
        <pt x="97" y="602" on="0"/>
        <pt x="112" y="584" on="1"/>
        <pt x="153" y="535" on="0"/>
        <pt x="178" y="503" on="1"/>
        <pt x="216" y="521" on="0"/>
        <pt x="311" y="521" on="0"/>
      </contour>
      <contour>
        <pt x="140" y="257" on="0"/>
        <pt x="202" y="183" on="0"/>
        <pt x="305" y="183" on="0"/>
        <pt x="379" y="276" on="0"/>
        <pt x="379" y="398" on="0"/>
        <pt x="314" y="472" on="0"/>
        <pt x="216" y="472" on="0"/>
        <pt x="140" y="384" on="0"/>
      </contour>
    </TTGlyph>
    <TTGlyph name="d" xMin="38" yMin="-12" xMax="530" yMax="760">
      <contour>
        <pt x="450" y="115" on="1"/>
        <pt x="450" y="50" on="0"/>
        <pt x="494" y="50" on="1"/>
        <pt x="506" y="50" on="1"/>
        <pt x="523" y="51" on="1"/>
        <pt x="530" y="19" on="1"/>
        <pt x="459" y="7" on="1"/>
        <pt x="434" y="2" on="0"/>
        <pt x="386" y="-12" on="1"/>
        <pt x="373" y="-12" on="0"/>
        <pt x="373" y="-4" on="1"/>
        <pt x="370" y="56" on="1"/>
        <pt x="352" y="31" on="0"/>
        <pt x="270" y="-12" on="0"/>
        <pt x="224" y="-12" on="1"/>
        <pt x="142" y="-12" on="0"/>
        <pt x="38" y="101" on="0"/>
        <pt x="38" y="197" on="1"/>
        <pt x="38" y="315" on="0"/>
        <pt x="166" y="442" on="0"/>
        <pt x="256" y="442" on="1"/>
        <pt x="317" y="442" on="0"/>
        <pt x="365" y="419" on="1"/>
        <pt x="365" y="620" on="1"/>
        <pt x="365" y="679" on="0"/>
        <pt x="311" y="679" on="1"/>
        <pt x="298" y="679" on="0"/>
        <pt x="285" y="676" on="1"/>
        <pt x="276" y="706" on="1"/>
        <pt x="379" y="736" on="0"/>
        <pt x="432" y="760" on="1"/>
        <pt x="450" y="760" on="0"/>
        <pt x="450" y="741" on="1"/>
      </contour>
      <contour>
        <pt x="365" y="305" on="1"/>
        <pt x="365" y="349" on="0"/>
        <pt x="303" y="400" on="0"/>
        <pt x="187" y="400" on="0"/>
        <pt x="129" y="304" on="0"/>
        <pt x="129" y="143" on="0"/>
        <pt x="204" y="44" on="0"/>
        <pt x="263" y="44" on="1"/>
        <pt x="287" y="44" on="0"/>
        <pt x="328" y="59" on="0"/>
        <pt x="335" y="64" on="1"/>
        <pt x="344" y="70" on="0"/>
        <pt x="365" y="85" on="1"/>
      </contour>
    </TTGlyph>
    <TTGlyph name="dagger" xMin="50" yMin="-141" xMax="459" yMax="722">
      <contour>
        <pt x="237" y="-141" on="1"/>
        <pt x="237" y="6" on="1"/>
        <pt x="237" y="127" on="0"/>
        <pt x="200" y="269" on="1"/>
        <pt x="201" y="277" on="1"/>
        <pt x="225" y="307" on="0"/>
        <pt x="238" y="369" on="0"/>
        <pt x="238" y="446" on="1"/>
        <pt x="200" y="446" on="0"/>
        <pt x="133" y="414" on="0"/>
        <pt x="121" y="414" on="1"/>
        <pt x="50" y="414" on="0"/>
        <pt x="50" y="505" on="0"/>
        <pt x="125" y="505" on="1"/>
        <pt x="136" y="505" on="0"/>
        <pt x="200" y="473" on="0"/>
        <pt x="238" y="473" on="1"/>
        <pt x="238" y="533" on="0"/>
        <pt x="202" y="632" on="0"/>
        <pt x="202" y="657" on="0"/>
        <pt x="205" y="682" on="0"/>
        <pt x="210" y="695" on="1"/>
        <pt x="220" y="722" on="0"/>
        <pt x="255" y="722" on="1"/>
        <pt x="307" y="722" on="0"/>
        <pt x="307" y="639" on="1"/>
        <pt x="307" y="632" on="0"/>
        <pt x="271" y="533" on="0"/>
        <pt x="271" y="473" on="1"/>
        <pt x="306" y="473" on="0"/>
        <pt x="373" y="505" on="0"/>
        <pt x="386" y="505" on="1"/>
        <pt x="459" y="505" on="0"/>
        <pt x="459" y="459" on="1"/>
        <pt x="459" y="435" on="0"/>
        <pt x="424" y="414" on="0"/>
        <pt x="385" y="414" on="1"/>
        <pt x="377" y="414" on="0"/>
        <pt x="309" y="446" on="0"/>
        <pt x="271" y="446" on="1"/>
        <pt x="271" y="371" on="0"/>
        <pt x="285" y="307" on="0"/>
        <pt x="309" y="277" on="1"/>
        <pt x="311" y="269" on="1"/>
        <pt x="272" y="141" on="0"/>
        <pt x="272" y="6" on="1"/>
        <pt x="272" y="-129" on="1"/>
        <pt x="263" y="-141" on="0"/>
      </contour>
    </TTGlyph>
    <TTGlyph name="daggerdbl" xMin="50" yMin="-176" xMax="459" yMax="722">
      <contour>
        <pt x="271" y="100" on="1"/>
        <pt x="309" y="100" on="0"/>
        <pt x="377" y="132" on="0"/>
        <pt x="385" y="132" on="1"/>
        <pt x="424" y="132" on="0"/>
        <pt x="459" y="111" on="0"/>
        <pt x="459" y="87" on="1"/>
        <pt x="459" y="41" on="0"/>
        <pt x="386" y="41" on="1"/>
        <pt x="373" y="41" on="0"/>
        <pt x="306" y="73" on="0"/>
        <pt x="271" y="73" on="1"/>
        <pt x="271" y="13" on="0"/>
        <pt x="307" y="-86" on="0"/>
        <pt x="307" y="-93" on="1"/>
        <pt x="307" y="-176" on="0"/>
        <pt x="255" y="-176" on="1"/>
        <pt x="223" y="-176" on="0"/>
        <pt x="202" y="-132" on="0"/>
        <pt x="202" y="-93" on="1"/>
        <pt x="202" y="-86" on="0"/>
        <pt x="238" y="13" on="0"/>
        <pt x="238" y="73" on="1"/>
        <pt x="200" y="73" on="0"/>
        <pt x="136" y="41" on="0"/>
        <pt x="125" y="41" on="1"/>
        <pt x="50" y="41" on="0"/>
        <pt x="50" y="132" on="0"/>
        <pt x="121" y="132" on="1"/>
        <pt x="133" y="132" on="0"/>
        <pt x="200" y="100" on="0"/>
        <pt x="238" y="100" on="1"/>
        <pt x="238" y="175" on="0"/>
        <pt x="224" y="239" on="0"/>
        <pt x="199" y="269" on="1"/>
        <pt x="200" y="277" on="1"/>
        <pt x="224" y="307" on="0"/>
        <pt x="238" y="371" on="0"/>
        <pt x="238" y="446" on="1"/>
        <pt x="200" y="446" on="0"/>
        <pt x="133" y="414" on="0"/>
        <pt x="121" y="414" on="1"/>
        <pt x="50" y="414" on="0"/>
        <pt x="50" y="505" on="0"/>
        <pt x="125" y="505" on="1"/>
        <pt x="136" y="505" on="0"/>
        <pt x="200" y="473" on="0"/>
        <pt x="238" y="473" on="1"/>
        <pt x="238" y="533" on="0"/>
        <pt x="202" y="632" on="0"/>
        <pt x="202" y="657" on="0"/>
        <pt x="205" y="682" on="0"/>
        <pt x="210" y="695" on="1"/>
        <pt x="220" y="722" on="0"/>
        <pt x="255" y="722" on="1"/>
        <pt x="307" y="722" on="0"/>
        <pt x="307" y="639" on="1"/>
        <pt x="307" y="632" on="0"/>
        <pt x="271" y="533" on="0"/>
        <pt x="271" y="473" on="1"/>
        <pt x="306" y="473" on="0"/>
        <pt x="373" y="505" on="0"/>
        <pt x="386" y="505" on="1"/>
        <pt x="459" y="505" on="0"/>
        <pt x="459" y="459" on="1"/>
        <pt x="459" y="435" on="0"/>
        <pt x="424" y="414" on="0"/>
        <pt x="385" y="414" on="1"/>
        <pt x="377" y="414" on="0"/>
        <pt x="309" y="446" on="0"/>
        <pt x="271" y="446" on="1"/>
        <pt x="271" y="371" on="0"/>
        <pt x="285" y="307" on="0"/>
        <pt x="309" y="277" on="1"/>
        <pt x="311" y="269" on="1"/>
        <pt x="286" y="238" on="0"/>
        <pt x="271" y="174" on="0"/>
      </contour>
    </TTGlyph>
    <TTGlyph name="degree" xMin="35" yMin="457" xMax="259" yMax="693">
      <contour>
        <pt x="80" y="548" on="0"/>
        <pt x="120" y="505" on="0"/>
        <pt x="179" y="505" on="0"/>
        <pt x="213" y="537" on="0"/>
        <pt x="213" y="606" on="0"/>
        <pt x="172" y="645" on="0"/>
        <pt x="115" y="645" on="0"/>
        <pt x="80" y="615" on="0"/>
      </contour>
      <contour>
        <pt x="98" y="457" on="0"/>
        <pt x="35" y="520" on="0"/>
        <pt x="35" y="623" on="0"/>
        <pt x="97" y="693" on="0"/>
        <pt x="195" y="693" on="0"/>
        <pt x="259" y="628" on="0"/>
        <pt x="259" y="526" on="0"/>
        <pt x="195" y="457" on="0"/>
      </contour>
    </TTGlyph>
    <TTGlyph name="dieresis" xMin="95" yMin="548" xMax="390" yMax="666">
      <contour>
        <pt x="128" y="548" on="0"/>
        <pt x="95" y="580" on="0"/>
        <pt x="95" y="630" on="0"/>
        <pt x="130" y="666" on="0"/>
        <pt x="181" y="666" on="0"/>
        <pt x="214" y="635" on="0"/>
        <pt x="214" y="584" on="0"/>
        <pt x="180" y="548" on="0"/>
      </contour>
      <contour>
        <pt x="305" y="548" on="0"/>
        <pt x="272" y="580" on="0"/>
        <pt x="272" y="630" on="0"/>
        <pt x="306" y="666" on="0"/>
        <pt x="357" y="666" on="0"/>
        <pt x="390" y="635" on="0"/>
        <pt x="390" y="584" on="0"/>
        <pt x="355" y="548" on="0"/>
      </contour>
    </TTGlyph>
    <TTGlyph name="divide" xMin="36" yMin="57" xMax="518" yMax="473">
      <contour>
        <pt x="280" y="293" on="1"/>
        <pt x="501" y="295" on="1"/>
        <pt x="518" y="278" on="0"/>
        <pt x="518" y="241" on="1"/>
        <pt x="280" y="243" on="1"/>
        <pt x="280" y="243" on="0"/>
        <pt x="49" y="241" on="1"/>
        <pt x="37" y="251" on="0"/>
        <pt x="37" y="287" on="0"/>
        <pt x="39" y="295" on="1"/>
      </contour>
      <contour>
        <pt x="253" y="355" on="0"/>
        <pt x="220" y="387" on="0"/>
        <pt x="220" y="437" on="0"/>
        <pt x="255" y="473" on="0"/>
        <pt x="306" y="473" on="0"/>
        <pt x="339" y="442" on="0"/>
        <pt x="339" y="391" on="0"/>
        <pt x="305" y="355" on="0"/>
      </contour>
      <contour>
        <pt x="253" y="57" on="0"/>
        <pt x="220" y="89" on="0"/>
        <pt x="220" y="139" on="0"/>
        <pt x="255" y="175" on="0"/>
        <pt x="306" y="175" on="0"/>
        <pt x="339" y="144" on="0"/>
        <pt x="339" y="93" on="0"/>
        <pt x="305" y="57" on="0"/>
      </contour>
    </TTGlyph>
    <TTGlyph name="dollar" xMin="40" yMin="-104" xMax="505" yMax="811">
      <contour>
        <pt x="258" y="-104" on="1"/>
        <pt x="258" y="-12" on="1"/>
        <pt x="159" y="-8" on="0"/>
        <pt x="67" y="29" on="1"/>
        <pt x="62" y="44" on="0"/>
        <pt x="44" y="163" on="0"/>
        <pt x="40" y="204" on="1"/>
        <pt x="86" y="211" on="1"/>
        <pt x="107" y="121" on="0"/>
        <pt x="193" y="39" on="0"/>
        <pt x="258" y="38" on="1"/>
        <pt x="258" y="307" on="1"/>
        <pt x="148" y="354" on="0"/>
        <pt x="122" y="378" on="1"/>
        <pt x="107" y="392" on="0"/>
        <pt x="90" y="411" on="1"/>
        <pt x="59" y="446" on="0"/>
        <pt x="59" y="507" on="1"/>
        <pt x="59" y="593" on="0"/>
        <pt x="173" y="687" on="0"/>
        <pt x="258" y="691" on="1"/>
        <pt x="258" y="794" on="1"/>
        <pt x="279" y="811" on="0"/>
        <pt x="312" y="811" on="1"/>
        <pt x="312" y="690" on="1"/>
        <pt x="413" y="684" on="0"/>
        <pt x="469" y="654" on="1"/>
        <pt x="476" y="639" on="0"/>
        <pt x="476" y="512" on="0"/>
        <pt x="472" y="480" on="1"/>
        <pt x="441" y="482" on="1"/>
        <pt x="438" y="541" on="0"/>
        <pt x="370" y="629" on="0"/>
        <pt x="312" y="641" on="1"/>
        <pt x="312" y="399" on="1"/>
        <pt x="425" y="356" on="0"/>
        <pt x="464" y="308" on="1"/>
        <pt x="505" y="259" on="0"/>
        <pt x="505" y="113" on="0"/>
        <pt x="405" y="-2" on="0"/>
        <pt x="312" y="-10" on="1"/>
        <pt x="312" y="-91" on="1"/>
        <pt x="301" y="-104" on="0"/>
      </contour>
      <contour>
        <pt x="207" y="640" on="0"/>
        <pt x="149" y="584" on="0"/>
        <pt x="149" y="496" on="0"/>
        <pt x="204" y="445" on="0"/>
        <pt x="258" y="421" on="1"/>
        <pt x="258" y="644" on="1"/>
      </contour>
      <contour>
        <pt x="362" y="54" on="0"/>
        <pt x="415" y="118" on="0"/>
        <pt x="415" y="204" on="0"/>
        <pt x="362" y="259" on="0"/>
        <pt x="312" y="283" on="1"/>
        <pt x="312" y="43" on="1"/>
      </contour>
    </TTGlyph>
    <TTGlyph name="dotlessi" xMin="30" yMin="-3" xMax="255" yMax="450">
      <contour>
        <pt x="157" y="0" on="1"/>
        <pt x="49" y="-3" on="1"/>
        <pt x="41" y="37" on="1"/>
        <pt x="89" y="41" on="0"/>
        <pt x="108" y="50" on="0"/>
        <pt x="108" y="71" on="1"/>
        <pt x="108" y="325" on="1"/>
        <pt x="108" y="375" on="0"/>
        <pt x="58" y="375" on="1"/>
        <pt x="46" y="375" on="0"/>
        <pt x="39" y="374" on="1"/>
        <pt x="30" y="403" on="1"/>
        <pt x="95" y="419" on="0"/>
        <pt x="113" y="426" on="1"/>
        <pt x="174" y="450" on="1"/>
        <pt x="187" y="450" on="0"/>
        <pt x="193" y="445" on="0"/>
        <pt x="193" y="434" on="1"/>
        <pt x="193" y="71" on="1"/>
        <pt x="193" y="53" on="0"/>
        <pt x="211" y="40" on="0"/>
        <pt x="246" y="37" on="1"/>
        <pt x="255" y="-3" on="1"/>
      </contour>
    </TTGlyph>
    <TTGlyph name="e" xMin="38" yMin="-12" xMax="424" yMax="442">
      <contour>
        <pt x="419" y="243" on="1"/>
        <pt x="129" y="243" on="1"/>
        <pt x="129" y="230" on="1"/>
        <pt x="129" y="157" on="0"/>
        <pt x="211" y="50" on="0"/>
        <pt x="347" y="50" on="0"/>
        <pt x="391" y="94" on="1"/>
        <pt x="394" y="97" on="0"/>
        <pt x="398" y="97" on="0"/>
        <pt x="401" y="94" on="1"/>
        <pt x="423" y="69" on="1"/>
        <pt x="348" y="-12" on="0"/>
        <pt x="151" y="-12" on="0"/>
        <pt x="38" y="112" on="0"/>
        <pt x="38" y="319" on="0"/>
        <pt x="166" y="442" on="0"/>
        <pt x="330" y="442" on="0"/>
        <pt x="424" y="343" on="0"/>
        <pt x="424" y="254" on="1"/>
        <pt x="424" y="243" on="0"/>
      </contour>
      <contour>
        <pt x="324" y="290" on="1"/>
        <pt x="324" y="400" on="0"/>
        <pt x="239" y="400" on="1"/>
        <pt x="194" y="400" on="0"/>
        <pt x="138" y="337" on="0"/>
        <pt x="132" y="290" on="1"/>
      </contour>
    </TTGlyph>
    <TTGlyph name="eacute" xMin="50" yMin="-12" xMax="436" yMax="716">
      <contour>
        <pt x="431" y="243" on="1"/>
        <pt x="141" y="243" on="1"/>
        <pt x="141" y="230" on="1"/>
        <pt x="141" y="157" on="0"/>
        <pt x="223" y="50" on="0"/>
        <pt x="359" y="50" on="0"/>
        <pt x="403" y="94" on="1"/>
        <pt x="406" y="97" on="0"/>
        <pt x="410" y="97" on="0"/>
        <pt x="413" y="94" on="1"/>
        <pt x="435" y="69" on="1"/>
        <pt x="360" y="-12" on="0"/>
        <pt x="163" y="-12" on="0"/>
        <pt x="50" y="112" on="0"/>
        <pt x="50" y="319" on="0"/>
        <pt x="178" y="442" on="0"/>
        <pt x="342" y="442" on="0"/>
        <pt x="436" y="343" on="0"/>
        <pt x="436" y="254" on="1"/>
        <pt x="436" y="243" on="0"/>
      </contour>
      <contour>
        <pt x="336" y="290" on="1"/>
        <pt x="336" y="400" on="0"/>
        <pt x="251" y="400" on="1"/>
        <pt x="206" y="400" on="0"/>
        <pt x="150" y="337" on="0"/>
        <pt x="144" y="290" on="1"/>
      </contour>
      <contour>
        <pt x="200" y="535" on="1"/>
        <pt x="287" y="716" on="1"/>
        <pt x="304" y="716" on="0"/>
        <pt x="332" y="706" on="1"/>
        <pt x="381" y="688" on="0"/>
        <pt x="381" y="681" on="1"/>
        <pt x="223" y="515" on="1"/>
        <pt x="212" y="518" on="0"/>
        <pt x="200" y="531" on="0"/>
      </contour>
    </TTGlyph>
    <TTGlyph name="ecircumflex" xMin="50" yMin="-12" xMax="436" yMax="707">
      <contour>
        <pt x="431" y="243" on="1"/>
        <pt x="141" y="243" on="1"/>
        <pt x="141" y="230" on="1"/>
        <pt x="141" y="157" on="0"/>
        <pt x="223" y="50" on="0"/>
        <pt x="359" y="50" on="0"/>
        <pt x="403" y="94" on="1"/>
        <pt x="406" y="97" on="0"/>
        <pt x="410" y="97" on="0"/>
        <pt x="413" y="94" on="1"/>
        <pt x="435" y="69" on="1"/>
        <pt x="360" y="-12" on="0"/>
        <pt x="163" y="-12" on="0"/>
        <pt x="50" y="112" on="0"/>
        <pt x="50" y="319" on="0"/>
        <pt x="178" y="442" on="0"/>
        <pt x="342" y="442" on="0"/>
        <pt x="436" y="343" on="0"/>
        <pt x="436" y="254" on="1"/>
        <pt x="436" y="243" on="0"/>
      </contour>
      <contour>
        <pt x="336" y="290" on="1"/>
        <pt x="336" y="400" on="0"/>
        <pt x="251" y="400" on="1"/>
        <pt x="206" y="400" on="0"/>
        <pt x="150" y="337" on="0"/>
        <pt x="144" y="290" on="1"/>
      </contour>
      <contour>
        <pt x="286" y="707" on="1"/>
        <pt x="288" y="707" on="0"/>
        <pt x="292" y="700" on="1"/>
        <pt x="386" y="526" on="1"/>
        <pt x="386" y="522" on="0"/>
        <pt x="374" y="509" on="0"/>
        <pt x="363" y="506" on="1"/>
        <pt x="253" y="631" on="1"/>
        <pt x="144" y="506" on="1"/>
        <pt x="133" y="509" on="0"/>
        <pt x="121" y="522" on="0"/>
        <pt x="121" y="526" on="1"/>
        <pt x="217" y="705" on="1"/>
        <pt x="265" y="707" on="0"/>
      </contour>
    </TTGlyph>
    <TTGlyph name="edieresis" xMin="50" yMin="-12" xMax="436" yMax="660">
      <contour>
        <pt x="431" y="243" on="1"/>
        <pt x="141" y="243" on="1"/>
        <pt x="141" y="230" on="1"/>
        <pt x="141" y="157" on="0"/>
        <pt x="223" y="50" on="0"/>
        <pt x="359" y="50" on="0"/>
        <pt x="403" y="94" on="1"/>
        <pt x="406" y="97" on="0"/>
        <pt x="410" y="97" on="0"/>
        <pt x="413" y="94" on="1"/>
        <pt x="435" y="69" on="1"/>
        <pt x="360" y="-12" on="0"/>
        <pt x="163" y="-12" on="0"/>
        <pt x="50" y="112" on="0"/>
        <pt x="50" y="319" on="0"/>
        <pt x="178" y="442" on="0"/>
        <pt x="342" y="442" on="0"/>
        <pt x="436" y="343" on="0"/>
        <pt x="436" y="254" on="1"/>
        <pt x="436" y="243" on="0"/>
      </contour>
      <contour>
        <pt x="336" y="290" on="1"/>
        <pt x="336" y="400" on="0"/>
        <pt x="251" y="400" on="1"/>
        <pt x="206" y="400" on="0"/>
        <pt x="150" y="337" on="0"/>
        <pt x="144" y="290" on="1"/>
      </contour>
      <contour>
        <pt x="139" y="542" on="0"/>
        <pt x="106" y="574" on="0"/>
        <pt x="106" y="624" on="0"/>
        <pt x="141" y="660" on="0"/>
        <pt x="192" y="660" on="0"/>
        <pt x="225" y="629" on="0"/>
        <pt x="225" y="578" on="0"/>
        <pt x="191" y="542" on="0"/>
      </contour>
      <contour>
        <pt x="316" y="542" on="0"/>
        <pt x="283" y="574" on="0"/>
        <pt x="283" y="624" on="0"/>
        <pt x="317" y="660" on="0"/>
        <pt x="368" y="660" on="0"/>
        <pt x="401" y="629" on="0"/>
        <pt x="401" y="578" on="0"/>
        <pt x="366" y="542" on="0"/>
      </contour>
    </TTGlyph>
    <TTGlyph name="egrave" xMin="50" yMin="-12" xMax="436" yMax="716">
      <contour>
        <pt x="431" y="243" on="1"/>
        <pt x="141" y="243" on="1"/>
        <pt x="141" y="230" on="1"/>
        <pt x="141" y="157" on="0"/>
        <pt x="223" y="50" on="0"/>
        <pt x="359" y="50" on="0"/>
        <pt x="403" y="94" on="1"/>
        <pt x="406" y="97" on="0"/>
        <pt x="410" y="97" on="0"/>
        <pt x="413" y="94" on="1"/>
        <pt x="435" y="69" on="1"/>
        <pt x="360" y="-12" on="0"/>
        <pt x="163" y="-12" on="0"/>
        <pt x="50" y="112" on="0"/>
        <pt x="50" y="319" on="0"/>
        <pt x="178" y="442" on="0"/>
        <pt x="342" y="442" on="0"/>
        <pt x="436" y="343" on="0"/>
        <pt x="436" y="254" on="1"/>
        <pt x="436" y="243" on="0"/>
      </contour>
      <contour>
        <pt x="336" y="290" on="1"/>
        <pt x="336" y="400" on="0"/>
        <pt x="251" y="400" on="1"/>
        <pt x="206" y="400" on="0"/>
        <pt x="150" y="337" on="0"/>
        <pt x="144" y="290" on="1"/>
      </contour>
      <contour>
        <pt x="228" y="716" on="1"/>
        <pt x="315" y="535" on="1"/>
        <pt x="315" y="531" on="0"/>
        <pt x="303" y="518" on="0"/>
        <pt x="292" y="515" on="1"/>
        <pt x="134" y="681" on="1"/>
        <pt x="134" y="688" on="0"/>
        <pt x="211" y="716" on="0"/>
      </contour>
    </TTGlyph>
    <TTGlyph name="eight" xMin="41" yMin="-12" xMax="468" yMax="692">
      <contour>
        <pt x="41" y="168" on="1"/>
        <pt x="41" y="232" on="0"/>
        <pt x="112" y="319" on="0"/>
        <pt x="169" y="354" on="1"/>
        <pt x="55" y="421" on="0"/>
        <pt x="55" y="515" on="1"/>
        <pt x="55" y="589" on="0"/>
        <pt x="168" y="692" on="0"/>
        <pt x="343" y="692" on="0"/>
        <pt x="441" y="603" on="0"/>
        <pt x="441" y="545" on="1"/>
        <pt x="441" y="444" on="0"/>
        <pt x="327" y="361" on="1"/>
        <pt x="394" y="328" on="0"/>
        <pt x="468" y="242" on="0"/>
        <pt x="468" y="93" on="0"/>
        <pt x="348" y="-12" on="0"/>
        <pt x="165" y="-12" on="0"/>
        <pt x="41" y="85" on="0"/>
      </contour>
      <contour>
        <pt x="383" y="161" on="1"/>
        <pt x="383" y="191" on="0"/>
        <pt x="362" y="223" on="0"/>
        <pt x="349" y="242" on="0"/>
        <pt x="321" y="263" on="0"/>
        <pt x="304" y="277" on="0"/>
        <pt x="268" y="298" on="0"/>
        <pt x="259" y="303" on="1"/>
        <pt x="214" y="328" on="0"/>
        <pt x="200" y="335" on="1"/>
        <pt x="169" y="307" on="0"/>
        <pt x="126" y="224" on="0"/>
        <pt x="126" y="117" on="0"/>
        <pt x="198" y="38" on="0"/>
        <pt x="314" y="38" on="0"/>
        <pt x="383" y="106" on="0"/>
      </contour>
      <contour>
        <pt x="196" y="647" on="0"/>
        <pt x="140" y="578" on="0"/>
        <pt x="140" y="506" on="0"/>
        <pt x="162" y="458" on="0"/>
        <pt x="214" y="418" on="0"/>
        <pt x="251" y="398" on="0"/>
        <pt x="291" y="378" on="1"/>
        <pt x="356" y="451" on="0"/>
        <pt x="356" y="532" on="1"/>
        <pt x="356" y="581" on="0"/>
        <pt x="297" y="647" on="0"/>
      </contour>
    </TTGlyph>
    <TTGlyph name="ellipsis" xMin="57" yMin="-5" xMax="612" yMax="109">
      <contour>
        <pt x="89" y="-5" on="0"/>
        <pt x="57" y="26" on="0"/>
        <pt x="57" y="74" on="0"/>
        <pt x="91" y="109" on="0"/>
        <pt x="141" y="109" on="0"/>
        <pt x="172" y="80" on="0"/>
        <pt x="172" y="31" on="0"/>
        <pt x="138" y="-5" on="0"/>
      </contour>
      <contour>
        <pt x="309" y="-5" on="0"/>
        <pt x="277" y="26" on="0"/>
        <pt x="277" y="74" on="0"/>
        <pt x="311" y="109" on="0"/>
        <pt x="361" y="109" on="0"/>
        <pt x="392" y="80" on="0"/>
        <pt x="392" y="31" on="0"/>
        <pt x="358" y="-5" on="0"/>
      </contour>
      <contour>
        <pt x="529" y="-5" on="0"/>
        <pt x="497" y="26" on="0"/>
        <pt x="497" y="74" on="0"/>
        <pt x="531" y="109" on="0"/>
        <pt x="581" y="109" on="0"/>
        <pt x="612" y="80" on="0"/>
        <pt x="612" y="31" on="0"/>
        <pt x="578" y="-5" on="0"/>
      </contour>
    </TTGlyph>
    <TTGlyph name="endash" xMin="-4" yMin="183" xMax="512" yMax="243">
      <contour>
        <pt x="-1" y="243" on="1"/>
        <pt x="-1" y="243" on="0"/>
        <pt x="254" y="241" on="1"/>
        <pt x="492" y="243" on="1"/>
        <pt x="500" y="234" on="0"/>
        <pt x="512" y="196" on="0"/>
        <pt x="512" y="183" on="1"/>
        <pt x="253" y="185" on="1"/>
        <pt x="10" y="183" on="1"/>
        <pt x="-4" y="197" on="0"/>
        <pt x="-4" y="234" on="0"/>
      </contour>
    </TTGlyph>
    <TTGlyph name="equal" xMin="44" yMin="143" xMax="479" yMax="351">
      <contour>
        <pt x="47" y="203" on="1"/>
        <pt x="47" y="203" on="0"/>
        <pt x="262" y="201" on="1"/>
        <pt x="459" y="203" on="1"/>
        <pt x="467" y="194" on="0"/>
        <pt x="479" y="156" on="0"/>
        <pt x="479" y="143" on="1"/>
        <pt x="261" y="145" on="1"/>
        <pt x="58" y="143" on="1"/>
        <pt x="44" y="157" on="0"/>
        <pt x="44" y="194" on="0"/>
      </contour>
      <contour>
        <pt x="47" y="351" on="1"/>
        <pt x="262" y="349" on="1"/>
        <pt x="459" y="351" on="1"/>
        <pt x="467" y="342" on="0"/>
        <pt x="479" y="304" on="0"/>
        <pt x="479" y="291" on="1"/>
        <pt x="261" y="293" on="1"/>
        <pt x="58" y="291" on="1"/>
        <pt x="44" y="305" on="0"/>
        <pt x="44" y="342" on="0"/>
      </contour>
    </TTGlyph>
    <TTGlyph name="eth" xMin="38" yMin="-12" xMax="480" yMax="723">
      <contour>
        <pt x="480" y="224" on="1"/>
        <pt x="480" y="121" on="0"/>
        <pt x="359" y="-12" on="0"/>
        <pt x="164" y="-12" on="0"/>
        <pt x="38" y="109" on="0"/>
        <pt x="38" y="306" on="0"/>
        <pt x="167" y="442" on="0"/>
        <pt x="262" y="442" on="1"/>
        <pt x="315" y="442" on="0"/>
        <pt x="356" y="426" on="1"/>
        <pt x="334" y="494" on="0"/>
        <pt x="295" y="557" on="1"/>
        <pt x="203" y="499" on="0"/>
        <pt x="189" y="488" on="1"/>
        <pt x="183" y="488" on="0"/>
        <pt x="161" y="511" on="0"/>
        <pt x="158" y="522" on="1"/>
        <pt x="257" y="583" on="0"/>
        <pt x="271" y="592" on="1"/>
        <pt x="226" y="653" on="0"/>
        <pt x="175" y="697" on="1"/>
        <pt x="170" y="702" on="0"/>
        <pt x="185" y="720" on="0"/>
        <pt x="192" y="723" on="1"/>
        <pt x="261" y="680" on="0"/>
        <pt x="316" y="621" on="1"/>
        <pt x="424" y="693" on="1"/>
        <pt x="433" y="691" on="0"/>
        <pt x="450" y="672" on="0"/>
        <pt x="453" y="662" on="1"/>
        <pt x="449" y="660" on="0"/>
        <pt x="368" y="603" on="0"/>
        <pt x="345" y="589" on="1"/>
        <pt x="480" y="402" on="0"/>
      </contour>
      <contour>
        <pt x="274" y="33" on="1"/>
        <pt x="329" y="33" on="0"/>
        <pt x="395" y="136" on="0"/>
        <pt x="395" y="297" on="0"/>
        <pt x="317" y="400" on="0"/>
        <pt x="189" y="400" on="0"/>
        <pt x="129" y="307" on="0"/>
        <pt x="129" y="150" on="0"/>
        <pt x="206" y="33" on="0"/>
      </contour>
    </TTGlyph>
    <TTGlyph name="exclam" xMin="97" yMin="-10" xMax="210" yMax="688">
      <contour>
        <pt x="210" y="658" on="1"/>
        <pt x="178" y="214" on="1"/>
        <pt x="178" y="207" on="0"/>
        <pt x="171" y="207" on="1"/>
        <pt x="141" y="205" on="1"/>
        <pt x="138" y="205" on="0"/>
        <pt x="138" y="213" on="1"/>
        <pt x="97" y="658" on="1"/>
        <pt x="106" y="662" on="0"/>
        <pt x="177" y="686" on="0"/>
        <pt x="188" y="688" on="1"/>
        <pt x="203" y="688" on="0"/>
        <pt x="208" y="677" on="1"/>
        <pt x="210" y="674" on="0"/>
      </contour>
      <contour>
        <pt x="137" y="-10" on="0"/>
        <pt x="108" y="18" on="0"/>
        <pt x="108" y="60" on="0"/>
        <pt x="138" y="91" on="0"/>
        <pt x="181" y="91" on="0"/>
        <pt x="210" y="64" on="0"/>
        <pt x="210" y="22" on="0"/>
        <pt x="180" y="-10" on="0"/>
      </contour>
    </TTGlyph>
    <TTGlyph name="exclamdown" xMin="108" yMin="-244" xMax="221" yMax="454">
      <contour>
        <pt x="108" y="-214" on="1"/>
        <pt x="140" y="230" on="1"/>
        <pt x="140" y="237" on="0"/>
        <pt x="147" y="237" on="1"/>
        <pt x="177" y="239" on="1"/>
        <pt x="180" y="239" on="0"/>
        <pt x="180" y="231" on="1"/>
        <pt x="221" y="-214" on="1"/>
        <pt x="212" y="-218" on="0"/>
        <pt x="141" y="-242" on="0"/>
        <pt x="130" y="-244" on="1"/>
        <pt x="115" y="-244" on="0"/>
        <pt x="110" y="-233" on="1"/>
        <pt x="108" y="-230" on="0"/>
      </contour>
      <contour>
        <pt x="181" y="454" on="0"/>
        <pt x="210" y="426" on="0"/>
        <pt x="210" y="384" on="0"/>
        <pt x="180" y="353" on="0"/>
        <pt x="137" y="353" on="0"/>
        <pt x="108" y="380" on="0"/>
        <pt x="108" y="422" on="0"/>
        <pt x="138" y="454" on="0"/>
      </contour>
    </TTGlyph>
    <TTGlyph name="f" xMin="40" yMin="-2" xMax="446" yMax="760">
      <contour>
        <pt x="279" y="-2" on="1"/>
        <pt x="171" y="1" on="1"/>
        <pt x="170" y="1" on="0"/>
        <pt x="53" y="-2" on="1"/>
        <pt x="45" y="38" on="1"/>
        <pt x="93" y="42" on="0"/>
        <pt x="112" y="51" on="0"/>
        <pt x="112" y="72" on="1"/>
        <pt x="112" y="351" on="1"/>
        <pt x="112" y="369" on="0"/>
        <pt x="101" y="369" on="1"/>
        <pt x="47" y="369" on="1"/>
        <pt x="40" y="383" on="0"/>
        <pt x="40" y="400" on="1"/>
        <pt x="89" y="406" on="0"/>
        <pt x="106" y="412" on="1"/>
        <pt x="111" y="413" on="0"/>
        <pt x="111" y="425" on="1"/>
        <pt x="111" y="447" on="1"/>
        <pt x="111" y="630" on="0"/>
        <pt x="216" y="714" on="1"/>
        <pt x="272" y="760" on="0"/>
        <pt x="354" y="760" on="1"/>
        <pt x="384" y="760" on="0"/>
        <pt x="446" y="733" on="0"/>
        <pt x="446" y="723" on="1"/>
        <pt x="438" y="691" on="0"/>
        <pt x="412" y="652" on="1"/>
        <pt x="408" y="648" on="0"/>
        <pt x="402" y="648" on="1"/>
        <pt x="330" y="696" on="0"/>
        <pt x="235" y="696" on="0"/>
        <pt x="196" y="605" on="0"/>
        <pt x="196" y="478" on="1"/>
        <pt x="196" y="429" on="1"/>
        <pt x="196" y="416" on="0"/>
        <pt x="209" y="416" on="1"/>
        <pt x="316" y="419" on="1"/>
        <pt x="319" y="412" on="0"/>
        <pt x="319" y="389" on="0"/>
        <pt x="312" y="369" on="1"/>
        <pt x="207" y="369" on="1"/>
        <pt x="197" y="369" on="0"/>
        <pt x="197" y="354" on="1"/>
        <pt x="197" y="353" on="0"/>
        <pt x="197" y="352" on="1"/>
        <pt x="197" y="72" on="1"/>
        <pt x="197" y="55" on="0"/>
        <pt x="230" y="41" on="0"/>
        <pt x="270" y="38" on="1"/>
      </contour>
    </TTGlyph>
    <TTGlyph name="five" xMin="40" yMin="0" xMax="400" yMax="742">
      <contour>
        <pt x="197" y="679" on="1"/>
        <pt x="281" y="679" on="1"/>
        <pt x="323" y="679" on="0"/>
        <pt x="360" y="702" on="0"/>
        <pt x="375" y="742" on="1"/>
        <pt x="400" y="728" on="1"/>
        <pt x="400" y="711" on="0"/>
        <pt x="392" y="665" on="1"/>
        <pt x="391" y="660" on="0"/>
        <pt x="370" y="593" on="1"/>
        <pt x="334" y="602" on="0"/>
        <pt x="141" y="602" on="1"/>
        <pt x="107" y="480" on="1"/>
        <pt x="251" y="467" on="0"/>
        <pt x="384" y="353" on="0"/>
        <pt x="384" y="195" on="0"/>
        <pt x="284" y="67" on="0"/>
        <pt x="141" y="2" on="0"/>
        <pt x="67" y="0" on="1"/>
        <pt x="60" y="0" on="0"/>
        <pt x="60" y="33" on="0"/>
        <pt x="65" y="33" on="1"/>
        <pt x="163" y="49" on="0"/>
        <pt x="299" y="156" on="0"/>
        <pt x="299" y="244" on="1"/>
        <pt x="299" y="318" on="0"/>
        <pt x="147" y="404" on="0"/>
        <pt x="40" y="404" on="1"/>
        <pt x="107" y="665" on="1"/>
        <pt x="110" y="679" on="0"/>
        <pt x="119" y="688" on="1"/>
        <pt x="154" y="679" on="0"/>
      </contour>
    </TTGlyph>
    <TTGlyph name="florin" xMin="-159" yMin="-142" xMax="452" yMax="723">
      <contour>
        <pt x="102" y="358" on="1"/>
        <pt x="102" y="369" on="0"/>
        <pt x="93" y="369" on="1"/>
        <pt x="39" y="369" on="1"/>
        <pt x="36" y="378" on="0"/>
        <pt x="36" y="390" on="1"/>
        <pt x="36" y="400" on="0"/>
        <pt x="112" y="411" on="0"/>
        <pt x="112" y="425" on="1"/>
        <pt x="116" y="447" on="1"/>
        <pt x="136" y="569" on="0"/>
        <pt x="290" y="723" on="0"/>
        <pt x="387" y="723" on="1"/>
        <pt x="408" y="723" on="0"/>
        <pt x="452" y="703" on="0"/>
        <pt x="452" y="686" on="0"/>
        <pt x="417" y="628" on="0"/>
        <pt x="409" y="628" on="1"/>
        <pt x="355" y="661" on="0"/>
        <pt x="286" y="661" on="0"/>
        <pt x="268" y="648" on="1"/>
        <pt x="230" y="620" on="0"/>
        <pt x="206" y="478" on="1"/>
        <pt x="198" y="429" on="1"/>
        <pt x="198" y="425" on="1"/>
        <pt x="198" y="416" on="0"/>
        <pt x="209" y="416" on="1"/>
        <pt x="316" y="419" on="1"/>
        <pt x="316" y="414" on="1"/>
        <pt x="316" y="388" on="0"/>
        <pt x="304" y="369" on="1"/>
        <pt x="199" y="369" on="1"/>
        <pt x="190" y="369" on="0"/>
        <pt x="188" y="361" on="1"/>
        <pt x="155" y="155" on="1"/>
        <pt x="139" y="52" on="0"/>
        <pt x="84" y="-38" on="1"/>
        <pt x="55" y="-84" on="0"/>
        <pt x="-37" y="-142" on="0"/>
        <pt x="-92" y="-142" on="1"/>
        <pt x="-116" y="-142" on="0"/>
        <pt x="-159" y="-128" on="0"/>
        <pt x="-159" y="-120" on="1"/>
        <pt x="-159" y="-110" on="0"/>
        <pt x="-130" y="-49" on="0"/>
        <pt x="-122" y="-49" on="1"/>
        <pt x="-119" y="-50" on="0"/>
        <pt x="-96" y="-60" on="0"/>
        <pt x="-86" y="-64" on="1"/>
        <pt x="-57" y="-75" on="0"/>
        <pt x="-35" y="-75" on="1"/>
        <pt x="8" y="-75" on="0"/>
        <pt x="42" y="-16" on="0"/>
        <pt x="58" y="82" on="1"/>
        <pt x="102" y="351" on="1"/>
      </contour>
    </TTGlyph>
    <TTGlyph name="four" xMin="25" yMin="-12" xMax="547" yMax="693">
      <contour>
        <pt x="419" y="236" on="1"/>
        <pt x="415" y="236" on="1"/>
        <pt x="415" y="-12" on="1"/>
        <pt x="407" y="-11" on="0"/>
        <pt x="373" y="-9" on="0"/>
        <pt x="365" y="-8" on="1"/>
        <pt x="343" y="-7" on="0"/>
        <pt x="329" y="1" on="1"/>
        <pt x="329" y="236" on="1"/>
        <pt x="46" y="236" on="1"/>
        <pt x="39" y="236" on="0"/>
        <pt x="25" y="248" on="0"/>
        <pt x="25" y="258" on="0"/>
        <pt x="28" y="263" on="1"/>
        <pt x="373" y="679" on="1"/>
        <pt x="381" y="691" on="0"/>
        <pt x="423" y="693" on="1"/>
        <pt x="430" y="684" on="0"/>
        <pt x="430" y="677" on="1"/>
        <pt x="429" y="674" on="1"/>
        <pt x="415" y="651" on="0"/>
        <pt x="415" y="572" on="1"/>
        <pt x="415" y="304" on="1"/>
        <pt x="457" y="304" on="1"/>
        <pt x="495" y="304" on="0"/>
        <pt x="508" y="307" on="0"/>
        <pt x="529" y="315" on="0"/>
        <pt x="542" y="319" on="1"/>
        <pt x="547" y="311" on="0"/>
        <pt x="547" y="273" on="0"/>
        <pt x="540" y="249" on="0"/>
        <pt x="526" y="225" on="1"/>
        <pt x="492" y="236" on="0"/>
      </contour>
      <contour>
        <pt x="333" y="304" on="1"/>
        <pt x="333" y="558" on="1"/>
        <pt x="126" y="304" on="1"/>
      </contour>
    </TTGlyph>
    <TTGlyph name="g" xMin="12" yMin="-268" xMax="458" yMax="442">
      <contour>
        <pt x="391" y="292" on="1"/>
        <pt x="391" y="218" on="0"/>
        <pt x="291" y="129" on="0"/>
        <pt x="220" y="129" on="1"/>
        <pt x="204" y="129" on="0"/>
        <pt x="171" y="132" on="0"/>
        <pt x="137" y="112" on="0"/>
        <pt x="137" y="98" on="1"/>
        <pt x="137" y="74" on="0"/>
        <pt x="178" y="62" on="1"/>
        <pt x="202" y="56" on="0"/>
        <pt x="348" y="42" on="0"/>
        <pt x="376" y="30" on="1"/>
        <pt x="437" y="4" on="0"/>
        <pt x="437" y="-152" on="0"/>
        <pt x="298" y="-268" on="0"/>
        <pt x="198" y="-268" on="1"/>
        <pt x="124" y="-268" on="0"/>
        <pt x="12" y="-201" on="0"/>
        <pt x="12" y="-132" on="1"/>
        <pt x="12" y="-100" on="0"/>
        <pt x="41" y="-71" on="0"/>
        <pt x="74" y="-45" on="0"/>
        <pt x="118" y="-13" on="0"/>
        <pt x="122" y="-10" on="1"/>
        <pt x="97" y="0" on="0"/>
        <pt x="57" y="43" on="0"/>
        <pt x="57" y="77" on="0"/>
        <pt x="65" y="85" on="1"/>
        <pt x="85" y="105" on="0"/>
        <pt x="139" y="142" on="1"/>
        <pt x="99" y="160" on="0"/>
        <pt x="45" y="230" on="0"/>
        <pt x="45" y="277" on="1"/>
        <pt x="45" y="348" on="0"/>
        <pt x="145" y="442" on="0"/>
        <pt x="216" y="442" on="1"/>
        <pt x="255" y="442" on="0"/>
        <pt x="288" y="432" on="1"/>
        <pt x="332" y="423" on="0"/>
        <pt x="420" y="423" on="0"/>
        <pt x="458" y="425" on="1"/>
        <pt x="458" y="415" on="0"/>
        <pt x="450" y="370" on="0"/>
        <pt x="443" y="361" on="1"/>
        <pt x="367" y="375" on="1"/>
        <pt x="391" y="338" on="0"/>
      </contour>
      <contour>
        <pt x="280" y="-218" on="0"/>
        <pt x="352" y="-157" on="0"/>
        <pt x="352" y="-65" on="0"/>
        <pt x="270" y="-22" on="0"/>
        <pt x="183" y="-22" on="1"/>
        <pt x="160" y="-22" on="0"/>
        <pt x="128" y="-42" on="0"/>
        <pt x="112" y="-54" on="0"/>
        <pt x="92" y="-88" on="0"/>
        <pt x="92" y="-110" on="1"/>
        <pt x="92" y="-156" on="0"/>
        <pt x="167" y="-218" on="0"/>
      </contour>
      <contour>
        <pt x="226" y="173" on="1"/>
        <pt x="315" y="173" on="0"/>
        <pt x="315" y="275" on="1"/>
        <pt x="315" y="332" on="0"/>
        <pt x="262" y="400" on="0"/>
        <pt x="170" y="400" on="0"/>
        <pt x="121" y="348" on="0"/>
        <pt x="121" y="242" on="0"/>
        <pt x="181" y="173" on="0"/>
      </contour>
    </TTGlyph>
    <TTGlyph name="germandbls" xMin="40" yMin="-12" xMax="563" yMax="760">
      <contour>
        <pt x="259" y="-1" on="1"/>
        <pt x="171" y="1" on="1"/>
        <pt x="170" y="1" on="0"/>
        <pt x="53" y="-2" on="1"/>
        <pt x="45" y="38" on="1"/>
        <pt x="93" y="42" on="0"/>
        <pt x="112" y="51" on="0"/>
        <pt x="112" y="72" on="1"/>
        <pt x="112" y="351" on="1"/>
        <pt x="112" y="369" on="0"/>
        <pt x="101" y="369" on="1"/>
        <pt x="47" y="369" on="1"/>
        <pt x="40" y="381" on="0"/>
        <pt x="40" y="400" on="1"/>
        <pt x="89" y="406" on="0"/>
        <pt x="106" y="412" on="1"/>
        <pt x="111" y="413" on="0"/>
        <pt x="111" y="425" on="1"/>
        <pt x="111" y="447" on="1"/>
        <pt x="111" y="575" on="0"/>
        <pt x="248" y="760" on="0"/>
        <pt x="361" y="760" on="1"/>
        <pt x="424" y="760" on="0"/>
        <pt x="525" y="680" on="0"/>
        <pt x="525" y="609" on="1"/>
        <pt x="525" y="576" on="0"/>
        <pt x="487" y="510" on="0"/>
        <pt x="464" y="488" on="1"/>
        <pt x="402" y="430" on="0"/>
        <pt x="402" y="397" on="1"/>
        <pt x="402" y="360" on="0"/>
        <pt x="458" y="317" on="1"/>
        <pt x="482" y="299" on="0"/>
        <pt x="530" y="257" on="0"/>
        <pt x="563" y="192" on="0"/>
        <pt x="563" y="152" on="1"/>
        <pt x="563" y="90" on="0"/>
        <pt x="469" y="-12" on="0"/>
        <pt x="334" y="-12" on="0"/>
        <pt x="292" y="13" on="1"/>
        <pt x="288" y="17" on="0"/>
        <pt x="288" y="27" on="1"/>
        <pt x="288" y="72" on="0"/>
        <pt x="307" y="87" on="1"/>
        <pt x="311" y="91" on="0"/>
        <pt x="318" y="87" on="0"/>
        <pt x="337" y="66" on="0"/>
        <pt x="350" y="56" on="0"/>
        <pt x="361" y="48" on="1"/>
        <pt x="383" y="32" on="0"/>
        <pt x="449" y="32" on="0"/>
        <pt x="486" y="77" on="0"/>
        <pt x="486" y="140" on="0"/>
        <pt x="430" y="206" on="0"/>
        <pt x="363" y="255" on="0"/>
        <pt x="307" y="322" on="0"/>
        <pt x="307" y="380" on="0"/>
        <pt x="349" y="436" on="0"/>
        <pt x="398" y="478" on="0"/>
        <pt x="440" y="545" on="0"/>
        <pt x="440" y="580" on="1"/>
        <pt x="440" y="643" on="0"/>
        <pt x="375" y="710" on="0"/>
        <pt x="327" y="710" on="1"/>
        <pt x="197" y="710" on="0"/>
        <pt x="197" y="478" on="1"/>
        <pt x="197" y="72" on="1"/>
        <pt x="197" y="54" on="0"/>
        <pt x="214" y="40" on="0"/>
        <pt x="250" y="38" on="1"/>
      </contour>
    </TTGlyph>
    <TTGlyph name="grave" xMin="40" yMin="515" xMax="221" yMax="716">
      <contour>
        <pt x="134" y="716" on="1"/>
        <pt x="221" y="535" on="1"/>
        <pt x="221" y="531" on="0"/>
        <pt x="209" y="518" on="0"/>
        <pt x="198" y="515" on="1"/>
        <pt x="40" y="681" on="1"/>
        <pt x="40" y="688" on="0"/>
        <pt x="117" y="716" on="0"/>
      </contour>
    </TTGlyph>
    <TTGlyph name="grave.cap" xMin="30" yMin="585" xMax="241" yMax="714">
      <contour>
        <pt x="87" y="714" on="1"/>
        <pt x="241" y="605" on="1"/>
        <pt x="241" y="601" on="0"/>
        <pt x="229" y="588" on="0"/>
        <pt x="218" y="585" on="1"/>
        <pt x="30" y="661" on="1"/>
        <pt x="32" y="671" on="0"/>
        <pt x="79" y="714" on="0"/>
      </contour>
    </TTGlyph>
    <TTGlyph name="greater" xMin="62" yMin="20" xMax="470" yMax="524">
      <contour>
        <pt x="469" y="303" on="1"/>
        <pt x="470" y="300" on="0"/>
        <pt x="470" y="286" on="0"/>
        <pt x="462" y="239" on="0"/>
        <pt x="456" y="233" on="1"/>
        <pt x="67" y="20" on="1"/>
        <pt x="62" y="28" on="0"/>
        <pt x="62" y="65" on="0"/>
        <pt x="67" y="93" on="1"/>
        <pt x="378" y="271" on="1"/>
        <pt x="378" y="275" on="1"/>
        <pt x="67" y="452" on="1"/>
        <pt x="63" y="464" on="0"/>
        <pt x="63" y="519" on="0"/>
        <pt x="67" y="524" on="1"/>
      </contour>
    </TTGlyph>
    <TTGlyph name="guillemotleft" xMin="20" yMin="40" xMax="458" yMax="423">
      <contour>
        <pt x="270" y="418" on="0"/>
        <pt x="270" y="381" on="0"/>
        <pt x="268" y="371" on="1"/>
        <pt x="119" y="233" on="1"/>
        <pt x="119" y="231" on="1"/>
        <pt x="268" y="92" on="1"/>
        <pt x="270" y="86" on="0"/>
        <pt x="270" y="47" on="0"/>
        <pt x="268" y="40" on="1"/>
        <pt x="251" y="57" on="0"/>
        <pt x="60" y="198" on="0"/>
        <pt x="29" y="206" on="1"/>
        <pt x="20" y="215" on="0"/>
        <pt x="20" y="249" on="0"/>
        <pt x="21" y="251" on="1"/>
        <pt x="70" y="270" on="0"/>
        <pt x="190" y="363" on="1"/>
        <pt x="218" y="385" on="0"/>
        <pt x="267" y="422" on="0"/>
        <pt x="268" y="423" on="1"/>
      </contour>
      <contour>
        <pt x="454" y="418" on="0"/>
        <pt x="454" y="381" on="0"/>
        <pt x="452" y="371" on="1"/>
        <pt x="303" y="233" on="1"/>
        <pt x="303" y="231" on="1"/>
        <pt x="458" y="92" on="1"/>
        <pt x="459" y="87" on="0"/>
        <pt x="454" y="46" on="0"/>
        <pt x="452" y="40" on="1"/>
        <pt x="430" y="62" on="0"/>
        <pt x="254" y="198" on="0"/>
        <pt x="223" y="206" on="1"/>
        <pt x="214" y="215" on="0"/>
        <pt x="214" y="249" on="0"/>
        <pt x="215" y="251" on="1"/>
        <pt x="261" y="268" on="0"/>
        <pt x="402" y="382" on="1"/>
        <pt x="451" y="422" on="0"/>
        <pt x="452" y="423" on="1"/>
      </contour>
    </TTGlyph>
</ttFont>
